<svg width="11" height="12" viewBox="0 0 11 12" fill="none" xmlns="http://www.w3.org/2000/svg">
<path d="M6.2772 6.00012L10.4772 1.80679C10.6027 1.68125 10.6733 1.51099 10.6733 1.33346C10.6733 1.15592 10.6027 0.985659 10.4772 0.860124C10.3517 0.734588 10.1814 0.664062 10.0039 0.664062C9.82633 0.664062 9.65607 0.734588 9.53053 0.860124L5.3372 5.06012L1.14387 0.860124C1.01833 0.734588 0.848067 0.664063 0.670532 0.664063C0.492998 0.664063 0.322735 0.734588 0.197199 0.860124C0.0716631 0.985659 0.00113789 1.15592 0.00113789 1.33346C0.00113789 1.51099 0.0716631 1.68125 0.197199 1.80679L4.3972 6.00012L0.197199 10.1935C0.134713 10.2554 0.0851172 10.3292 0.0512714 10.4104C0.0174257 10.4916 0 10.5788 0 10.6668C0 10.7548 0.0174257 10.8419 0.0512714 10.9232C0.0851172 11.0044 0.134713 11.0781 0.197199 11.1401C0.259174 11.2026 0.332908 11.2522 0.414148 11.2861C0.495387 11.3199 0.582524 11.3373 0.670532 11.3373C0.75854 11.3373 0.845677 11.3199 0.926917 11.2861C1.00816 11.2522 1.08189 11.2026 1.14387 11.1401L5.3372 6.94012L9.53053 11.1401C9.59251 11.2026 9.66624 11.2522 9.74748 11.2861C9.82872 11.3199 9.91586 11.3373 10.0039 11.3373C10.0919 11.3373 10.179 11.3199 10.2602 11.2861C10.3415 11.2522 10.4152 11.2026 10.4772 11.1401C10.5397 11.0781 10.5893 11.0044 10.6231 10.9232C10.657 10.8419 10.6744 10.7548 10.6744 10.6668C10.6744 10.5788 10.657 10.4916 10.6231 10.4104C10.5893 10.3292 10.5397 10.2554 10.4772 10.1935L6.2772 6.00012Z" fill="white"/>
</svg>
