<svg width="182" height="98" viewBox="0 0 182 98" fill="none" xmlns="http://www.w3.org/2000/svg">
<rect width="182" height="98" rx="16" fill="#5865F2"/>
<g clip-path="url(#clip0_34_221)">
<path d="M102.089 38.8264C100.05 37.8905 97.8627 37.201 95.5759 36.8061C95.5343 36.7985 95.4927 36.8175 95.4712 36.8556C95.1899 37.3559 94.8784 38.0085 94.6602 38.5215C92.2006 38.1533 89.7536 38.1533 87.3445 38.5215C87.1262 37.9972 86.8034 37.3559 86.5208 36.8556C86.4994 36.8188 86.4577 36.7997 86.4161 36.8061C84.1306 37.1997 81.9435 37.8892 79.9026 38.8264C79.8849 38.834 79.8698 38.8467 79.8597 38.8632C75.7112 45.061 74.5747 51.1065 75.1322 57.077C75.1347 57.1062 75.1512 57.1341 75.1739 57.1518C77.9109 59.1619 80.5623 60.3822 83.1644 61.191C83.206 61.2037 83.2501 61.1885 83.2766 61.1542C83.8921 60.3137 84.4408 59.4273 84.9112 58.4953C84.939 58.4407 84.9125 58.376 84.8557 58.3544C83.9854 58.0242 83.1567 57.6217 82.3595 57.1646C82.2965 57.1278 82.2914 57.0376 82.3495 56.9944C82.5172 56.8687 82.685 56.7379 82.8452 56.6059C82.8742 56.5817 82.9146 56.5767 82.9487 56.5919C88.1857 58.9829 93.8554 58.9829 99.0305 56.5919C99.0646 56.5753 99.105 56.5805 99.1352 56.6045C99.2955 56.7366 99.4632 56.8687 99.6322 56.9944C99.6902 57.0375 99.6864 57.1277 99.6234 57.1645C98.8262 57.6305 97.9975 58.0242 97.126 58.353C97.0692 58.3746 97.044 58.4407 97.0718 58.4952C97.5524 59.426 98.101 60.3123 98.7052 61.1529C98.7304 61.1885 98.7758 61.2037 98.8174 61.191C101.432 60.3822 104.083 59.1618 106.821 57.1518C106.845 57.134 106.86 57.1074 106.862 57.0782C107.529 50.1756 105.745 44.1797 102.131 38.8644C102.122 38.8467 102.107 38.834 102.089 38.8264ZM85.6934 53.4415C84.1167 53.4415 82.8175 51.994 82.8175 50.2163C82.8175 48.4385 84.0915 46.991 85.6934 46.991C87.3079 46.991 88.5945 48.4513 88.5692 50.2163C88.5692 51.994 87.2952 53.4415 85.6934 53.4415ZM96.3264 53.4415C94.7497 53.4415 93.4505 51.994 93.4505 50.2163C93.4505 48.4385 94.7245 46.991 96.3264 46.991C97.9409 46.991 99.2274 48.4513 99.2022 50.2163C99.2022 51.994 97.9409 53.4415 96.3264 53.4415Z" fill="white"/>
</g>
<defs>
<clipPath id="clip0_34_221">
<rect width="32" height="32" fill="white" transform="translate(75 33)"/>
</clipPath>
</defs>
</svg>
