<svg width="47" height="47" viewBox="0 0 47 47" fill="none" xmlns="http://www.w3.org/2000/svg">
<rect width="47" height="47" rx="16" fill="#5865F2"/>
<g clip-path="url(#clip0_30_217)">
<path d="M28.5447 18.9132C27.5249 18.4453 26.4314 18.1005 25.288 17.9031C25.2671 17.8992 25.2463 17.9088 25.2356 17.9278C25.095 18.178 24.9392 18.5043 24.8301 18.7608C23.6003 18.5766 22.3768 18.5766 21.1722 18.7608C21.0631 18.4986 20.9017 18.178 20.7604 17.9278C20.7497 17.9094 20.7289 17.8999 20.7081 17.9031C19.5653 18.0999 18.4717 18.4446 17.4513 18.9132C17.4425 18.917 17.4349 18.9233 17.4299 18.9316C15.3556 22.0305 14.7874 25.0532 15.0661 28.0385C15.0674 28.0531 15.0756 28.067 15.0869 28.0759C16.4555 29.081 17.7811 29.6911 19.0822 30.0955C19.103 30.1019 19.1251 30.0943 19.1383 30.0771C19.4461 29.6568 19.7204 29.2137 19.9556 28.7476C19.9695 28.7204 19.9562 28.688 19.9279 28.6772C19.4927 28.5121 19.0784 28.3108 18.6798 28.0823C18.6482 28.0639 18.6457 28.0188 18.6747 27.9972C18.7586 27.9344 18.8425 27.869 18.9226 27.8029C18.9371 27.7909 18.9573 27.7883 18.9743 27.7959C21.5928 28.9915 24.4277 28.9915 27.0153 27.7959C27.0323 27.7877 27.0525 27.7902 27.0676 27.8023C27.1477 27.8683 27.2316 27.9343 27.3161 27.9972C27.3451 28.0188 27.3432 28.0639 27.3117 28.0823C26.9131 28.3153 26.4988 28.5121 26.063 28.6765C26.0346 28.6873 26.022 28.7203 26.0359 28.7476C26.2762 29.213 26.5505 29.6561 26.8526 30.0765C26.8652 30.0942 26.8879 30.1019 26.9087 30.0955C28.2161 29.6911 29.5417 29.0809 30.9103 28.0759C30.9223 28.067 30.9298 28.0537 30.9311 28.0391C31.2647 24.5878 30.3723 21.5898 28.5655 18.9322C28.5611 18.9233 28.5535 18.917 28.5447 18.9132ZM20.3467 26.2208C19.5584 26.2208 18.9088 25.497 18.9088 24.6081C18.9088 23.7193 19.5457 22.9955 20.3467 22.9955C21.1539 22.9955 21.7972 23.7256 21.7846 24.6081C21.7846 25.497 21.1476 26.2208 20.3467 26.2208ZM25.6632 26.2208C24.8749 26.2208 24.2253 25.497 24.2253 24.6081C24.2253 23.7193 24.8622 22.9955 25.6632 22.9955C26.4704 22.9955 27.1137 23.7256 27.1011 24.6081C27.1011 25.497 26.4705 26.2208 25.6632 26.2208Z" fill="white"/>
</g>
<defs>
<clipPath id="clip0_30_217">
<rect width="16" height="16" fill="white" transform="translate(15 16)"/>
</clipPath>
</defs>
</svg>
