<svg width="182" height="98" viewBox="0 0 182 98" fill="none" xmlns="http://www.w3.org/2000/svg">
<rect width="182" height="98" rx="16" fill="#157DC3"/>
<path d="M112.344 33H85.6545C84.7407 33.0005 83.9998 33.7418 84 34.656V61.3455C84.0005 62.2593 84.7418 63.0002 85.656 63H100.025V51.3984H96.1289V46.8574H100.025V43.5156C100.025 39.6401 102.391 37.5308 105.848 37.5308C107.504 37.5308 108.927 37.6542 109.342 37.7093V41.7598H106.958C105.077 41.7598 104.713 42.6535 104.713 43.9653V46.8574H109.21L108.624 51.3984H104.713V63H112.344C113.258 63.0002 114 62.2592 114 61.3447C114 61.3445 114 61.3444 114 61.344V34.6545C114 33.7407 113.258 32.9998 112.344 33Z" fill="white"/>
</svg>
