<svg width="182" height="98" viewBox="0 0 182 98" fill="none" xmlns="http://www.w3.org/2000/svg">
<rect width="182" height="98" rx="16" fill="#171515"/>
<g clip-path="url(#clip0_34_222)">
<path d="M91 33.6667C82.16 33.6667 75 40.7067 75 49.3894C75 56.3374 79.584 62.2294 85.94 64.3067C86.74 64.4547 87.0333 63.968 87.0333 63.5507C87.0333 63.1774 87.02 62.188 87.0133 60.8774C82.5627 61.8254 81.624 58.768 81.624 58.768C80.896 56.9534 79.844 56.468 79.844 56.468C78.3947 55.4934 79.956 55.5134 79.956 55.5134C81.5627 55.6227 82.4067 57.1334 82.4067 57.1334C83.8333 59.5374 86.152 58.8427 87.0667 58.4414C87.2107 57.424 87.6227 56.732 88.08 56.3387C84.5267 55.9454 80.792 54.5934 80.792 48.5694C80.792 46.8534 81.412 45.4507 82.4387 44.3507C82.2587 43.9534 81.7187 42.3547 82.5787 40.1894C82.5787 40.1894 83.9187 39.768 86.9787 41.8014C88.2587 41.452 89.6187 41.2787 90.9787 41.2707C92.3387 41.2787 93.6987 41.452 94.9787 41.8014C98.0187 39.768 99.3587 40.1894 99.3587 40.1894C100.219 42.3547 99.6787 43.9534 99.5187 44.3507C100.539 45.4507 101.159 46.8534 101.159 48.5694C101.159 54.6094 97.4187 55.9387 93.8587 56.3254C94.4187 56.7974 94.9387 57.7614 94.9387 59.2347C94.9387 61.3387 94.9187 63.0294 94.9187 63.54C94.9187 63.952 95.1987 64.444 96.0187 64.2867C102.42 62.2227 107 56.3267 107 49.3894C107 40.7067 99.836 33.6667 91 33.6667Z" fill="white"/>
</g>
<defs>
<clipPath id="clip0_34_222">
<rect width="32" height="32" fill="white" transform="translate(75 33)"/>
</clipPath>
</defs>
</svg>
