<svg width="238" height="78" viewBox="0 0 238 78" fill="none" xmlns="http://www.w3.org/2000/svg">
<path d="M49.0906 74.9181C49.0906 76.2117 41.4372 77.2982 32.0299 77.2982C30.555 77.2982 29.12 77.2465 27.7647 77.2465C20.3904 76.9878 14.9692 76.0564 14.9692 74.9699C14.9692 66.1222 35.458 62.6556 45.3436 69.1749C47.1772 70.365 49.0906 72.2276 49.0906 74.9181Z" fill="#784440"/>
<path d="M45.3437 69.1234C40.7995 68.9682 33.744 70.0548 27.7648 77.2467C20.3904 76.988 14.9693 76.0567 14.9693 74.9701C14.9294 66.1225 35.4182 62.6558 45.3437 69.1234Z" fill="#814742"/>
<path d="M0.912499 32.9124C-2.60131 22.2358 11.7242 21.7628 21.1844 21.7628C9.96721 21.7628 7.16295 25.5357 6.99403 27.3376C7.50083 41.3591 37.402 51.8329 54.8021 54.029L60.208 58.2524C22.198 56.0562 4.85428 40.2892 0.912499 32.9124Z" fill="url(#paint0_linear_140_210)"/>
<path d="M17.1292 68.2194C1.58737 62.273 -0.890366 41.0775 0.235854 30.0405C1.99276 37.879 13.3563 45.2445 18.8185 47.9474C33.8791 55.6508 52.7425 57.9708 60.2071 58.2524C55.646 69.4019 34.5294 74.8768 17.1292 68.2194Z" fill="url(#paint1_linear_140_210)"/>
<path d="M56.491 26.324C57.0316 46.0554 55.6463 53.0154 54.8016 54.029L60.2075 58.2523C63.7213 52.5762 63.924 34.6017 63.5862 26.324H56.491Z" fill="url(#paint2_linear_140_210)"/>
<path d="M18.3127 42.0348C7.50093 36.0884 5.64265 29.1959 7.33197 25.8173C27.0634 30.8177 48.2701 28.4076 56.4915 26.3241C57.3024 45.1094 55.8158 52.5087 54.8022 54.0291C40.747 53.0831 24.6195 45.5824 18.3127 42.0348Z" fill="url(#paint3_linear_140_210)"/>
<path d="M63.7543 26.3241C61.0514 21.9994 34.1347 21.4814 21.0143 21.7629C12.7703 21.7629 8.51322 23.9591 7.33069 25.8173C9.89847 27.9797 22.6473 28.8581 28.7852 29.0271C39.3266 29.5676 51.6475 27.4503 56.4902 26.3241H63.7543Z" fill="#6C3C2B"/>
<g filter="url(#filter0_i_140_210)">
<ellipse cx="31.8267" cy="25.4792" rx="22.806" ry="2.19613" fill="#303030"/>
</g>
<path d="M46.4078 3.85667C45.5966 9.54152 45.5959 15.3127 46.4057 20.9977L46.9638 24.9153C46.9638 25.8948 40.1261 26.7518 31.732 26.7518C29.2304 26.7518 26.8956 26.6906 24.8388 26.5682C19.8912 26.2621 16.5002 24.7929 16.6114 24.6705C17.7545 16.5895 17.7506 8.3876 16.5996 0.307757L16.5558 0H46.9638L46.4078 3.85667Z" fill="#CA7B57"/>
<path d="M90.1137 45.4902H99.7308C104.944 45.4902 108.009 42.6863 108.009 38.4258C108.009 35.9496 106.917 33.8011 103.747 32.5266C103.359 32.381 103.183 31.7983 103.676 31.6162C105.896 30.7423 107.199 29.0308 107.199 26.4454C107.199 22.2941 103.5 20 98.991 20H90.1137C88.775 20 88 20.8739 88 21.93C88 22.3305 88.1057 22.7311 88.3523 23.1317C88.9511 24.1513 89.3034 25.3165 89.3034 27.1008V38.3894C89.3034 40.1737 88.9511 41.3389 88.3523 42.3585C88.1057 42.7591 88 43.1597 88 43.5602C88 44.6162 88.775 45.4902 90.1137 45.4902ZM96.1376 29.9776C95.5739 29.9776 95.2216 29.6134 95.2216 29.0308V25.3165C95.2216 24.7339 95.5387 24.3697 96.1376 24.3697H98.1808C99.8012 24.3697 100.964 25.3529 100.964 27.1737C100.964 28.9944 99.8012 29.9776 98.1808 29.9776H96.1376ZM96.1376 41.1204C95.5739 41.1204 95.2216 40.7927 95.2216 40.1737V35.2941C95.2216 34.7115 95.5739 34.3473 96.1376 34.3473H98.533C100.506 34.3473 101.809 35.6583 101.809 37.7339C101.809 39.8095 100.506 41.1204 98.533 41.1204H96.1376Z" fill="white"/>
<path d="M118.9 46C123.867 46 127.954 42.2493 127.954 36.1681C127.954 30.0868 123.973 26.409 118.9 26.409C113.933 26.409 109.847 30.0868 109.847 36.1681C109.847 42.2493 113.828 46 118.9 46ZM119.182 41.5938C116.822 41.5938 115.519 38.7535 115.519 35.1485C115.519 32.2717 116.787 30.7787 118.583 30.7787C120.944 30.7787 122.282 33.5462 122.282 37.1877C122.282 40.1008 120.979 41.5938 119.182 41.5938Z" fill="white"/>
<path d="M135.805 46C138.623 46 140.807 44.2157 140.807 42.2129C140.807 41.3025 140.385 40.8291 139.751 40.8291C139.011 40.8291 138.518 41.2661 137.637 41.2661C136.932 41.2661 136.474 40.7563 136.474 39.8824V31.4706C136.474 30.9972 136.721 30.7423 137.179 30.7423H139.222C139.997 30.7423 140.455 30.2689 140.455 29.4678V28.1933C140.455 27.3922 139.997 26.9188 139.222 26.9188H137.25C136.756 26.9188 136.474 26.6275 136.474 26.1176V24.8431C136.474 23.7143 135.523 23.0588 134.502 23.7143L129.429 26.9188C128.76 27.3557 128.478 27.7199 128.478 28.521V29.4678C128.478 30.2689 128.936 30.7423 129.711 30.7423H130.134C130.591 30.7423 130.838 30.9972 130.838 31.4706V40.3922C130.838 44.1429 132.917 46 135.805 46Z" fill="white"/>
<path d="M144.193 45.4902H148.491C149.83 45.4902 150.605 44.6162 150.605 43.5602C150.605 43.1597 150.499 42.7591 150.253 42.3585C149.619 41.3389 149.301 40.1737 149.301 38.3894V37.1877C149.301 36.5322 149.654 36.1681 150.288 36.1681H152.472C158.038 36.1681 160.927 32.8908 160.927 28.084C160.927 23.2773 158.038 20 152.472 20H144.193C142.855 20 142.08 20.8739 142.08 21.93C142.08 22.3305 142.185 22.7311 142.432 23.1317C143.031 24.1513 143.383 25.3165 143.383 27.1008V38.3894C143.383 40.1737 143.031 41.3389 142.432 42.3585C142.185 42.7591 142.08 43.1597 142.08 43.5602C142.08 44.6162 142.855 45.4902 144.193 45.4902ZM150.288 31.7983C149.654 31.7983 149.301 31.4342 149.301 30.7787V25.3894C149.301 24.7339 149.654 24.3697 150.288 24.3697H151.873C153.987 24.3697 155.22 25.6443 155.22 28.084C155.22 30.5238 153.987 31.7983 151.873 31.7983H150.288Z" fill="white"/>
<path d="M170.331 46C175.298 46 179.385 42.2493 179.385 36.1681C179.385 30.0868 175.404 26.409 170.331 26.409C165.364 26.409 161.278 30.0868 161.278 36.1681C161.278 42.2493 165.258 46 170.331 46ZM170.613 41.5938C168.253 41.5938 166.949 38.7535 166.949 35.1485C166.949 32.2717 168.218 30.7787 170.014 30.7787C172.374 30.7787 173.713 33.5462 173.713 37.1877C173.713 40.1008 172.41 41.5938 170.613 41.5938Z" fill="white"/>
<path d="M187.236 46C190.054 46 192.238 44.2157 192.238 42.2129C192.238 41.3025 191.816 40.8291 191.182 40.8291C190.442 40.8291 189.949 41.2661 189.068 41.2661C188.363 41.2661 187.905 40.7563 187.905 39.8824V31.4706C187.905 30.9972 188.152 30.7423 188.61 30.7423H190.653C191.428 30.7423 191.886 30.2689 191.886 29.4678V28.1933C191.886 27.3922 191.428 26.9188 190.653 26.9188H188.68C188.187 26.9188 187.905 26.6275 187.905 26.1176V24.8431C187.905 23.7143 186.954 23.0588 185.933 23.7143L180.86 26.9188C180.191 27.3557 179.909 27.7199 179.909 28.521V29.4678C179.909 30.2689 180.367 30.7423 181.142 30.7423H181.564C182.022 30.7423 182.269 30.9972 182.269 31.4706V40.3922C182.269 44.1429 184.347 46 187.236 46Z" fill="white"/>
<path d="M200.274 46C203.093 46 205.277 44.2157 205.277 42.2129C205.277 41.3025 204.854 40.8291 204.22 40.8291C203.48 40.8291 202.987 41.2661 202.106 41.2661C201.402 41.2661 200.944 40.7563 200.944 39.8824V31.4706C200.944 30.9972 201.19 30.7423 201.648 30.7423H203.691C204.466 30.7423 204.924 30.2689 204.924 29.4678V28.1933C204.924 27.3922 204.466 26.9188 203.691 26.9188H201.719C201.225 26.9188 200.944 26.6275 200.944 26.1176V24.8431C200.944 23.7143 199.993 23.0588 198.971 23.7143L193.898 26.9188C193.229 27.3557 192.947 27.7199 192.947 28.521V29.4678C192.947 30.2689 193.405 30.7423 194.18 30.7423H194.603C195.061 30.7423 195.307 30.9972 195.307 31.4706V40.3922C195.307 44.1429 197.386 46 200.274 46Z" fill="white"/>
<path d="M214.675 46C218.445 46 220.734 44.07 222.073 41.4118C222.848 39.8459 221.263 38.4258 219.642 39.7367C218.515 40.6471 217.212 41.3025 215.591 41.3025C213.548 41.3025 211.928 39.7003 211.54 37.8067C211.47 37.4062 211.646 37.1877 211.998 37.1877H221.228C222.355 37.1877 222.989 36.6415 222.989 35.0756C222.989 30.451 220.241 26.409 214.816 26.409C209.25 26.409 205.622 30.7059 205.622 36.1681C205.622 42.2493 209.25 46 214.675 46ZM212.104 33.6919C211.716 33.6919 211.54 33.437 211.681 33.0728C212.245 31.5798 213.337 30.7423 214.71 30.7423C216.225 30.7423 217.282 31.5798 217.423 32.8908C217.493 33.4006 217.247 33.6919 216.789 33.6919H212.104Z" fill="white"/>
<path d="M226.058 45.4902H229.651C230.919 45.4902 231.483 44.7255 231.13 43.451C230.849 42.4314 230.672 41.5938 230.672 40.028V34.9664C230.672 33 231.201 31.6527 232.117 31.6527C233.174 31.6527 233.279 33.9468 235.217 33.9468C238.81 33.9468 239.092 26.409 235.076 26.409C233.491 26.409 232.539 27.2101 231.377 28.7031C230.954 29.2493 230.672 28.958 230.672 28.521V28.0476C230.672 26.8095 230.003 26.1541 228.418 26.4818L225.67 27.028C224.719 27.2101 224.226 28.2661 224.578 29.1401C224.789 29.6499 225.036 30.4146 225.036 31.3978V40.028C225.036 41.5938 224.86 42.4314 224.578 43.451C224.226 44.7255 224.789 45.4902 226.058 45.4902Z" fill="white"/>
<path d="M88.9909 54.4055V61.7851H88V54.4055H88.9909ZM92.1229 57.7253V58.5261H88.7753V57.7253H92.1229ZM92.6312 54.4055V55.2063H88.7753V54.4055H92.6312Z" fill="white"/>
<path d="M93.3038 59.1039V58.9873C93.3038 58.592 93.362 58.2254 93.4784 57.8875C93.5948 57.5462 93.7625 57.2505 93.9816 57.0005C94.2006 56.7471 94.4659 56.5511 94.7774 56.4126C95.0889 56.2707 95.438 56.1997 95.8248 56.1997C96.215 56.1997 96.5659 56.2707 96.8774 56.4126C97.1923 56.5511 97.4593 56.7471 97.6783 57.0005C97.9008 57.2505 98.0703 57.5462 98.1867 57.8875C98.303 58.2254 98.3612 58.592 98.3612 58.9873V59.1039C98.3612 59.4992 98.303 59.8659 98.1867 60.2038C98.0703 60.5416 97.9008 60.8373 97.6783 61.0907C97.4593 61.3408 97.194 61.5367 96.8825 61.6787C96.5744 61.8172 96.2253 61.8865 95.8351 61.8865C95.4449 61.8865 95.094 61.8172 94.7825 61.6787C94.4711 61.5367 94.2041 61.3408 93.9816 61.0907C93.7625 60.8373 93.5948 60.5416 93.4784 60.2038C93.362 59.8659 93.3038 59.4992 93.3038 59.1039ZM94.2537 58.9873V59.1039C94.2537 59.3776 94.2862 59.6361 94.3513 59.8794C94.4163 60.1193 94.5138 60.3322 94.6439 60.518C94.7774 60.7038 94.9434 60.8508 95.142 60.9589C95.3405 61.0637 95.5715 61.1161 95.8351 61.1161C96.0952 61.1161 96.3229 61.0637 96.518 60.9589C96.7165 60.8508 96.8808 60.7038 97.0109 60.518C97.1409 60.3322 97.2385 60.1193 97.3035 59.8794C97.372 59.6361 97.4062 59.3776 97.4062 59.1039V58.9873C97.4062 58.717 97.372 58.4619 97.3035 58.222C97.2385 57.9787 97.1392 57.7641 97.0057 57.5783C96.8757 57.3891 96.7114 57.2404 96.5128 57.1323C96.3177 57.0242 96.0884 56.9701 95.8248 56.9701C95.5647 56.9701 95.3353 57.0242 95.1368 57.1323C94.9417 57.2404 94.7774 57.3891 94.6439 57.5783C94.5138 57.7641 94.4163 57.9787 94.3513 58.222C94.2862 58.4619 94.2537 58.717 94.2537 58.9873Z" fill="white"/>
<path d="M100.502 57.1627V61.7851H99.5524V56.3011H100.477L100.502 57.1627ZM102.238 56.2707L102.233 57.1424C102.154 57.1255 102.079 57.1154 102.007 57.112C101.938 57.1053 101.859 57.1019 101.77 57.1019C101.551 57.1019 101.358 57.1357 101.19 57.2032C101.023 57.2708 100.88 57.3654 100.764 57.4871C100.648 57.6087 100.555 57.754 100.487 57.923C100.422 58.0885 100.379 58.271 100.359 58.4703L100.092 58.6224C100.092 58.2913 100.124 57.9804 100.189 57.6898C100.258 57.3992 100.362 57.1424 100.502 56.9194C100.643 56.693 100.821 56.5173 101.036 56.3923C101.255 56.2639 101.515 56.1997 101.817 56.1997C101.885 56.1997 101.964 56.2081 102.053 56.225C102.142 56.2386 102.203 56.2538 102.238 56.2707Z" fill="white"/>
<path d="M104.06 57.3908V61.7851H103.105V56.3011H104.009L104.06 57.3908ZM103.865 58.8353L103.424 58.8201C103.427 58.445 103.477 58.0987 103.573 57.781C103.668 57.46 103.811 57.1813 103.999 56.9448C104.187 56.7082 104.422 56.5258 104.702 56.3974C104.983 56.2656 105.308 56.1997 105.678 56.1997C105.938 56.1997 106.177 56.2369 106.397 56.3112C106.616 56.3822 106.806 56.4954 106.966 56.6508C107.127 56.8062 107.252 57.0056 107.341 57.2489C107.43 57.4921 107.475 57.7861 107.475 58.1308V61.7851H106.525V58.1764C106.525 57.8892 106.475 57.6594 106.376 57.4871C106.28 57.3147 106.143 57.1897 105.965 57.112C105.787 57.0309 105.578 56.9904 105.339 56.9904C105.058 56.9904 104.824 57.0394 104.635 57.1374C104.447 57.2353 104.297 57.3705 104.184 57.5428C104.071 57.7152 103.989 57.9128 103.937 58.1358C103.889 58.3555 103.865 58.5886 103.865 58.8353ZM107.465 58.3183L106.828 58.5109C106.831 58.2102 106.881 57.9213 106.977 57.6442C107.076 57.3671 107.218 57.1205 107.403 56.9042C107.591 56.688 107.822 56.5173 108.096 56.3923C108.37 56.2639 108.683 56.1997 109.036 56.1997C109.333 56.1997 109.597 56.2386 109.826 56.3163C110.059 56.394 110.254 56.5139 110.412 56.6761C110.573 56.8349 110.694 57.0394 110.776 57.2894C110.858 57.5394 110.899 57.8368 110.899 58.1814V61.7851H109.944V58.1713C109.944 57.8638 109.895 57.6256 109.796 57.4567C109.7 57.2843 109.563 57.1644 109.385 57.0968C109.21 57.0258 109.001 56.9904 108.758 56.9904C108.55 56.9904 108.365 57.0258 108.204 57.0968C108.043 57.1678 107.908 57.2658 107.798 57.3908C107.689 57.5124 107.605 57.6526 107.547 57.8115C107.492 57.9703 107.465 58.1392 107.465 58.3183Z" fill="white"/>
<path d="M116.506 61.2174L118.052 56.3011H119.068L116.84 62.6315C116.789 62.7667 116.72 62.912 116.635 63.0674C116.552 63.2262 116.446 63.3766 116.316 63.5185C116.186 63.6604 116.029 63.7753 115.844 63.8632C115.662 63.9544 115.445 64 115.192 64C115.116 64 115.021 63.9899 114.904 63.9696C114.788 63.9493 114.706 63.9324 114.658 63.9189L114.653 63.1586C114.68 63.162 114.723 63.1654 114.781 63.1688C114.843 63.1755 114.885 63.1789 114.909 63.1789C115.125 63.1789 115.308 63.1502 115.459 63.0928C115.609 63.0387 115.736 62.9458 115.839 62.814C115.945 62.6856 116.036 62.5082 116.111 62.2818L116.506 61.2174ZM115.371 56.3011L116.814 60.5585L117.061 61.5469L116.378 61.8915L114.334 56.3011H115.371Z" fill="white"/>
<path d="M119.592 59.1039V58.9873C119.592 58.592 119.65 58.2254 119.767 57.8875C119.883 57.5462 120.051 57.2505 120.27 57.0005C120.489 56.7471 120.754 56.5511 121.066 56.4126C121.377 56.2707 121.726 56.1997 122.113 56.1997C122.503 56.1997 122.854 56.2707 123.166 56.4126C123.48 56.5511 123.747 56.7471 123.966 57.0005C124.189 57.2505 124.358 57.5462 124.475 57.8875C124.591 58.2254 124.649 58.592 124.649 58.9873V59.1039C124.649 59.4992 124.591 59.8659 124.475 60.2038C124.358 60.5416 124.189 60.8373 123.966 61.0907C123.747 61.3408 123.482 61.5367 123.171 61.6787C122.863 61.8172 122.513 61.8865 122.123 61.8865C121.733 61.8865 121.382 61.8172 121.071 61.6787C120.759 61.5367 120.492 61.3408 120.27 61.0907C120.051 60.8373 119.883 60.5416 119.767 60.2038C119.65 59.8659 119.592 59.4992 119.592 59.1039ZM120.542 58.9873V59.1039C120.542 59.3776 120.574 59.6361 120.639 59.8794C120.704 60.1193 120.802 60.3322 120.932 60.518C121.066 60.7038 121.232 60.8508 121.43 60.9589C121.629 61.0637 121.86 61.1161 122.123 61.1161C122.383 61.1161 122.611 61.0637 122.806 60.9589C123.005 60.8508 123.169 60.7038 123.299 60.518C123.429 60.3322 123.527 60.1193 123.592 59.8794C123.66 59.6361 123.694 59.3776 123.694 59.1039V58.9873C123.694 58.717 123.66 58.4619 123.592 58.222C123.527 57.9787 123.427 57.7641 123.294 57.5783C123.164 57.3891 122.999 57.2404 122.801 57.1323C122.606 57.0242 122.377 56.9701 122.113 56.9701C121.853 56.9701 121.623 57.0242 121.425 57.1323C121.23 57.2404 121.066 57.3891 120.932 57.5783C120.802 57.7641 120.704 57.9787 120.639 58.222C120.574 58.4619 120.542 58.717 120.542 58.9873Z" fill="white"/>
<path d="M129.24 60.518V56.3011H130.195V61.7851H129.286L129.24 60.518ZM129.419 59.3624L129.815 59.3523C129.815 59.7172 129.775 60.0551 129.696 60.3659C129.621 60.6734 129.498 60.9404 129.327 61.1668C129.156 61.3931 128.931 61.5705 128.654 61.6989C128.377 61.824 128.04 61.8865 127.643 61.8865C127.372 61.8865 127.124 61.8476 126.898 61.7699C126.676 61.6922 126.484 61.5722 126.323 61.41C126.162 61.2478 126.037 61.0367 125.948 60.7765C125.863 60.5163 125.82 60.2038 125.82 59.8388V56.3011H126.77V59.849C126.77 60.0956 126.797 60.3001 126.852 60.4622C126.91 60.6211 126.987 60.7478 127.083 60.8424C127.182 60.9336 127.292 60.9978 127.412 61.035C127.535 61.0721 127.662 61.0907 127.792 61.0907C128.196 61.0907 128.516 61.0147 128.752 60.8626C128.988 60.7072 129.157 60.4994 129.26 60.2392C129.366 59.9757 129.419 59.6834 129.419 59.3624Z" fill="white"/>
<path d="M132.592 57.1627V61.7851H131.642V56.3011H132.567L132.592 57.1627ZM134.328 56.2707L134.323 57.1424C134.244 57.1255 134.169 57.1154 134.097 57.112C134.028 57.1053 133.949 57.1019 133.86 57.1019C133.641 57.1019 133.448 57.1357 133.28 57.2032C133.113 57.2708 132.971 57.3654 132.854 57.4871C132.738 57.6087 132.645 57.754 132.577 57.923C132.512 58.0885 132.469 58.271 132.449 58.4703L132.182 58.6224C132.182 58.2913 132.214 57.9804 132.279 57.6898C132.348 57.3992 132.452 57.1424 132.592 56.9194C132.733 56.693 132.911 56.5173 133.126 56.3923C133.345 56.2639 133.605 56.1997 133.907 56.1997C133.975 56.1997 134.054 56.2081 134.143 56.225C134.232 56.2386 134.293 56.2538 134.328 56.2707Z" fill="white"/>
<path d="M137.809 54H138.764V60.7207L138.682 61.7851H137.809V54ZM142.517 58.9975V59.1039C142.517 59.5026 142.469 59.8726 142.373 60.2139C142.277 60.5518 142.137 60.8458 141.952 61.0958C141.767 61.3458 141.542 61.5401 141.275 61.6787C141.008 61.8172 140.701 61.8865 140.355 61.8865C140.003 61.8865 139.693 61.8273 139.426 61.7091C139.163 61.5874 138.94 61.4134 138.759 61.187C138.577 60.9606 138.432 60.6869 138.322 60.3659C138.216 60.0449 138.143 59.6834 138.101 59.2813V58.815C138.143 58.4095 138.216 58.0463 138.322 57.7253C138.432 57.4043 138.577 57.1306 138.759 56.9042C138.94 56.6744 139.163 56.5004 139.426 56.3822C139.69 56.2605 139.996 56.1997 140.345 56.1997C140.694 56.1997 141.004 56.2673 141.275 56.4024C141.545 56.5342 141.771 56.7234 141.952 56.9701C142.137 57.2168 142.277 57.5124 142.373 57.8571C142.469 58.1983 142.517 58.5785 142.517 58.9975ZM141.562 59.1039V58.9975C141.562 58.7238 141.536 58.467 141.485 58.2271C141.434 57.9838 141.352 57.7709 141.239 57.5884C141.126 57.4026 140.977 57.2573 140.792 57.1526C140.607 57.0444 140.379 56.9904 140.109 56.9904C139.869 56.9904 139.661 57.0309 139.483 57.112C139.308 57.1931 139.159 57.3029 139.036 57.4415C138.913 57.5766 138.812 57.732 138.733 57.9078C138.658 58.0801 138.601 58.2592 138.564 58.445V59.6665C138.618 59.903 138.707 60.1311 138.831 60.3507C138.957 60.567 139.125 60.7444 139.334 60.8829C139.546 61.0215 139.808 61.0907 140.119 61.0907C140.376 61.0907 140.595 61.04 140.777 60.9387C140.961 60.8339 141.11 60.6903 141.223 60.5079C141.34 60.3254 141.425 60.1142 141.48 59.8743C141.535 59.6344 141.562 59.3776 141.562 59.1039Z" fill="white"/>
<path d="M143.467 59.1039V58.9873C143.467 58.592 143.525 58.2254 143.641 57.8875C143.758 57.5462 143.926 57.2505 144.145 57.0005C144.364 56.7471 144.629 56.5511 144.941 56.4126C145.252 56.2707 145.601 56.1997 145.988 56.1997C146.378 56.1997 146.729 56.2707 147.04 56.4126C147.355 56.5511 147.622 56.7471 147.841 57.0005C148.064 57.2505 148.233 57.5462 148.35 57.8875C148.466 58.2254 148.524 58.592 148.524 58.9873V59.1039C148.524 59.4992 148.466 59.8659 148.35 60.2038C148.233 60.5416 148.064 60.8373 147.841 61.0907C147.622 61.3408 147.357 61.5367 147.046 61.6787C146.738 61.8172 146.388 61.8865 145.998 61.8865C145.608 61.8865 145.257 61.8172 144.946 61.6787C144.634 61.5367 144.367 61.3408 144.145 61.0907C143.926 60.8373 143.758 60.5416 143.641 60.2038C143.525 59.8659 143.467 59.4992 143.467 59.1039ZM144.417 58.9873V59.1039C144.417 59.3776 144.449 59.6361 144.514 59.8794C144.579 60.1193 144.677 60.3322 144.807 60.518C144.941 60.7038 145.107 60.8508 145.305 60.9589C145.504 61.0637 145.735 61.1161 145.998 61.1161C146.258 61.1161 146.486 61.0637 146.681 60.9589C146.88 60.8508 147.044 60.7038 147.174 60.518C147.304 60.3322 147.402 60.1193 147.467 59.8794C147.535 59.6361 147.569 59.3776 147.569 59.1039V58.9873C147.569 58.717 147.535 58.4619 147.467 58.222C147.402 57.9787 147.302 57.7641 147.169 57.5783C147.039 57.3891 146.874 57.2404 146.676 57.1323C146.481 57.0242 146.251 56.9701 145.988 56.9701C145.728 56.9701 145.498 57.0242 145.3 57.1323C145.105 57.2404 144.941 57.3891 144.807 57.5783C144.677 57.7641 144.579 57.9787 144.514 58.222C144.449 58.4619 144.417 58.717 144.417 58.9873Z" fill="white"/>
<path d="M152.041 56.3011V57.0208H149.038V56.3011H152.041ZM150.054 54.9681H151.004V60.4268C151.004 60.6126 151.033 60.7528 151.092 60.8474C151.15 60.9421 151.225 61.0046 151.317 61.035C151.41 61.0654 151.509 61.0806 151.615 61.0806C151.694 61.0806 151.776 61.0738 151.862 61.0603C151.951 61.0434 152.017 61.0299 152.062 61.0198L152.067 61.7851C151.992 61.8088 151.892 61.8307 151.769 61.851C151.649 61.8746 151.504 61.8865 151.333 61.8865C151.1 61.8865 150.886 61.8409 150.691 61.7496C150.496 61.6584 150.34 61.5063 150.224 61.2935C150.111 61.0772 150.054 60.7866 150.054 60.4217V54.9681Z" fill="white"/>
<path d="M156.39 60.3305C156.39 60.1953 156.359 60.0703 156.298 59.9554C156.24 59.8371 156.118 59.7307 155.933 59.6361C155.752 59.5381 155.478 59.4536 155.112 59.3827C154.804 59.3185 154.525 59.2424 154.275 59.1546C154.028 59.0667 153.818 58.9603 153.643 58.8353C153.472 58.7103 153.34 58.5633 153.248 58.3943C153.156 58.2254 153.109 58.0277 153.109 57.8013C153.109 57.5851 153.157 57.3806 153.253 57.188C153.352 56.9954 153.491 56.8248 153.669 56.6761C153.85 56.5275 154.068 56.4109 154.321 56.3264C154.574 56.2419 154.857 56.1997 155.168 56.1997C155.613 56.1997 155.993 56.2774 156.308 56.4328C156.623 56.5883 156.864 56.7961 157.032 57.0563C157.2 57.3131 157.284 57.5986 157.284 57.9128H156.334C156.334 57.7608 156.288 57.6138 156.195 57.4719C156.106 57.3266 155.974 57.2066 155.8 57.112C155.629 57.0174 155.418 56.9701 155.168 56.9701C154.905 56.9701 154.691 57.0106 154.526 57.0917C154.366 57.1695 154.247 57.2691 154.172 57.3908C154.1 57.5124 154.064 57.6408 154.064 57.776C154.064 57.8773 154.081 57.9686 154.116 58.0497C154.153 58.1274 154.218 58.2 154.311 58.2676C154.403 58.3318 154.533 58.3926 154.701 58.4501C154.869 58.5075 155.083 58.565 155.343 58.6224C155.798 58.7238 156.173 58.8454 156.467 58.9873C156.762 59.1292 156.981 59.3033 157.124 59.5094C157.268 59.7155 157.34 59.9655 157.34 60.2595C157.34 60.4994 157.289 60.719 157.186 60.9184C157.087 61.1178 156.941 61.2901 156.75 61.4354C156.561 61.5773 156.335 61.6888 156.072 61.7699C155.812 61.8476 155.519 61.8865 155.194 61.8865C154.704 61.8865 154.29 61.8003 153.951 61.628C153.613 61.4557 153.356 61.2326 153.181 60.9589C153.007 60.6853 152.919 60.3964 152.919 60.0922H153.874C153.888 60.349 153.963 60.5535 154.1 60.7055C154.237 60.8542 154.405 60.9606 154.603 61.0248C154.802 61.0857 154.999 61.1161 155.194 61.1161C155.454 61.1161 155.671 61.0823 155.846 61.0147C156.024 60.9471 156.159 60.8542 156.252 60.7359C156.344 60.6177 156.39 60.4825 156.39 60.3305Z" fill="white"/>
<path d="M162.603 60.812L164.03 56.3011H164.657L164.533 57.1982L163.08 61.7851H162.469L162.603 60.812ZM161.643 56.3011L162.86 60.8626L162.947 61.7851H162.305L160.693 56.3011H161.643ZM166.022 60.8272L167.183 56.3011H168.127L166.515 61.7851H165.879L166.022 60.8272ZM164.795 56.3011L166.192 60.7359L166.351 61.7851H165.745L164.251 57.188L164.128 56.3011H164.795Z" fill="white"/>
<path d="M170.135 56.3011V61.7851H169.18V56.3011H170.135ZM169.108 54.8464C169.108 54.6944 169.154 54.566 169.247 54.4612C169.343 54.3565 169.483 54.3041 169.668 54.3041C169.849 54.3041 169.988 54.3565 170.084 54.4612C170.183 54.566 170.233 54.6944 170.233 54.8464C170.233 54.9917 170.183 55.1167 170.084 55.2215C169.988 55.3229 169.849 55.3735 169.668 55.3735C169.483 55.3735 169.343 55.3229 169.247 55.2215C169.154 55.1167 169.108 54.9917 169.108 54.8464Z" fill="white"/>
<path d="M173.986 56.3011V57.0208H170.982V56.3011H173.986ZM171.999 54.9681H172.949V60.4268C172.949 60.6126 172.978 60.7528 173.036 60.8474C173.094 60.9421 173.169 61.0046 173.262 61.035C173.354 61.0654 173.454 61.0806 173.56 61.0806C173.638 61.0806 173.721 61.0738 173.806 61.0603C173.895 61.0434 173.962 61.0299 174.006 61.0198L174.011 61.7851C173.936 61.8088 173.837 61.8307 173.714 61.851C173.594 61.8746 173.448 61.8865 173.277 61.8865C173.044 61.8865 172.831 61.8409 172.635 61.7496C172.44 61.6584 172.285 61.5063 172.168 61.2935C172.055 61.0772 171.999 60.7866 171.999 60.4217V54.9681Z" fill="white"/>
<path d="M176.05 54V61.7851H175.1V54H176.05ZM175.824 58.8353L175.429 58.8201C175.432 58.445 175.488 58.0987 175.598 57.781C175.708 57.46 175.862 57.1813 176.06 56.9448C176.259 56.7082 176.495 56.5258 176.769 56.3974C177.046 56.2656 177.352 56.1997 177.688 56.1997C177.962 56.1997 178.208 56.2369 178.427 56.3112C178.646 56.3822 178.833 56.497 178.987 56.6559C179.144 56.8147 179.264 57.0208 179.346 57.2742C179.428 57.5242 179.469 57.83 179.469 58.1916V61.7851H178.514V58.1814C178.514 57.8942 178.472 57.6645 178.386 57.4921C178.3 57.3164 178.175 57.1897 178.011 57.112C177.847 57.0309 177.645 56.9904 177.405 56.9904C177.169 56.9904 176.953 57.0394 176.758 57.1374C176.567 57.2353 176.401 57.3705 176.26 57.5428C176.123 57.7152 176.016 57.9128 175.937 58.1358C175.862 58.3555 175.824 58.5886 175.824 58.8353Z" fill="white"/>
<path d="M185.805 61.8865C185.418 61.8865 185.068 61.8223 184.753 61.6939C184.441 61.5621 184.172 61.3779 183.947 61.1414C183.724 60.9049 183.553 60.6244 183.433 60.3001C183.313 59.9757 183.253 59.6209 183.253 59.2357V59.0228C183.253 58.5768 183.32 58.1798 183.454 57.8317C183.587 57.4803 183.769 57.183 183.998 56.9397C184.227 56.6964 184.487 56.5122 184.778 56.3872C185.069 56.2622 185.37 56.1997 185.682 56.1997C186.079 56.1997 186.421 56.2673 186.709 56.4024C187 56.5376 187.238 56.7268 187.423 56.9701C187.607 57.21 187.744 57.4938 187.833 57.8216C187.922 58.146 187.967 58.5008 187.967 58.886V59.3066H183.818V58.5413H187.017V58.4703C187.003 58.2271 186.952 57.9905 186.863 57.7608C186.777 57.531 186.64 57.3418 186.452 57.1931C186.264 57.0444 186.007 56.9701 185.682 56.9701C185.466 56.9701 185.268 57.0157 185.086 57.1069C184.905 57.1948 184.749 57.3266 184.619 57.5023C184.489 57.678 184.388 57.8925 184.316 58.146C184.244 58.3994 184.208 58.6917 184.208 59.0228V59.2357C184.208 59.4959 184.244 59.7408 184.316 59.9706C184.392 60.197 184.499 60.3964 184.64 60.5687C184.783 60.741 184.956 60.8762 185.158 60.9742C185.364 61.0721 185.596 61.1211 185.857 61.1211C186.192 61.1211 186.476 61.0536 186.709 60.9184C186.942 60.7832 187.145 60.6025 187.32 60.3761L187.895 60.8272C187.775 61.0063 187.623 61.1769 187.438 61.3391C187.253 61.5013 187.025 61.633 186.755 61.7344C186.488 61.8358 186.171 61.8865 185.805 61.8865Z" fill="white"/>
<path d="M192.352 60.8474V58.0243C192.352 57.8081 192.307 57.6205 192.218 57.4617C192.132 57.2995 192.002 57.1745 191.828 57.0867C191.653 56.9988 191.438 56.9549 191.181 56.9549C190.941 56.9549 190.731 56.9954 190.549 57.0765C190.371 57.1576 190.231 57.2641 190.128 57.3958C190.029 57.5276 189.979 57.6695 189.979 57.8216H189.03C189.03 57.6256 189.081 57.4313 189.184 57.2387C189.286 57.0461 189.434 56.8721 189.625 56.7167C189.82 56.5579 190.053 56.4328 190.323 56.3416C190.597 56.247 190.902 56.1997 191.237 56.1997C191.641 56.1997 191.997 56.2673 192.305 56.4024C192.617 56.5376 192.86 56.742 193.034 57.0157C193.212 57.286 193.301 57.6256 193.301 58.0345V60.589C193.301 60.7714 193.317 60.9657 193.348 61.1718C193.382 61.3779 193.431 61.5553 193.497 61.704V61.7851H192.506C192.458 61.677 192.42 61.5334 192.393 61.3543C192.365 61.1718 192.352 61.0029 192.352 60.8474ZM192.516 58.4602L192.526 59.1191H191.566C191.296 59.1191 191.054 59.1411 190.842 59.185C190.63 59.2255 190.452 59.2881 190.308 59.3725C190.164 59.457 190.055 59.5634 189.979 59.6918C189.904 59.8169 189.867 59.9638 189.867 60.1328C189.867 60.3051 189.906 60.4622 189.985 60.6042C190.063 60.7461 190.181 60.8593 190.339 60.9437C190.5 61.0248 190.697 61.0654 190.929 61.0654C191.22 61.0654 191.477 61.0046 191.699 60.8829C191.922 60.7613 192.098 60.6126 192.228 60.4369C192.362 60.2612 192.434 60.0906 192.444 59.925L192.85 60.3761C192.826 60.518 192.761 60.6751 192.654 60.8474C192.548 61.0198 192.406 61.1853 192.228 61.3441C192.054 61.4996 191.845 61.6297 191.602 61.7344C191.362 61.8358 191.092 61.8865 190.791 61.8865C190.414 61.8865 190.084 61.8138 189.8 61.6685C189.519 61.5232 189.3 61.3289 189.143 61.0857C188.989 60.839 188.912 60.5636 188.912 60.2595C188.912 59.9655 188.97 59.707 189.086 59.484C189.202 59.2576 189.37 59.0701 189.589 58.9214C189.808 58.7694 190.072 58.6545 190.38 58.5768C190.688 58.4991 191.032 58.4602 191.412 58.4602H192.516Z" fill="white"/>
<path d="M198.03 60.3305C198.03 60.1953 197.999 60.0703 197.938 59.9554C197.88 59.8371 197.758 59.7307 197.573 59.6361C197.392 59.5381 197.118 59.4536 196.752 59.3827C196.444 59.3185 196.165 59.2424 195.915 59.1546C195.668 59.0667 195.458 58.9603 195.283 58.8353C195.112 58.7103 194.98 58.5633 194.888 58.3943C194.796 58.2254 194.749 58.0277 194.749 57.8013C194.749 57.5851 194.797 57.3806 194.893 57.188C194.992 56.9954 195.131 56.8248 195.309 56.6761C195.49 56.5275 195.708 56.4109 195.961 56.3264C196.214 56.2419 196.497 56.1997 196.808 56.1997C197.253 56.1997 197.633 56.2774 197.948 56.4328C198.263 56.5883 198.504 56.7961 198.672 57.0563C198.84 57.3131 198.924 57.5986 198.924 57.9128H197.974C197.974 57.7608 197.928 57.6138 197.835 57.4719C197.746 57.3266 197.614 57.2066 197.44 57.112C197.269 57.0174 197.058 56.9701 196.808 56.9701C196.545 56.9701 196.331 57.0106 196.166 57.0917C196.006 57.1695 195.887 57.2691 195.812 57.3908C195.74 57.5124 195.704 57.6408 195.704 57.776C195.704 57.8773 195.721 57.9686 195.756 58.0497C195.793 58.1274 195.858 58.2 195.951 58.2676C196.043 58.3318 196.173 58.3926 196.341 58.4501C196.509 58.5075 196.723 58.565 196.983 58.6224C197.438 58.7238 197.813 58.8454 198.107 58.9873C198.402 59.1292 198.621 59.3033 198.764 59.5094C198.908 59.7155 198.98 59.9655 198.98 60.2595C198.98 60.4994 198.929 60.719 198.826 60.9184C198.727 61.1178 198.581 61.2901 198.39 61.4354C198.201 61.5773 197.975 61.6888 197.712 61.7699C197.452 61.8476 197.159 61.8865 196.834 61.8865C196.344 61.8865 195.93 61.8003 195.591 61.628C195.252 61.4557 194.996 61.2326 194.821 60.9589C194.647 60.6853 194.559 60.3964 194.559 60.0922H195.514C195.528 60.349 195.603 60.5535 195.74 60.7055C195.877 60.8542 196.045 60.9606 196.243 61.0248C196.442 61.0857 196.639 61.1161 196.834 61.1161C197.094 61.1161 197.311 61.0823 197.486 61.0147C197.664 60.9471 197.799 60.8542 197.892 60.7359C197.984 60.6177 198.03 60.4825 198.03 60.3305Z" fill="white"/>
<path d="M202.533 61.8865C202.146 61.8865 201.795 61.8223 201.481 61.6939C201.169 61.5621 200.9 61.3779 200.674 61.1414C200.452 60.9049 200.281 60.6244 200.161 60.3001C200.041 59.9757 199.981 59.6209 199.981 59.2357V59.0228C199.981 58.5768 200.048 58.1798 200.182 57.8317C200.315 57.4803 200.496 57.183 200.726 56.9397C200.955 56.6964 201.215 56.5122 201.506 56.3872C201.797 56.2622 202.098 56.1997 202.41 56.1997C202.807 56.1997 203.149 56.2673 203.437 56.4024C203.728 56.5376 203.966 56.7268 204.15 56.9701C204.335 57.21 204.472 57.4938 204.561 57.8216C204.65 58.146 204.695 58.5008 204.695 58.886V59.3066H200.546V58.5413H203.745V58.4703C203.731 58.2271 203.68 57.9905 203.591 57.7608C203.505 57.531 203.368 57.3418 203.18 57.1931C202.992 57.0444 202.735 56.9701 202.41 56.9701C202.194 56.9701 201.996 57.0157 201.814 57.1069C201.633 57.1948 201.477 57.3266 201.347 57.5023C201.217 57.678 201.116 57.8925 201.044 58.146C200.972 58.3994 200.936 58.6917 200.936 59.0228V59.2357C200.936 59.4959 200.972 59.7408 201.044 59.9706C201.119 60.197 201.227 60.3964 201.368 60.5687C201.511 60.741 201.684 60.8762 201.886 60.9742C202.092 61.0721 202.324 61.1211 202.584 61.1211C202.92 61.1211 203.204 61.0536 203.437 60.9184C203.669 60.7832 203.873 60.6025 204.048 60.3761L204.623 60.8272C204.503 61.0063 204.351 61.1769 204.166 61.3391C203.981 61.5013 203.753 61.633 203.483 61.7344C203.216 61.8358 202.899 61.8865 202.533 61.8865Z" fill="white"/>
<path d="M205.819 61.2884C205.819 61.1296 205.869 60.9961 205.968 60.888C206.071 60.7765 206.218 60.7207 206.41 60.7207C206.601 60.7207 206.747 60.7765 206.846 60.888C206.949 60.9961 207 61.1296 207 61.2884C207 61.4438 206.949 61.5756 206.846 61.6837C206.747 61.7919 206.601 61.8459 206.41 61.8459C206.218 61.8459 206.071 61.7919 205.968 61.6837C205.869 61.5756 205.819 61.4438 205.819 61.2884Z" fill="white"/>
<defs>
<filter id="filter0_i_140_210" x="9.02075" y="23.2831" width="45.6119" height="4.39221" filterUnits="userSpaceOnUse" color-interpolation-filters="sRGB">
<feFlood flood-opacity="0" result="BackgroundImageFix"/>
<feBlend mode="normal" in="SourceGraphic" in2="BackgroundImageFix" result="shape"/>
<feColorMatrix in="SourceAlpha" type="matrix" values="0 0 0 0 0 0 0 0 0 0 0 0 0 0 0 0 0 0 127 0" result="hardAlpha"/>
<feOffset dy="6"/>
<feComposite in2="hardAlpha" operator="arithmetic" k2="-1" k3="1"/>
<feColorMatrix type="matrix" values="0 0 0 0 0 0 0 0 0 0 0 0 0 0 0 0 0 0 0.25 0"/>
<feBlend mode="normal" in2="shape" result="effect1_innerShadow_140_210"/>
</filter>
<linearGradient id="paint0_linear_140_210" x1="6.08238" y1="29.4708" x2="51.8633" y2="56.8379" gradientUnits="userSpaceOnUse">
<stop stop-color="#844A36"/>
<stop offset="1" stop-color="#78412E"/>
</linearGradient>
<linearGradient id="paint1_linear_140_210" x1="30.1036" y1="30.0405" x2="30.1036" y2="71.1099" gradientUnits="userSpaceOnUse">
<stop stop-color="#C07352"/>
<stop offset="1" stop-color="#A55E3F"/>
</linearGradient>
<linearGradient id="paint2_linear_140_210" x1="59.2518" y1="26.324" x2="59.2518" y2="58.2523" gradientUnits="userSpaceOnUse">
<stop stop-color="#844A36"/>
<stop offset="1" stop-color="#5F3424"/>
</linearGradient>
<linearGradient id="paint3_linear_140_210" x1="31.7557" y1="25.8173" x2="31.7557" y2="54.0291" gradientUnits="userSpaceOnUse">
<stop stop-color="#CB754F"/>
<stop offset="1" stop-color="#8A4C30"/>
</linearGradient>
</defs>
</svg>
