<svg width="204" height="75" viewBox="0 0 204 75" fill="none" xmlns="http://www.w3.org/2000/svg">
<path d="M63.8631 55.9967C63.8631 56.7045 59.6751 57.2991 54.5273 57.2991C53.7202 57.2991 52.9349 57.2708 52.1933 57.2708C48.1579 57.1292 45.1914 56.6196 45.1914 56.025C45.1914 51.1834 56.4032 49.2865 61.8127 52.8539C62.8161 53.5051 63.8631 54.5244 63.8631 55.9967Z" fill="#784440"/>
<path d="M61.8127 52.8254C59.3261 52.7405 55.4652 53.3351 52.1933 57.2706C48.158 57.129 45.1914 56.6194 45.1914 56.0248C45.1696 51.1832 56.3814 49.2863 61.8127 52.8254Z" fill="#814742"/>
<path d="M37.4993 33.0104C35.5765 27.168 43.4157 26.9092 48.5924 26.9092C42.4542 26.9092 40.9197 28.9737 40.8273 29.9598C41.1046 37.6325 57.4669 43.364 66.9885 44.5657L69.9467 46.8768C49.1471 45.6751 39.6563 37.0471 37.4993 33.0104Z" fill="url(#paint0_linear_10723_30541)"/>
<path d="M46.3734 52.3305C37.8686 49.0766 36.5128 37.4781 37.1291 31.4385C38.0905 35.7278 44.3088 39.7583 47.2978 41.2374C55.5391 45.4528 65.8615 46.7223 69.9463 46.8764C67.4503 52.9776 55.895 55.9736 46.3734 52.3305Z" fill="url(#paint1_linear_10723_30541)"/>
<path d="M67.9127 29.4048C68.2085 40.2021 67.4505 44.0107 66.9883 44.5654L69.9464 46.8765C71.8693 43.7704 71.9802 33.9345 71.7953 29.4048H67.9127Z" fill="url(#paint2_linear_10723_30541)"/>
<path d="M47.021 38.0019C41.1046 34.748 40.0877 30.9763 41.0122 29.1274C51.8095 31.8637 63.4141 30.5449 67.913 29.4048C68.3567 39.6844 67.5432 43.7334 66.9886 44.5654C59.2973 44.0477 50.4721 39.9432 47.021 38.0019Z" fill="url(#paint3_linear_10723_30541)"/>
<path d="M71.8876 29.4049C70.4085 27.0384 55.6793 26.7549 48.4996 26.909C43.9884 26.909 41.6588 28.1107 41.0117 29.1276C42.4168 30.3109 49.3932 30.7916 52.7519 30.884C58.5204 31.1798 65.2625 30.0212 67.9126 29.4049H71.8876Z" fill="#6C3C2B"/>
<g filter="url(#filter0_i_10723_30541)">
<ellipse cx="54.4163" cy="28.9425" rx="12.4798" ry="1.20176" fill="#303030"/>
</g>
<path d="M62.3951 17.1104C61.9511 20.2213 61.9508 23.3793 62.3939 26.4903L62.6993 28.634C62.6993 29.17 58.9576 29.639 54.3642 29.639C52.9953 29.639 51.7177 29.6055 50.5921 29.5385C47.8848 29.371 46.0292 28.567 46.09 28.5001C46.7155 24.078 46.7134 19.5898 46.0836 15.1684L46.0596 15H62.6993L62.3951 17.1104Z" fill="#CA7B57"/>
<path d="M86.3566 39.6426H91.6005C94.4433 39.6426 96.1144 38.1636 96.1144 35.9162C96.1144 34.61 95.519 33.4767 93.7902 32.8044C93.5789 32.7276 93.4829 32.4203 93.7518 32.3242C94.9619 31.8632 95.6726 30.9604 95.6726 29.5967C95.6726 27.4069 93.6558 26.1968 91.1971 26.1968H86.3566C85.6267 26.1968 85.2041 26.6578 85.2041 27.2148C85.2041 27.4261 85.2617 27.6374 85.3962 27.8487C85.7227 28.3865 85.9148 29.0012 85.9148 29.9424V35.897C85.9148 36.8382 85.7227 37.4529 85.3962 37.9907C85.2617 38.202 85.2041 38.4133 85.2041 38.6246C85.2041 39.1816 85.6267 39.6426 86.3566 39.6426ZM89.6412 31.4599C89.3339 31.4599 89.1418 31.2678 89.1418 30.9604V29.0012C89.1418 28.6939 89.3147 28.5018 89.6412 28.5018H90.7553C91.6389 28.5018 92.2728 29.0204 92.2728 29.9808C92.2728 30.9412 91.6389 31.4599 90.7553 31.4599H89.6412ZM89.6412 37.3376C89.3339 37.3376 89.1418 37.1647 89.1418 36.8382V34.2643C89.1418 33.9569 89.3339 33.7649 89.6412 33.7649H90.9474C92.0231 33.7649 92.7338 34.4564 92.7338 35.5512C92.7338 36.6461 92.0231 37.3376 90.9474 37.3376H89.6412Z" fill="#181818"/>
<path d="M102.053 39.9115C104.761 39.9115 106.99 37.9331 106.99 34.7253C106.99 31.5175 104.819 29.5774 102.053 29.5774C99.3446 29.5774 97.1164 31.5175 97.1164 34.7253C97.1164 37.9331 99.287 39.9115 102.053 39.9115ZM102.207 37.5873C100.92 37.5873 100.209 36.0891 100.209 34.1874C100.209 32.67 100.9 31.8824 101.88 31.8824C103.167 31.8824 103.897 33.3423 103.897 35.2631C103.897 36.7998 103.186 37.5873 102.207 37.5873Z" fill="#181818"/>
<path d="M111.271 39.9115C112.807 39.9115 113.998 38.9703 113.998 37.9139C113.998 37.4337 113.768 37.1839 113.422 37.1839C113.019 37.1839 112.75 37.4144 112.269 37.4144C111.885 37.4144 111.636 37.1455 111.636 36.6845V32.2474C111.636 31.9977 111.77 31.8632 112.02 31.8632H113.134C113.556 31.8632 113.806 31.6135 113.806 31.1909V30.5187C113.806 30.0961 113.556 29.8464 113.134 29.8464H112.058C111.789 29.8464 111.636 29.6927 111.636 29.4238V28.7515C111.636 28.156 111.117 27.8103 110.56 28.156L107.794 29.8464C107.429 30.0769 107.275 30.2689 107.275 30.6915V31.1909C107.275 31.6135 107.525 31.8632 107.948 31.8632H108.178C108.428 31.8632 108.562 31.9977 108.562 32.2474V36.9534C108.562 38.9319 109.695 39.9115 111.271 39.9115Z" fill="#181818"/>
<path d="M115.844 39.6426H118.188C118.918 39.6426 119.34 39.1816 119.34 38.6246C119.34 38.4133 119.283 38.202 119.148 37.9907C118.802 37.4529 118.63 36.8382 118.63 35.897V35.2631C118.63 34.9174 118.822 34.7253 119.167 34.7253H120.358C123.393 34.7253 124.968 32.9965 124.968 30.461C124.968 27.9255 123.393 26.1968 120.358 26.1968H115.844C115.114 26.1968 114.692 26.6578 114.692 27.2148C114.692 27.4261 114.75 27.6374 114.884 27.8487C115.211 28.3865 115.403 29.0012 115.403 29.9424V35.897C115.403 36.8382 115.211 37.4529 114.884 37.9907C114.75 38.202 114.692 38.4133 114.692 38.6246C114.692 39.1816 115.114 39.6426 115.844 39.6426ZM119.167 32.4203C118.822 32.4203 118.63 32.2282 118.63 31.8824V29.0396C118.63 28.6939 118.822 28.5018 119.167 28.5018H120.032C121.184 28.5018 121.857 29.1741 121.857 30.461C121.857 31.748 121.184 32.4203 120.032 32.4203H119.167Z" fill="#181818"/>
<path d="M130.096 39.9115C132.805 39.9115 135.033 37.9331 135.033 34.7253C135.033 31.5175 132.862 29.5774 130.096 29.5774C127.388 29.5774 125.16 31.5175 125.16 34.7253C125.16 37.9331 127.33 39.9115 130.096 39.9115ZM130.25 37.5873C128.963 37.5873 128.252 36.0891 128.252 34.1874C128.252 32.67 128.944 31.8824 129.924 31.8824C131.21 31.8824 131.94 33.3423 131.94 35.2631C131.94 36.7998 131.23 37.5873 130.25 37.5873Z" fill="#181818"/>
<path d="M139.314 39.9115C140.851 39.9115 142.042 38.9703 142.042 37.9139C142.042 37.4337 141.811 37.1839 141.465 37.1839C141.062 37.1839 140.793 37.4144 140.313 37.4144C139.929 37.4144 139.679 37.1455 139.679 36.6845V32.2474C139.679 31.9977 139.813 31.8632 140.063 31.8632H141.177C141.6 31.8632 141.85 31.6135 141.85 31.1909V30.5187C141.85 30.0961 141.6 29.8464 141.177 29.8464H140.102C139.833 29.8464 139.679 29.6927 139.679 29.4238V28.7515C139.679 28.156 139.16 27.8103 138.603 28.156L135.837 29.8464C135.472 30.0769 135.319 30.2689 135.319 30.6915V31.1909C135.319 31.6135 135.568 31.8632 135.991 31.8632H136.221C136.471 31.8632 136.606 31.9977 136.606 32.2474V36.9534C136.606 38.9319 137.739 39.9115 139.314 39.9115Z" fill="#181818"/>
<path d="M146.423 39.9115C147.96 39.9115 149.151 38.9703 149.151 37.9139C149.151 37.4337 148.92 37.1839 148.575 37.1839C148.171 37.1839 147.902 37.4144 147.422 37.4144C147.038 37.4144 146.788 37.1455 146.788 36.6845V32.2474C146.788 31.9977 146.923 31.8632 147.172 31.8632H148.287C148.709 31.8632 148.959 31.6135 148.959 31.1909V30.5187C148.959 30.0961 148.709 29.8464 148.287 29.8464H147.211C146.942 29.8464 146.788 29.6927 146.788 29.4238V28.7515C146.788 28.156 146.27 27.8103 145.713 28.156L142.947 29.8464C142.582 30.0769 142.428 30.2689 142.428 30.6915V31.1909C142.428 31.6135 142.678 31.8632 143.1 31.8632H143.331C143.581 31.8632 143.715 31.9977 143.715 32.2474V36.9534C143.715 38.9319 144.848 39.9115 146.423 39.9115Z" fill="#181818"/>
<path d="M154.276 39.9115C156.331 39.9115 157.579 38.8935 158.309 37.4913C158.732 36.6653 157.868 35.9162 156.984 36.6077C156.369 37.0879 155.659 37.4337 154.775 37.4337C153.661 37.4337 152.777 36.5885 152.566 35.5897C152.528 35.3784 152.624 35.2631 152.816 35.2631H157.848C158.463 35.2631 158.809 34.975 158.809 34.149C158.809 31.7096 157.311 29.5774 154.352 29.5774C151.318 29.5774 149.339 31.844 149.339 34.7253C149.339 37.9331 151.318 39.9115 154.276 39.9115ZM152.873 33.4191C152.662 33.4191 152.566 33.2847 152.643 33.0926C152.95 32.305 153.546 31.8632 154.295 31.8632C155.121 31.8632 155.697 32.305 155.774 32.9965C155.812 33.2654 155.678 33.4191 155.428 33.4191H152.873Z" fill="#181818"/>
<path d="M160.482 39.6426H162.441C163.133 39.6426 163.44 39.2392 163.248 38.5669C163.094 38.0291 162.998 37.5873 162.998 36.7614V34.0914C162.998 33.0542 163.286 32.3434 163.786 32.3434C164.362 32.3434 164.42 33.5536 165.476 33.5536C167.435 33.5536 167.589 29.5774 165.399 29.5774C164.535 29.5774 164.016 30 163.382 30.7876C163.152 31.0757 162.998 30.922 162.998 30.6915V30.4418C162.998 29.7887 162.633 29.443 161.769 29.6159L160.271 29.904C159.752 30 159.483 30.5571 159.675 31.0181C159.791 31.287 159.925 31.6904 159.925 32.209V36.7614C159.925 37.5873 159.829 38.0291 159.675 38.5669C159.483 39.2392 159.791 39.6426 160.482 39.6426Z" fill="#181818"/>
<path d="M85.7999 44.9102V49.0069H85.2568V44.9102H85.7999ZM87.5163 46.7531V47.1977H85.6817V46.7531H87.5163ZM87.7948 44.9102V45.3547H85.6817V44.9102H87.7948Z" fill="black"/>
<path d="M88.1634 47.5185V47.4538C88.1634 47.2343 88.1953 47.0308 88.2591 46.8432C88.3229 46.6537 88.4148 46.4896 88.5348 46.3508C88.6549 46.2101 88.8002 46.1013 88.9709 46.0244C89.1416 45.9456 89.333 45.9062 89.5449 45.9062C89.7588 45.9062 89.9511 45.9456 90.1218 46.0244C90.2943 46.1013 90.4406 46.2101 90.5607 46.3508C90.6826 46.4896 90.7755 46.6537 90.8393 46.8432C90.903 47.0308 90.9349 47.2343 90.9349 47.4538V47.5185C90.9349 47.7379 90.903 47.9415 90.8393 48.1291C90.7755 48.3166 90.6826 48.4808 90.5607 48.6215C90.4406 48.7603 90.2953 48.8691 90.1246 48.9478C89.9558 49.0248 89.7644 49.0632 89.5506 49.0632C89.3367 49.0632 89.1445 49.0248 88.9738 48.9478C88.8031 48.8691 88.6567 48.7603 88.5348 48.6215C88.4148 48.4808 88.3229 48.3166 88.2591 48.1291C88.1953 47.9415 88.1634 47.7379 88.1634 47.5185ZM88.6839 47.4538V47.5185C88.6839 47.6704 88.7018 47.8139 88.7374 47.949C88.773 48.0822 88.8265 48.2003 88.8978 48.3035C88.9709 48.4067 89.0619 48.4883 89.1707 48.5483C89.2795 48.6064 89.4061 48.6355 89.5506 48.6355C89.6931 48.6355 89.8179 48.6064 89.9248 48.5483C90.0336 48.4883 90.1236 48.4067 90.1949 48.3035C90.2662 48.2003 90.3197 48.0822 90.3553 47.949C90.3928 47.8139 90.4116 47.6704 90.4116 47.5185V47.4538C90.4116 47.3037 90.3928 47.1621 90.3553 47.0289C90.3197 46.8938 90.2653 46.7747 90.1921 46.6715C90.1208 46.5665 90.0308 46.484 89.922 46.4239C89.8151 46.3639 89.6894 46.3339 89.5449 46.3339C89.4024 46.3339 89.2767 46.3639 89.1679 46.4239C89.061 46.484 88.9709 46.5665 88.8978 46.6715C88.8265 46.7747 88.773 46.8938 88.7374 47.0289C88.7018 47.1621 88.6839 47.3037 88.6839 47.4538Z" fill="black"/>
<path d="M92.1082 46.4408V49.0069H91.5877V45.9625H92.0942L92.1082 46.4408ZM93.0593 45.9456L93.0565 46.4296C93.0133 46.4202 92.9721 46.4146 92.9327 46.4127C92.8952 46.4089 92.852 46.4071 92.8032 46.4071C92.6832 46.4071 92.5772 46.4258 92.4853 46.4633C92.3934 46.5008 92.3155 46.5534 92.2517 46.6209C92.188 46.6884 92.1373 46.7691 92.0998 46.8629C92.0642 46.9548 92.0407 47.0561 92.0295 47.1668L91.8832 47.2512C91.8832 47.0673 91.901 46.8948 91.9366 46.7334C91.9741 46.5721 92.0313 46.4296 92.1082 46.3058C92.1852 46.1801 92.2827 46.0825 92.4009 46.0131C92.5209 45.9419 92.6635 45.9062 92.8286 45.9062C92.8661 45.9062 92.9092 45.9109 92.958 45.9203C93.0068 45.9278 93.0405 45.9362 93.0593 45.9456Z" fill="black"/>
<path d="M94.0582 46.5674V49.0069H93.5348V45.9625H94.03L94.0582 46.5674ZM93.9512 47.3693L93.7093 47.3609C93.7111 47.1527 93.7383 46.9604 93.7909 46.7841C93.8434 46.6059 93.9212 46.4511 94.0244 46.3198C94.1276 46.1885 94.2561 46.0872 94.4099 46.0159C94.5637 45.9428 94.7419 45.9062 94.9445 45.9062C95.087 45.9062 95.2183 45.9268 95.3384 45.9681C95.4585 46.0075 95.5626 46.0703 95.6507 46.1566C95.7389 46.2429 95.8074 46.3536 95.8561 46.4887C95.9049 46.6237 95.9293 46.7869 95.9293 46.9782V49.0069H95.4087V47.0036C95.4087 46.8441 95.3815 46.7166 95.3271 46.6209C95.2746 46.5252 95.1996 46.4558 95.102 46.4127C95.0045 46.3677 94.8901 46.3452 94.7588 46.3452C94.605 46.3452 94.4765 46.3724 94.3733 46.4268C94.2701 46.4812 94.1876 46.5562 94.1257 46.6518C94.0638 46.7475 94.0188 46.8573 93.9906 46.9811C93.9644 47.103 93.9512 47.2324 93.9512 47.3693ZM95.9237 47.0823L95.5748 47.1893C95.5766 47.0223 95.6038 46.8619 95.6564 46.7081C95.7107 46.5543 95.7886 46.4174 95.8899 46.2973C95.9931 46.1773 96.1197 46.0825 96.2697 46.0131C96.4198 45.9419 96.5914 45.9062 96.7847 45.9062C96.9478 45.9062 97.0923 45.9278 97.218 45.9709C97.3455 46.0141 97.4524 46.0807 97.5387 46.1707C97.6269 46.2589 97.6935 46.3724 97.7385 46.5112C97.7835 46.65 97.806 46.815 97.806 47.0064V49.0069H97.2827V47.0008C97.2827 46.8301 97.2555 46.6978 97.2011 46.604C97.1486 46.5084 97.0735 46.4418 96.976 46.4042C96.8803 46.3649 96.7659 46.3452 96.6327 46.3452C96.5183 46.3452 96.417 46.3649 96.3288 46.4042C96.2407 46.4436 96.1666 46.498 96.1065 46.5674C96.0465 46.635 96.0006 46.7128 95.9687 46.801C95.9387 46.8891 95.9237 46.9829 95.9237 47.0823Z" fill="black"/>
<path d="M100.879 48.6918L101.726 45.9625H102.283L101.062 49.4768C101.033 49.5519 100.996 49.6325 100.949 49.7188C100.904 49.807 100.846 49.8904 100.775 49.9692C100.703 50.048 100.617 50.1118 100.516 50.1606C100.416 50.2112 100.297 50.2365 100.158 50.2365C100.117 50.2365 100.065 50.2309 100.001 50.2196C99.937 50.2084 99.8919 50.199 99.8657 50.1915L99.8629 49.7695C99.8779 49.7713 99.9013 49.7732 99.9332 49.7751C99.967 49.7788 99.9904 49.7807 100.004 49.7807C100.122 49.7807 100.222 49.7648 100.305 49.7329C100.387 49.7029 100.457 49.6513 100.513 49.5781C100.571 49.5068 100.621 49.4084 100.662 49.2827L100.879 48.6918ZM100.257 45.9625L101.047 48.326L101.182 48.8747L100.808 49.066L99.6884 45.9625H100.257Z" fill="black"/>
<path d="M102.57 47.5185V47.4538C102.57 47.2343 102.602 47.0308 102.665 46.8432C102.729 46.6537 102.821 46.4896 102.941 46.3508C103.061 46.2101 103.207 46.1013 103.377 46.0244C103.548 45.9456 103.739 45.9062 103.951 45.9062C104.165 45.9062 104.357 45.9456 104.528 46.0244C104.701 46.1013 104.847 46.2101 104.967 46.3508C105.089 46.4896 105.182 46.6537 105.246 46.8432C105.309 47.0308 105.341 47.2343 105.341 47.4538V47.5185C105.341 47.7379 105.309 47.9415 105.246 48.1291C105.182 48.3166 105.089 48.4808 104.967 48.6215C104.847 48.7603 104.702 48.8691 104.531 48.9478C104.362 49.0248 104.171 49.0632 103.957 49.0632C103.743 49.0632 103.551 49.0248 103.38 48.9478C103.209 48.8691 103.063 48.7603 102.941 48.6215C102.821 48.4808 102.729 48.3166 102.665 48.1291C102.602 47.9415 102.57 47.7379 102.57 47.5185ZM103.09 47.4538V47.5185C103.09 47.6704 103.108 47.8139 103.144 47.949C103.179 48.0822 103.233 48.2003 103.304 48.3035C103.377 48.4067 103.468 48.4883 103.577 48.5483C103.686 48.6064 103.812 48.6355 103.957 48.6355C104.099 48.6355 104.224 48.6064 104.331 48.5483C104.44 48.4883 104.53 48.4067 104.601 48.3035C104.672 48.2003 104.726 48.0822 104.762 47.949C104.799 47.8139 104.818 47.6704 104.818 47.5185V47.4538C104.818 47.3037 104.799 47.1621 104.762 47.0289C104.726 46.8938 104.672 46.7747 104.598 46.6715C104.527 46.5665 104.437 46.484 104.328 46.4239C104.221 46.3639 104.096 46.3339 103.951 46.3339C103.809 46.3339 103.683 46.3639 103.574 46.4239C103.467 46.484 103.377 46.5665 103.304 46.6715C103.233 46.7747 103.179 46.8938 103.144 47.0289C103.108 47.1621 103.09 47.3037 103.09 47.4538Z" fill="black"/>
<path d="M107.857 48.3035V45.9625H108.38V49.0069H107.882L107.857 48.3035ZM107.955 47.662L108.172 47.6563C108.172 47.8589 108.15 48.0465 108.107 48.2191C108.066 48.3898 107.998 48.538 107.904 48.6637C107.811 48.7893 107.688 48.8878 107.536 48.9591C107.384 49.0285 107.199 49.0632 106.982 49.0632C106.833 49.0632 106.697 49.0416 106.574 48.9985C106.452 48.9553 106.347 48.8888 106.258 48.7987C106.17 48.7087 106.102 48.5914 106.053 48.447C106.006 48.3026 105.983 48.1291 105.983 47.9265V45.9625H106.503V47.9321C106.503 48.069 106.518 48.1825 106.548 48.2726C106.58 48.3607 106.622 48.4311 106.675 48.4836C106.729 48.5342 106.789 48.5699 106.855 48.5905C106.922 48.6111 106.992 48.6215 107.063 48.6215C107.285 48.6215 107.46 48.5792 107.589 48.4948C107.719 48.4086 107.812 48.2932 107.868 48.1487C107.926 48.0024 107.955 47.8402 107.955 47.662Z" fill="black"/>
<path d="M109.694 46.4408V49.0069H109.173V45.9625H109.68L109.694 46.4408ZM110.645 45.9456L110.642 46.4296C110.599 46.4202 110.558 46.4146 110.518 46.4127C110.481 46.4089 110.438 46.4071 110.389 46.4071C110.269 46.4071 110.163 46.4258 110.071 46.4633C109.979 46.5008 109.901 46.5534 109.838 46.6209C109.774 46.6884 109.723 46.7691 109.686 46.8629C109.65 46.9548 109.626 47.0561 109.615 47.1668L109.469 47.2512C109.469 47.0673 109.487 46.8948 109.522 46.7334C109.56 46.5721 109.617 46.4296 109.694 46.3058C109.771 46.1801 109.868 46.0825 109.987 46.0131C110.107 45.9419 110.249 45.9062 110.414 45.9062C110.452 45.9062 110.495 45.9109 110.544 45.9203C110.593 45.9278 110.626 45.9362 110.645 45.9456Z" fill="black"/>
<path d="M112.553 44.6851H113.076V48.4161L113.031 49.0069H112.553V44.6851ZM115.133 47.4594V47.5185C115.133 47.7398 115.107 47.9452 115.054 48.1347C115.002 48.3223 114.925 48.4855 114.823 48.6243C114.722 48.7631 114.598 48.8709 114.452 48.9478C114.306 49.0248 114.138 49.0632 113.948 49.0632C113.755 49.0632 113.585 49.0304 113.439 48.9647C113.295 48.8972 113.173 48.8006 113.073 48.6749C112.974 48.5492 112.894 48.3973 112.834 48.2191C112.776 48.0409 112.736 47.8402 112.713 47.617V47.3581C112.736 47.133 112.776 46.9313 112.834 46.7531C112.894 46.5749 112.974 46.423 113.073 46.2973C113.173 46.1698 113.295 46.0732 113.439 46.0075C113.584 45.94 113.751 45.9062 113.943 45.9062C114.134 45.9062 114.304 45.9437 114.452 46.0188C114.6 46.0919 114.724 46.197 114.823 46.3339C114.925 46.4708 115.002 46.635 115.054 46.8263C115.107 47.0158 115.133 47.2268 115.133 47.4594ZM114.61 47.5185V47.4594C114.61 47.3074 114.596 47.1649 114.567 47.0317C114.539 46.8966 114.494 46.7785 114.432 46.6772C114.37 46.574 114.289 46.4933 114.188 46.4352C114.086 46.3752 113.961 46.3452 113.813 46.3452C113.682 46.3452 113.568 46.3677 113.47 46.4127C113.374 46.4577 113.293 46.5187 113.225 46.5956C113.158 46.6706 113.102 46.7569 113.059 46.8544C113.018 46.9501 112.987 47.0495 112.966 47.1527V47.8308C112.996 47.9621 113.045 48.0887 113.113 48.2107C113.182 48.3307 113.274 48.4292 113.388 48.5061C113.505 48.583 113.648 48.6215 113.819 48.6215C113.96 48.6215 114.08 48.5933 114.179 48.537C114.28 48.4789 114.362 48.3992 114.424 48.2979C114.488 48.1966 114.535 48.0793 114.565 47.9462C114.595 47.813 114.61 47.6704 114.61 47.5185Z" fill="black"/>
<path d="M115.653 47.5185V47.4538C115.653 47.2343 115.685 47.0308 115.749 46.8432C115.813 46.6537 115.905 46.4896 116.025 46.3508C116.145 46.2101 116.29 46.1013 116.461 46.0244C116.632 45.9456 116.823 45.9062 117.035 45.9062C117.249 45.9062 117.441 45.9456 117.612 46.0244C117.784 46.1013 117.931 46.2101 118.051 46.3508C118.173 46.4896 118.266 46.6537 118.329 46.8432C118.393 47.0308 118.425 47.2343 118.425 47.4538V47.5185C118.425 47.7379 118.393 47.9415 118.329 48.1291C118.266 48.3166 118.173 48.4808 118.051 48.6215C117.931 48.7603 117.785 48.8691 117.615 48.9478C117.446 49.0248 117.254 49.0632 117.041 49.0632C116.827 49.0632 116.635 49.0248 116.464 48.9478C116.293 48.8691 116.147 48.7603 116.025 48.6215C115.905 48.4808 115.813 48.3166 115.749 48.1291C115.685 47.9415 115.653 47.7379 115.653 47.5185ZM116.174 47.4538V47.5185C116.174 47.6704 116.192 47.8139 116.227 47.949C116.263 48.0822 116.317 48.2003 116.388 48.3035C116.461 48.4067 116.552 48.4883 116.661 48.5483C116.77 48.6064 116.896 48.6355 117.041 48.6355C117.183 48.6355 117.308 48.6064 117.415 48.5483C117.524 48.4883 117.614 48.4067 117.685 48.3035C117.756 48.2003 117.81 48.0822 117.845 47.949C117.883 47.8139 117.902 47.6704 117.902 47.5185V47.4538C117.902 47.3037 117.883 47.1621 117.845 47.0289C117.81 46.8938 117.755 46.7747 117.682 46.6715C117.611 46.5665 117.521 46.484 117.412 46.4239C117.305 46.3639 117.179 46.3339 117.035 46.3339C116.892 46.3339 116.767 46.3639 116.658 46.4239C116.551 46.484 116.461 46.5665 116.388 46.6715C116.317 46.7747 116.263 46.8938 116.227 47.0289C116.192 47.1621 116.174 47.3037 116.174 47.4538Z" fill="black"/>
<path d="M120.352 45.9625V46.362H118.706V45.9625H120.352ZM119.263 45.2225H119.784V48.2529C119.784 48.356 119.8 48.4339 119.832 48.4864C119.864 48.5389 119.905 48.5736 119.956 48.5905C120.006 48.6074 120.061 48.6158 120.119 48.6158C120.162 48.6158 120.207 48.6121 120.254 48.6046C120.303 48.5952 120.339 48.5877 120.364 48.5821L120.366 49.0069C120.325 49.0201 120.271 49.0323 120.203 49.0435C120.138 49.0566 120.058 49.0632 119.964 49.0632C119.837 49.0632 119.719 49.0379 119.612 48.9872C119.505 48.9366 119.42 48.8522 119.356 48.734C119.294 48.614 119.263 48.4526 119.263 48.25V45.2225Z" fill="black"/>
<path d="M122.736 48.1994C122.736 48.1244 122.719 48.055 122.685 47.9912C122.653 47.9255 122.586 47.8664 122.485 47.8139C122.386 47.7595 122.236 47.7126 122.035 47.6732C121.866 47.6376 121.713 47.5954 121.576 47.5466C121.441 47.4978 121.326 47.4388 121.23 47.3693C121.136 47.2999 121.064 47.2183 121.014 47.1246C120.963 47.0308 120.938 46.921 120.938 46.7953C120.938 46.6753 120.964 46.5618 121.016 46.4549C121.071 46.348 121.147 46.2532 121.244 46.1707C121.344 46.0882 121.463 46.0235 121.602 45.9766C121.74 45.9297 121.895 45.9062 122.066 45.9062C122.31 45.9062 122.518 45.9494 122.691 46.0356C122.863 46.1219 122.995 46.2373 123.087 46.3817C123.179 46.5243 123.225 46.6828 123.225 46.8573H122.705C122.705 46.7728 122.679 46.6912 122.629 46.6125C122.58 46.5318 122.508 46.4652 122.412 46.4127C122.318 46.3602 122.203 46.3339 122.066 46.3339C121.922 46.3339 121.804 46.3564 121.714 46.4014C121.626 46.4446 121.561 46.4999 121.52 46.5674C121.481 46.635 121.461 46.7062 121.461 46.7813C121.461 46.8376 121.47 46.8882 121.489 46.9332C121.51 46.9764 121.545 47.0167 121.596 47.0542C121.647 47.0899 121.718 47.1236 121.81 47.1555C121.902 47.1874 122.019 47.2193 122.162 47.2512C122.411 47.3074 122.616 47.375 122.778 47.4538C122.939 47.5325 123.059 47.6291 123.138 47.7436C123.217 47.858 123.256 47.9968 123.256 48.16C123.256 48.2932 123.228 48.4151 123.172 48.5258C123.117 48.6365 123.038 48.7321 122.933 48.8128C122.829 48.8916 122.706 48.9535 122.561 48.9985C122.419 49.0416 122.258 49.0632 122.08 49.0632C121.812 49.0632 121.585 49.0154 121.399 48.9197C121.213 48.824 121.073 48.7002 120.977 48.5483C120.881 48.3964 120.834 48.236 120.834 48.0672H121.357C121.364 48.2097 121.406 48.3232 121.481 48.4076C121.556 48.4901 121.648 48.5492 121.756 48.5849C121.865 48.6186 121.973 48.6355 122.08 48.6355C122.223 48.6355 122.342 48.6168 122.437 48.5792C122.535 48.5417 122.609 48.4901 122.66 48.4245C122.71 48.3588 122.736 48.2838 122.736 48.1994Z" fill="black"/>
<path d="M126.14 48.4667L126.922 45.9625H127.266L127.198 46.4605L126.402 49.0069H126.067L126.14 48.4667ZM125.614 45.9625L126.281 48.4948L126.329 49.0069H125.977L125.094 45.9625H125.614ZM128.014 48.4751L128.65 45.9625H129.168L128.284 49.0069H127.935L128.014 48.4751ZM127.342 45.9625L128.107 48.4245L128.194 49.0069H127.862L127.043 46.4549L126.976 45.9625H127.342Z" fill="black"/>
<path d="M130.268 45.9625V49.0069H129.745V45.9625H130.268ZM129.705 45.155C129.705 45.0705 129.731 44.9993 129.781 44.9411C129.834 44.883 129.911 44.8539 130.012 44.8539C130.111 44.8539 130.187 44.883 130.24 44.9411C130.294 44.9993 130.321 45.0705 130.321 45.155C130.321 45.2356 130.294 45.305 130.24 45.3632C130.187 45.4194 130.111 45.4476 130.012 45.4476C129.911 45.4476 129.834 45.4194 129.781 45.3632C129.731 45.305 129.705 45.2356 129.705 45.155Z" fill="black"/>
<path d="M132.378 45.9625V46.362H130.732V45.9625H132.378ZM131.289 45.2225H131.81V48.2529C131.81 48.356 131.826 48.4339 131.858 48.4864C131.89 48.5389 131.931 48.5736 131.981 48.5905C132.032 48.6074 132.087 48.6158 132.145 48.6158C132.188 48.6158 132.233 48.6121 132.28 48.6046C132.329 48.5952 132.365 48.5877 132.389 48.5821L132.392 49.0069C132.351 49.0201 132.297 49.0323 132.229 49.0435C132.163 49.0566 132.084 49.0632 131.99 49.0632C131.862 49.0632 131.745 49.0379 131.638 48.9872C131.531 48.9366 131.446 48.8522 131.382 48.734C131.32 48.614 131.289 48.4526 131.289 48.25V45.2225Z" fill="black"/>
<path d="M133.509 44.6851V49.0069H132.989V44.6851H133.509ZM133.386 47.3693L133.169 47.3609C133.171 47.1527 133.202 46.9604 133.262 46.7841C133.322 46.6059 133.406 46.4511 133.515 46.3198C133.624 46.1885 133.753 46.0872 133.903 46.0159C134.055 45.9428 134.223 45.9062 134.407 45.9062C134.557 45.9062 134.692 45.9268 134.812 45.9681C134.932 46.0075 135.034 46.0713 135.119 46.1594C135.205 46.2476 135.271 46.362 135.316 46.5027C135.361 46.6415 135.383 46.8113 135.383 47.012V49.0069H134.86V47.0064C134.86 46.8469 134.836 46.7194 134.79 46.6237C134.743 46.5262 134.674 46.4558 134.584 46.4127C134.494 46.3677 134.383 46.3452 134.252 46.3452C134.123 46.3452 134.005 46.3724 133.898 46.4268C133.793 46.4812 133.702 46.5562 133.625 46.6518C133.55 46.7475 133.491 46.8573 133.447 46.9811C133.406 47.103 133.386 47.2324 133.386 47.3693Z" fill="black"/>
<path d="M138.855 49.0632C138.643 49.0632 138.451 49.0276 138.279 48.9563C138.108 48.8831 137.961 48.7809 137.837 48.6496C137.715 48.5183 137.621 48.3626 137.555 48.1825C137.49 48.0024 137.457 47.8055 137.457 47.5916V47.4735C137.457 47.2258 137.494 47.0054 137.567 46.8122C137.64 46.6171 137.739 46.4521 137.865 46.317C137.991 46.182 138.133 46.0797 138.293 46.0103C138.452 45.9409 138.617 45.9062 138.788 45.9062C139.005 45.9062 139.193 45.9437 139.351 46.0188C139.51 46.0938 139.64 46.1988 139.742 46.3339C139.843 46.4671 139.918 46.6247 139.967 46.8066C140.016 46.9867 140.04 47.1836 140.04 47.3975V47.631H137.767V47.2062H139.519V47.1668C139.512 47.0317 139.484 46.9004 139.435 46.7728C139.388 46.6453 139.313 46.5402 139.21 46.4577C139.107 46.3752 138.966 46.3339 138.788 46.3339C138.67 46.3339 138.561 46.3592 138.461 46.4099C138.362 46.4586 138.277 46.5318 138.205 46.6293C138.134 46.7269 138.079 46.846 138.039 46.9867C138 47.1274 137.98 47.2896 137.98 47.4735V47.5916C137.98 47.7361 138 47.8721 138.039 47.9996C138.081 48.1253 138.14 48.236 138.217 48.3316C138.295 48.4273 138.39 48.5023 138.501 48.5567C138.613 48.6111 138.741 48.6383 138.884 48.6383C139.067 48.6383 139.223 48.6008 139.351 48.5258C139.478 48.4508 139.59 48.3504 139.685 48.2247L140.001 48.4751C139.935 48.5746 139.851 48.6693 139.75 48.7593C139.649 48.8494 139.524 48.9225 139.376 48.9788C139.23 49.0351 139.056 49.0632 138.855 49.0632Z" fill="black"/>
<path d="M142.443 48.4864V46.9192C142.443 46.7991 142.419 46.695 142.37 46.6068C142.323 46.5168 142.252 46.4474 142.156 46.3986C142.06 46.3498 141.942 46.3255 141.801 46.3255C141.67 46.3255 141.555 46.348 141.455 46.393C141.358 46.438 141.281 46.4971 141.225 46.5703C141.17 46.6434 141.143 46.7222 141.143 46.8066H140.622C140.622 46.6978 140.651 46.5899 140.707 46.483C140.763 46.3761 140.844 46.2795 140.949 46.1932C141.056 46.1051 141.183 46.0356 141.331 45.985C141.482 45.9325 141.649 45.9062 141.832 45.9062C142.054 45.9062 142.249 45.9437 142.418 46.0188C142.588 46.0938 142.721 46.2073 142.817 46.3592C142.915 46.5093 142.963 46.6978 142.963 46.9248V48.3429C142.963 48.4442 142.972 48.552 142.989 48.6665C143.008 48.7809 143.035 48.8794 143.07 48.9619V49.0069H142.527C142.501 48.9469 142.48 48.8672 142.465 48.7678C142.45 48.6665 142.443 48.5727 142.443 48.4864ZM142.533 47.1611L142.539 47.5269H142.012C141.864 47.5269 141.732 47.5391 141.616 47.5635C141.499 47.586 141.402 47.6207 141.323 47.6676C141.244 47.7145 141.184 47.7736 141.143 47.8449C141.102 47.9143 141.081 47.9959 141.081 48.0897C141.081 48.1853 141.103 48.2726 141.146 48.3513C141.189 48.4301 141.254 48.493 141.34 48.5399C141.428 48.5849 141.536 48.6074 141.664 48.6074C141.823 48.6074 141.964 48.5736 142.086 48.5061C142.207 48.4386 142.304 48.356 142.375 48.2585C142.449 48.1609 142.488 48.0662 142.494 47.9743L142.716 48.2247C142.703 48.3035 142.667 48.3907 142.609 48.4864C142.551 48.5821 142.473 48.674 142.375 48.7621C142.28 48.8484 142.165 48.9206 142.032 48.9788C141.901 49.0351 141.753 49.0632 141.588 49.0632C141.381 49.0632 141.2 49.0229 141.044 48.9422C140.891 48.8616 140.771 48.7537 140.684 48.6186C140.6 48.4817 140.558 48.3288 140.558 48.16C140.558 47.9968 140.59 47.8533 140.653 47.7295C140.717 47.6038 140.809 47.4997 140.929 47.4172C141.049 47.3328 141.194 47.269 141.362 47.2258C141.531 47.1827 141.72 47.1611 141.928 47.1611H142.533Z" fill="black"/>
<path d="M145.555 48.1994C145.555 48.1244 145.538 48.055 145.504 47.9912C145.472 47.9255 145.406 47.8664 145.304 47.8139C145.205 47.7595 145.055 47.7126 144.854 47.6732C144.685 47.6376 144.533 47.5954 144.396 47.5466C144.261 47.4978 144.145 47.4388 144.05 47.3693C143.956 47.2999 143.884 47.2183 143.833 47.1246C143.782 47.0308 143.757 46.921 143.757 46.7953C143.757 46.6753 143.783 46.5618 143.836 46.4549C143.89 46.348 143.966 46.2532 144.064 46.1707C144.163 46.0882 144.282 46.0235 144.421 45.9766C144.56 45.9297 144.715 45.9062 144.885 45.9062C145.129 45.9062 145.337 45.9494 145.51 46.0356C145.682 46.1219 145.815 46.2373 145.907 46.3817C145.999 46.5243 146.044 46.6828 146.044 46.8573H145.524C145.524 46.7728 145.499 46.6912 145.448 46.6125C145.399 46.5318 145.327 46.4652 145.231 46.4127C145.138 46.3602 145.022 46.3339 144.885 46.3339C144.741 46.3339 144.624 46.3564 144.534 46.4014C144.445 46.4446 144.381 46.4999 144.339 46.5674C144.3 46.635 144.28 46.7062 144.28 46.7813C144.28 46.8376 144.29 46.8882 144.308 46.9332C144.329 46.9764 144.365 47.0167 144.415 47.0542C144.466 47.0899 144.537 47.1236 144.629 47.1555C144.721 47.1874 144.838 47.2193 144.981 47.2512C145.23 47.3074 145.436 47.375 145.597 47.4538C145.758 47.5325 145.878 47.6291 145.957 47.7436C146.036 47.858 146.075 47.9968 146.075 48.16C146.075 48.2932 146.047 48.4151 145.991 48.5258C145.937 48.6365 145.857 48.7321 145.752 48.8128C145.649 48.8916 145.525 48.9535 145.38 48.9985C145.238 49.0416 145.077 49.0632 144.899 49.0632C144.631 49.0632 144.404 49.0154 144.218 48.9197C144.033 48.824 143.892 48.7002 143.796 48.5483C143.701 48.3964 143.653 48.236 143.653 48.0672H144.176C144.184 48.2097 144.225 48.3232 144.3 48.4076C144.375 48.4901 144.467 48.5492 144.576 48.5849C144.685 48.6186 144.792 48.6355 144.899 48.6355C145.042 48.6355 145.161 48.6168 145.257 48.5792C145.354 48.5417 145.428 48.4901 145.479 48.4245C145.53 48.3588 145.555 48.2838 145.555 48.1994Z" fill="black"/>
<path d="M148.023 49.0632C147.811 49.0632 147.618 49.0276 147.446 48.9563C147.275 48.8831 147.128 48.7809 147.004 48.6496C146.882 48.5183 146.788 48.3626 146.723 48.1825C146.657 48.0024 146.624 47.8055 146.624 47.5916V47.4735C146.624 47.2258 146.661 47.0054 146.734 46.8122C146.807 46.6171 146.906 46.4521 147.032 46.317C147.158 46.182 147.3 46.0797 147.46 46.0103C147.619 45.9409 147.784 45.9062 147.955 45.9062C148.173 45.9062 148.36 45.9437 148.518 46.0188C148.677 46.0938 148.808 46.1988 148.909 46.3339C149.01 46.4671 149.085 46.6247 149.134 46.8066C149.183 46.9867 149.207 47.1836 149.207 47.3975V47.631H146.934V47.2062H148.687V47.1668C148.679 47.0317 148.651 46.9004 148.602 46.7728C148.555 46.6453 148.48 46.5402 148.377 46.4577C148.274 46.3752 148.133 46.3339 147.955 46.3339C147.837 46.3339 147.728 46.3592 147.629 46.4099C147.529 46.4586 147.444 46.5318 147.373 46.6293C147.301 46.7269 147.246 46.846 147.207 46.9867C147.167 47.1274 147.147 47.2896 147.147 47.4735V47.5916C147.147 47.7361 147.167 47.8721 147.207 47.9996C147.248 48.1253 147.307 48.236 147.384 48.3316C147.463 48.4273 147.557 48.5023 147.668 48.5567C147.781 48.6111 147.908 48.6383 148.051 48.6383C148.234 48.6383 148.39 48.6008 148.518 48.5258C148.645 48.4508 148.757 48.3504 148.853 48.2247L149.168 48.4751C149.102 48.5746 149.019 48.6693 148.917 48.7593C148.816 48.8494 148.691 48.9225 148.543 48.9788C148.397 49.0351 148.223 49.0632 148.023 49.0632Z" fill="black"/>
<path d="M149.823 48.7312C149.823 48.643 149.851 48.5689 149.905 48.5089C149.961 48.447 150.042 48.4161 150.147 48.4161C150.252 48.4161 150.332 48.447 150.386 48.5089C150.442 48.5689 150.47 48.643 150.47 48.7312C150.47 48.8175 150.442 48.8906 150.386 48.9507C150.332 49.0107 150.252 49.0407 150.147 49.0407C150.042 49.0407 149.961 49.0107 149.905 48.9507C149.851 48.8906 149.823 48.8175 149.823 48.7312Z" fill="black"/>
<rect x="0.5" y="0.5" width="203" height="74" rx="15.5" stroke="#DBDBDB"/>
<defs>
<filter id="filter0_i_10723_30541" x="41.9365" y="27.7407" width="24.96" height="2.40332" filterUnits="userSpaceOnUse" color-interpolation-filters="sRGB">
<feFlood flood-opacity="0" result="BackgroundImageFix"/>
<feBlend mode="normal" in="SourceGraphic" in2="BackgroundImageFix" result="shape"/>
<feColorMatrix in="SourceAlpha" type="matrix" values="0 0 0 0 0 0 0 0 0 0 0 0 0 0 0 0 0 0 127 0" result="hardAlpha"/>
<feOffset dy="6"/>
<feComposite in2="hardAlpha" operator="arithmetic" k2="-1" k3="1"/>
<feColorMatrix type="matrix" values="0 0 0 0 0 0 0 0 0 0 0 0 0 0 0 0 0 0 0.25 0"/>
<feBlend mode="normal" in2="shape" result="effect1_innerShadow_10723_30541"/>
</filter>
<linearGradient id="paint0_linear_10723_30541" x1="40.3284" y1="31.1271" x2="65.3804" y2="46.1028" gradientUnits="userSpaceOnUse">
<stop stop-color="#844A36"/>
<stop offset="1" stop-color="#78412E"/>
</linearGradient>
<linearGradient id="paint1_linear_10723_30541" x1="53.4731" y1="31.4385" x2="53.4731" y2="53.9122" gradientUnits="userSpaceOnUse">
<stop stop-color="#C07352"/>
<stop offset="1" stop-color="#A55E3F"/>
</linearGradient>
<linearGradient id="paint2_linear_10723_30541" x1="69.4235" y1="29.4048" x2="69.4235" y2="46.8765" gradientUnits="userSpaceOnUse">
<stop stop-color="#844A36"/>
<stop offset="1" stop-color="#5F3424"/>
</linearGradient>
<linearGradient id="paint3_linear_10723_30541" x1="54.3772" y1="29.1274" x2="54.3772" y2="44.5654" gradientUnits="userSpaceOnUse">
<stop stop-color="#CB754F"/>
<stop offset="1" stop-color="#8A4C30"/>
</linearGradient>
</defs>
</svg>
