<svg width="130" height="43" viewBox="0 0 130 43" fill="none" xmlns="http://www.w3.org/2000/svg">
<path d="M26.8633 40.9965C26.8633 41.7043 22.6753 42.2989 17.5274 42.2989C16.7204 42.2989 15.9351 42.2706 15.1935 42.2706C11.1581 42.129 8.19159 41.6194 8.19159 41.0248C8.19159 36.1833 19.4033 34.2863 24.8129 37.8538C25.8163 38.505 26.8633 39.5242 26.8633 40.9965Z" fill="#784440"/>
<path d="M24.8129 37.8254C22.3263 37.7405 18.4654 38.3351 15.1935 42.2706C11.1582 42.1291 8.19162 41.6194 8.19162 41.0248C8.16981 36.1833 19.3816 34.2863 24.8129 37.8254Z" fill="#814742"/>
<path d="M0.499532 18.0102C-1.42328 12.1678 6.41583 11.909 11.5926 11.909C5.45441 11.909 3.91987 13.9735 3.82744 14.9596C4.10477 22.6323 20.4671 28.3638 29.9887 29.5655L32.9469 31.8766C12.1473 30.6748 2.65653 22.0469 0.499532 18.0102Z" fill="url(#paint0_linear_1_1580)"/>
<path d="M9.37355 37.3307C0.868817 34.0767 -0.487039 22.4783 0.129246 16.4387C1.09065 20.728 7.30896 24.7585 10.2979 26.2376C18.5393 30.453 28.8617 31.7225 32.9464 31.8766C30.4505 37.9778 18.8952 40.9738 9.37355 37.3307Z" fill="url(#paint1_linear_1_1580)"/>
<path d="M30.9129 14.405C31.2087 25.2023 30.4507 29.0109 29.9885 29.5656L32.9466 31.8766C34.8694 28.7706 34.9804 18.9347 34.7955 14.405H30.9129Z" fill="url(#paint2_linear_1_1580)"/>
<path d="M10.0211 23.0022C4.10474 19.7482 3.08786 15.9765 4.01228 14.1277C14.8096 16.864 26.4143 15.5451 30.9131 14.405C31.3569 24.6846 30.5434 28.7336 29.9887 29.5656C22.2975 29.0479 13.4723 24.9435 10.0211 23.0022Z" fill="url(#paint3_linear_1_1580)"/>
<path d="M34.8875 14.405C33.4085 12.0384 18.6792 11.7549 11.4995 11.909C6.98831 11.909 4.65876 13.1108 4.01166 14.1276C5.41679 15.3109 12.3931 15.7916 15.7519 15.884C21.5203 16.1799 28.2625 15.0212 30.9125 14.405H34.8875Z" fill="#6C3C2B"/>
<g filter="url(#filter0_i_1_1580)">
<ellipse cx="17.4163" cy="13.9427" rx="12.4798" ry="1.20176" fill="#303030"/>
</g>
<path d="M25.3953 2.11046C24.9513 5.22129 24.9509 8.37937 25.3941 11.4903L25.6994 13.6341C25.6994 14.1701 21.9578 14.639 17.3644 14.639C15.9955 14.639 14.7179 14.6055 13.5923 14.5385C10.885 14.3711 9.02934 13.5671 9.09018 13.5001C9.71572 9.07806 9.71355 4.58985 9.08374 0.168436L9.05975 3.05176e-05H25.6994L25.3953 2.11046Z" fill="#CA7B57"/>
<path d="M49.3566 24.6429H54.6005C57.4433 24.6429 59.1144 23.1638 59.1144 20.9164C59.1144 19.6103 58.519 18.477 56.7902 17.8047C56.5789 17.7279 56.4829 17.4205 56.7518 17.3245C57.9619 16.8635 58.6726 15.9607 58.6726 14.5969C58.6726 12.4071 56.6558 11.197 54.1971 11.197H49.3566C48.6267 11.197 48.2041 11.658 48.2041 12.2151C48.2041 12.4264 48.2617 12.6376 48.3962 12.8489C48.7227 13.3868 48.9148 14.0014 48.9148 14.9426V20.8972C48.9148 21.8384 48.7227 22.4531 48.3962 22.9909C48.2617 23.2022 48.2041 23.4135 48.2041 23.6248C48.2041 24.1819 48.6267 24.6429 49.3566 24.6429ZM52.6412 16.4601C52.3339 16.4601 52.1418 16.268 52.1418 15.9607V14.0014C52.1418 13.6941 52.3147 13.502 52.6412 13.502H53.7553C54.6389 13.502 55.2728 14.0206 55.2728 14.9811C55.2728 15.9415 54.6389 16.4601 53.7553 16.4601H52.6412ZM52.6412 22.3379C52.3339 22.3379 52.1418 22.165 52.1418 21.8384V19.2645C52.1418 18.9572 52.3339 18.7651 52.6412 18.7651H53.9474C55.0231 18.7651 55.7338 19.4566 55.7338 20.5515C55.7338 21.6464 55.0231 22.3379 53.9474 22.3379H52.6412Z" fill="#181818"/>
<path d="M65.053 24.9118C67.7613 24.9118 69.9895 22.9333 69.9895 19.7255C69.9895 16.5177 67.819 14.5777 65.053 14.5777C62.3446 14.5777 60.1164 16.5177 60.1164 19.7255C60.1164 22.9333 62.287 24.9118 65.053 24.9118ZM65.2066 22.5876C63.9197 22.5876 63.209 21.0893 63.209 19.1877C63.209 17.6702 63.9005 16.8827 64.8801 16.8827C66.1671 16.8827 66.897 18.3425 66.897 20.2634C66.897 21.8 66.1863 22.5876 65.2066 22.5876Z" fill="#181818"/>
<path d="M74.2706 24.9118C75.8072 24.9118 76.9982 23.9706 76.9982 22.9141C76.9982 22.4339 76.7677 22.1842 76.4219 22.1842C76.0185 22.1842 75.7496 22.4147 75.2694 22.4147C74.8852 22.4147 74.6355 22.1458 74.6355 21.6848V17.2476C74.6355 16.9979 74.77 16.8635 75.0197 16.8635H76.1338C76.5564 16.8635 76.8061 16.6138 76.8061 16.1912V15.5189C76.8061 15.0963 76.5564 14.8466 76.1338 14.8466H75.0581C74.7892 14.8466 74.6355 14.6929 74.6355 14.424V13.7517C74.6355 13.1563 74.1169 12.8105 73.5599 13.1563L70.7939 14.8466C70.4289 15.0771 70.2752 15.2692 70.2752 15.6918V16.1912C70.2752 16.6138 70.5249 16.8635 70.9475 16.8635H71.178C71.4277 16.8635 71.5622 16.9979 71.5622 17.2476V21.9537C71.5622 23.9322 72.6955 24.9118 74.2706 24.9118Z" fill="#181818"/>
<path d="M78.8444 24.6429H81.1878C81.9177 24.6429 82.3403 24.1819 82.3403 23.6248C82.3403 23.4135 82.2827 23.2022 82.1482 22.9909C81.8025 22.4531 81.6296 21.8384 81.6296 20.8972V20.2634C81.6296 19.9176 81.8217 19.7255 82.1675 19.7255H83.3584C86.3933 19.7255 87.9684 17.9968 87.9684 15.4613C87.9684 12.9258 86.3933 11.197 83.3584 11.197H78.8444C78.1145 11.197 77.6919 11.658 77.6919 12.2151C77.6919 12.4264 77.7495 12.6376 77.884 12.8489C78.2105 13.3868 78.4026 14.0014 78.4026 14.9426V20.8972C78.4026 21.8384 78.2105 22.4531 77.884 22.9909C77.7495 23.2022 77.6919 23.4135 77.6919 23.6248C77.6919 24.1819 78.1145 24.6429 78.8444 24.6429ZM82.1675 17.4205C81.8217 17.4205 81.6296 17.2284 81.6296 16.8827V14.0399C81.6296 13.6941 81.8217 13.502 82.1675 13.502H83.0318C84.1843 13.502 84.8566 14.1743 84.8566 15.4613C84.8566 16.7482 84.1843 17.4205 83.0318 17.4205H82.1675Z" fill="#181818"/>
<path d="M93.0964 24.9118C95.8048 24.9118 98.0329 22.9333 98.0329 19.7255C98.0329 16.5177 95.8624 14.5777 93.0964 14.5777C90.388 14.5777 88.1599 16.5177 88.1599 19.7255C88.1599 22.9333 90.3304 24.9118 93.0964 24.9118ZM93.2501 22.5876C91.9631 22.5876 91.2524 21.0893 91.2524 19.1877C91.2524 17.6702 91.9439 16.8827 92.9235 16.8827C94.2105 16.8827 94.9404 18.3425 94.9404 20.2634C94.9404 21.8 94.2297 22.5876 93.2501 22.5876Z" fill="#181818"/>
<path d="M102.314 24.9118C103.851 24.9118 105.042 23.9706 105.042 22.9141C105.042 22.4339 104.811 22.1842 104.465 22.1842C104.062 22.1842 103.793 22.4147 103.313 22.4147C102.929 22.4147 102.679 22.1458 102.679 21.6848V17.2476C102.679 16.9979 102.813 16.8635 103.063 16.8635H104.177C104.6 16.8635 104.85 16.6138 104.85 16.1912V15.5189C104.85 15.0963 104.6 14.8466 104.177 14.8466H103.102C102.833 14.8466 102.679 14.6929 102.679 14.424V13.7517C102.679 13.1563 102.16 12.8105 101.603 13.1563L98.8373 14.8466C98.4723 15.0771 98.3187 15.2692 98.3187 15.6918V16.1912C98.3187 16.6138 98.5684 16.8635 98.991 16.8635H99.2215C99.4712 16.8635 99.6056 16.9979 99.6056 17.2476V21.9537C99.6056 23.9322 100.739 24.9118 102.314 24.9118Z" fill="#181818"/>
<path d="M109.423 24.9118C110.96 24.9118 112.151 23.9706 112.151 22.9141C112.151 22.4339 111.92 22.1842 111.575 22.1842C111.171 22.1842 110.902 22.4147 110.422 22.4147C110.038 22.4147 109.788 22.1458 109.788 21.6848V17.2476C109.788 16.9979 109.923 16.8635 110.172 16.8635H111.287C111.709 16.8635 111.959 16.6138 111.959 16.1912V15.5189C111.959 15.0963 111.709 14.8466 111.287 14.8466H110.211C109.942 14.8466 109.788 14.6929 109.788 14.424V13.7517C109.788 13.1563 109.27 12.8105 108.713 13.1563L105.947 14.8466C105.582 15.0771 105.428 15.2692 105.428 15.6918V16.1912C105.428 16.6138 105.678 16.8635 106.1 16.8635H106.331C106.581 16.8635 106.715 16.9979 106.715 17.2476V21.9537C106.715 23.9322 107.848 24.9118 109.423 24.9118Z" fill="#181818"/>
<path d="M117.276 24.9118C119.331 24.9118 120.579 23.8937 121.309 22.4915C121.732 21.6656 120.868 20.9164 119.984 21.6079C119.369 22.0882 118.659 22.4339 117.775 22.4339C116.661 22.4339 115.777 21.5887 115.566 20.5899C115.528 20.3786 115.624 20.2634 115.816 20.2634H120.848C121.463 20.2634 121.809 19.9752 121.809 19.1493C121.809 16.7098 120.311 14.5777 117.352 14.5777C114.318 14.5777 112.339 16.8443 112.339 19.7255C112.339 22.9333 114.318 24.9118 117.276 24.9118ZM115.873 18.4194C115.662 18.4194 115.566 18.2849 115.643 18.0928C115.95 17.3053 116.546 16.8635 117.295 16.8635C118.121 16.8635 118.697 17.3053 118.774 17.9968C118.812 18.2657 118.678 18.4194 118.428 18.4194H115.873Z" fill="#181818"/>
<path d="M123.482 24.6429H125.441C126.133 24.6429 126.44 24.2395 126.248 23.5672C126.094 23.0294 125.998 22.5876 125.998 21.7616V19.0917C125.998 18.0544 126.286 17.3437 126.786 17.3437C127.362 17.3437 127.42 18.5538 128.476 18.5538C130.435 18.5538 130.589 14.5777 128.399 14.5777C127.535 14.5777 127.016 15.0003 126.382 15.7878C126.152 16.0759 125.998 15.9223 125.998 15.6918V15.4421C125.998 14.789 125.633 14.4432 124.769 14.6161L123.271 14.9042C122.752 15.0003 122.483 15.5573 122.675 16.0183C122.791 16.2872 122.925 16.6906 122.925 17.2092V21.7616C122.925 22.5876 122.829 23.0294 122.675 23.5672C122.483 24.2395 122.791 24.6429 123.482 24.6429Z" fill="#181818"/>
<path d="M48.8001 29.9102V34.0069H48.257V29.9102H48.8001ZM50.5164 31.7531V32.1977H48.6819V31.7531H50.5164ZM50.795 29.9102V30.3547H48.6819V29.9102H50.795Z" fill="black"/>
<path d="M51.1636 32.5185V32.4538C51.1636 32.2343 51.1955 32.0308 51.2593 31.8432C51.323 31.6537 51.415 31.4896 51.535 31.3508C51.6551 31.2101 51.8004 31.1013 51.9711 31.0244C52.1418 30.9456 52.3332 30.9062 52.5451 30.9062C52.759 30.9062 52.9512 30.9456 53.1219 31.0244C53.2945 31.1013 53.4408 31.2101 53.5609 31.3508C53.6828 31.4896 53.7757 31.6537 53.8394 31.8432C53.9032 32.0308 53.9351 32.2343 53.9351 32.4538V32.5185C53.9351 32.7379 53.9032 32.9415 53.8394 33.1291C53.7757 33.3166 53.6828 33.4808 53.5609 33.6215C53.4408 33.7603 53.2955 33.8691 53.1248 33.9478C52.9559 34.0248 52.7646 34.0632 52.5508 34.0632C52.3369 34.0632 52.1446 34.0248 51.9739 33.9478C51.8032 33.8691 51.6569 33.7603 51.535 33.6215C51.415 33.4808 51.323 33.3166 51.2593 33.1291C51.1955 32.9415 51.1636 32.7379 51.1636 32.5185ZM51.6841 32.4538V32.5185C51.6841 32.6704 51.702 32.8139 51.7376 32.949C51.7732 33.0822 51.8267 33.2003 51.898 33.3035C51.9711 33.4067 52.0621 33.4883 52.1709 33.5483C52.2797 33.6064 52.4063 33.6355 52.5508 33.6355C52.6933 33.6355 52.8181 33.6064 52.925 33.5483C53.0338 33.4883 53.1238 33.4067 53.1951 33.3035C53.2664 33.2003 53.3198 33.0822 53.3555 32.949C53.393 32.8139 53.4118 32.6704 53.4118 32.5185V32.4538C53.4118 32.3037 53.393 32.1621 53.3555 32.0289C53.3198 31.8938 53.2654 31.7747 53.1923 31.6715C53.121 31.5665 53.031 31.484 52.9222 31.4239C52.8152 31.3639 52.6896 31.3339 52.5451 31.3339C52.4026 31.3339 52.2769 31.3639 52.1681 31.4239C52.0612 31.484 51.9711 31.5665 51.898 31.6715C51.8267 31.7747 51.7732 31.8938 51.7376 32.0289C51.702 32.1621 51.6841 32.3037 51.6841 32.4538Z" fill="black"/>
<path d="M55.1084 31.4408V34.0069H54.5879V30.9625H55.0944L55.1084 31.4408ZM56.0595 30.9456L56.0567 31.4296C56.0135 31.4202 55.9722 31.4146 55.9329 31.4127C55.8953 31.4089 55.8522 31.4071 55.8034 31.4071C55.6834 31.4071 55.5774 31.4258 55.4855 31.4633C55.3936 31.5008 55.3157 31.5534 55.2519 31.6209C55.1882 31.6884 55.1375 31.7691 55.1 31.8629C55.0643 31.9548 55.0409 32.0561 55.0296 32.1668L54.8833 32.2512C54.8833 32.0673 54.9012 31.8948 54.9368 31.7334C54.9743 31.5721 55.0315 31.4296 55.1084 31.3058C55.1853 31.1801 55.2829 31.0825 55.4011 31.0131C55.5211 30.9419 55.6637 30.9062 55.8287 30.9062C55.8663 30.9062 55.9094 30.9109 55.9582 30.9203C56.0069 30.9278 56.0407 30.9362 56.0595 30.9456Z" fill="black"/>
<path d="M57.0583 31.5674V34.0069H56.535V30.9625H57.0302L57.0583 31.5674ZM56.9514 32.3693L56.7094 32.3609C56.7113 32.1527 56.7385 31.9604 56.791 31.7841C56.8436 31.6059 56.9214 31.4511 57.0246 31.3198C57.1277 31.1885 57.2562 31.0872 57.4101 31.0159C57.5639 30.9428 57.7421 30.9062 57.9447 30.9062C58.0872 30.9062 58.2185 30.9268 58.3386 30.9681C58.4586 31.0075 58.5627 31.0703 58.6509 31.1566C58.7391 31.2429 58.8075 31.3536 58.8563 31.4887C58.9051 31.6237 58.9295 31.7869 58.9295 31.9782V34.0069H58.4089V32.0036C58.4089 31.8441 58.3817 31.7166 58.3273 31.6209C58.2748 31.5252 58.1998 31.4558 58.1022 31.4127C58.0047 31.3677 57.8903 31.3452 57.759 31.3452C57.6051 31.3452 57.4766 31.3724 57.3735 31.4268C57.2703 31.4812 57.1878 31.5562 57.1259 31.6518C57.064 31.7475 57.0189 31.8573 56.9908 31.9811C56.9645 32.103 56.9514 32.2324 56.9514 32.3693ZM58.9238 32.0823L58.5749 32.1893C58.5768 32.0223 58.604 31.8619 58.6565 31.7081C58.7109 31.5543 58.7888 31.4174 58.8901 31.2973C58.9932 31.1773 59.1199 31.0825 59.2699 31.0131C59.42 30.9419 59.5916 30.9062 59.7848 30.9062C59.948 30.9062 60.0925 30.9278 60.2181 30.9709C60.3457 31.0141 60.4526 31.0807 60.5389 31.1707C60.6271 31.2589 60.6937 31.3724 60.7387 31.5112C60.7837 31.65 60.8062 31.815 60.8062 32.0064V34.0069H60.2829V32.0008C60.2829 31.8301 60.2557 31.6978 60.2013 31.604C60.1487 31.5084 60.0737 31.4418 59.9762 31.4042C59.8805 31.3649 59.7661 31.3452 59.6329 31.3452C59.5185 31.3452 59.4172 31.3649 59.329 31.4042C59.2408 31.4436 59.1668 31.498 59.1067 31.5674C59.0467 31.635 59.0007 31.7128 58.9689 31.801C58.9388 31.8891 58.9238 31.9829 58.9238 32.0823Z" fill="black"/>
<path d="M63.8788 33.6918L64.7257 30.9625H65.2828L64.0617 34.4768C64.0336 34.5519 63.996 34.6325 63.9491 34.7188C63.9041 34.807 63.846 34.8904 63.7747 34.9692C63.7034 35.048 63.6171 35.1118 63.5158 35.1606C63.4164 35.2112 63.2973 35.2365 63.1585 35.2365C63.1172 35.2365 63.0647 35.2309 63.0009 35.2196C62.9371 35.2084 62.8921 35.199 62.8659 35.1915L62.863 34.7695C62.8781 34.7713 62.9015 34.7732 62.9334 34.7751C62.9672 34.7788 62.9906 34.7807 63.0037 34.7807C63.1219 34.7807 63.2223 34.7648 63.3048 34.7329C63.3873 34.7029 63.4567 34.6513 63.513 34.5781C63.5712 34.5068 63.6209 34.4084 63.6621 34.2827L63.8788 33.6918ZM63.257 30.9625L64.0476 33.326L64.1827 33.8747L63.8085 34.066L62.6886 30.9625H63.257Z" fill="black"/>
<path d="M65.5698 32.5185V32.4538C65.5698 32.2343 65.6017 32.0308 65.6655 31.8432C65.7293 31.6537 65.8212 31.4896 65.9413 31.3508C66.0613 31.2101 66.2067 31.1013 66.3774 31.0244C66.5481 30.9456 66.7394 30.9062 66.9514 30.9062C67.1652 30.9062 67.3575 30.9456 67.5282 31.0244C67.7008 31.1013 67.8471 31.2101 67.9671 31.3508C68.0891 31.4896 68.1819 31.6537 68.2457 31.8432C68.3095 32.0308 68.3414 32.2343 68.3414 32.4538V32.5185C68.3414 32.7379 68.3095 32.9415 68.2457 33.1291C68.1819 33.3166 68.0891 33.4808 67.9671 33.6215C67.8471 33.7603 67.7017 33.8691 67.531 33.9478C67.3622 34.0248 67.1709 34.0632 66.957 34.0632C66.7432 34.0632 66.5509 34.0248 66.3802 33.9478C66.2095 33.8691 66.0632 33.7603 65.9413 33.6215C65.8212 33.4808 65.7293 33.3166 65.6655 33.1291C65.6017 32.9415 65.5698 32.7379 65.5698 32.5185ZM66.0904 32.4538V32.5185C66.0904 32.6704 66.1082 32.8139 66.1438 32.949C66.1795 33.0822 66.2329 33.2003 66.3042 33.3035C66.3774 33.4067 66.4684 33.4883 66.5772 33.5483C66.686 33.6064 66.8126 33.6355 66.957 33.6355C67.0996 33.6355 67.2243 33.6064 67.3312 33.5483C67.44 33.4883 67.5301 33.4067 67.6014 33.3035C67.6726 33.2003 67.7261 33.0822 67.7617 32.949C67.7993 32.8139 67.818 32.6704 67.818 32.5185V32.4538C67.818 32.3037 67.7993 32.1621 67.7617 32.0289C67.7261 31.8938 67.6717 31.7747 67.5985 31.6715C67.5273 31.5665 67.4372 31.484 67.3284 31.4239C67.2215 31.3639 67.0958 31.3339 66.9514 31.3339C66.8088 31.3339 66.6831 31.3639 66.5743 31.4239C66.4674 31.484 66.3774 31.5665 66.3042 31.6715C66.2329 31.7747 66.1795 31.8938 66.1438 32.0289C66.1082 32.1621 66.0904 32.3037 66.0904 32.4538Z" fill="black"/>
<path d="M70.8568 33.3035V30.9625H71.3802V34.0069H70.8822L70.8568 33.3035ZM70.9553 32.662L71.172 32.6563C71.172 32.8589 71.1504 33.0465 71.1073 33.2191C71.066 33.3898 70.9985 33.538 70.9047 33.6637C70.8109 33.7893 70.688 33.8878 70.5361 33.9591C70.3841 34.0285 70.1994 34.0632 69.9818 34.0632C69.8336 34.0632 69.6976 34.0416 69.5738 33.9985C69.4518 33.9553 69.3468 33.8888 69.2586 33.7987C69.1705 33.7087 69.102 33.5914 69.0532 33.447C69.0063 33.3026 68.9829 33.1291 68.9829 32.9265V30.9625H69.5034V32.9321C69.5034 33.069 69.5184 33.1825 69.5484 33.2726C69.5803 33.3607 69.6225 33.4311 69.6751 33.4836C69.7295 33.5342 69.7895 33.5699 69.8551 33.5905C69.9227 33.6111 69.9921 33.6215 70.0634 33.6215C70.2847 33.6215 70.4601 33.5792 70.5895 33.4948C70.719 33.4086 70.8118 33.2932 70.8681 33.1487C70.9262 33.0024 70.9553 32.8402 70.9553 32.662Z" fill="black"/>
<path d="M72.6942 31.4408V34.0069H72.1737V30.9625H72.6801L72.6942 31.4408ZM73.6452 30.9456L73.6424 31.4296C73.5993 31.4202 73.558 31.4146 73.5186 31.4127C73.4811 31.4089 73.438 31.4071 73.3892 31.4071C73.2691 31.4071 73.1631 31.4258 73.0712 31.4633C72.9793 31.5008 72.9015 31.5534 72.8377 31.6209C72.7739 31.6884 72.7233 31.7691 72.6857 31.8629C72.6501 31.9548 72.6267 32.0561 72.6154 32.1668L72.4691 32.2512C72.4691 32.0673 72.4869 31.8948 72.5226 31.7334C72.5601 31.5721 72.6173 31.4296 72.6942 31.3058C72.7711 31.1801 72.8686 31.0825 72.9868 31.0131C73.1069 30.9419 73.2494 30.9062 73.4145 30.9062C73.452 30.9062 73.4952 30.9109 73.5439 30.9203C73.5927 30.9278 73.6265 30.9362 73.6452 30.9456Z" fill="black"/>
<path d="M75.5529 29.6851H76.0763V33.4161L76.0313 34.0069H75.5529V29.6851ZM78.1331 32.4594V32.5185C78.1331 32.7398 78.1069 32.9452 78.0543 33.1347C78.0018 33.3223 77.9249 33.4855 77.8236 33.6243C77.7223 33.7631 77.5985 33.8709 77.4522 33.9478C77.3059 34.0248 77.138 34.0632 76.9485 34.0632C76.7553 34.0632 76.5856 34.0304 76.4393 33.9647C76.2948 33.8972 76.1729 33.8006 76.0735 33.6749C75.9741 33.5492 75.8943 33.3973 75.8343 33.2191C75.7762 33.0409 75.7358 32.8402 75.7133 32.617V32.3581C75.7358 32.133 75.7762 31.9313 75.8343 31.7531C75.8943 31.5749 75.9741 31.423 76.0735 31.2973C76.1729 31.1698 76.2948 31.0732 76.4393 31.0075C76.5837 30.94 76.7516 30.9062 76.9429 30.9062C77.1342 30.9062 77.304 30.9437 77.4522 31.0188C77.6004 31.0919 77.7242 31.197 77.8236 31.3339C77.9249 31.4708 78.0018 31.635 78.0543 31.8263C78.1069 32.0158 78.1331 32.2268 78.1331 32.4594ZM77.6098 32.5185V32.4594C77.6098 32.3074 77.5957 32.1649 77.5676 32.0317C77.5394 31.8966 77.4944 31.7785 77.4325 31.6772C77.3706 31.574 77.289 31.4933 77.1877 31.4352C77.0864 31.3752 76.9617 31.3452 76.8135 31.3452C76.6822 31.3452 76.5677 31.3677 76.4702 31.4127C76.3745 31.4577 76.2929 31.5187 76.2254 31.5956C76.1579 31.6706 76.1025 31.7569 76.0594 31.8544C76.0181 31.9501 75.9872 32.0495 75.9665 32.1527V32.8308C75.9966 32.9621 76.0453 33.0887 76.1129 33.2107C76.1823 33.3307 76.2742 33.4292 76.3886 33.5061C76.5049 33.583 76.6484 33.6215 76.8191 33.6215C76.9598 33.6215 77.0798 33.5933 77.1793 33.537C77.2806 33.4789 77.3622 33.3992 77.4241 33.2979C77.4878 33.1966 77.5347 33.0793 77.5647 32.9462C77.5948 32.813 77.6098 32.6704 77.6098 32.5185Z" fill="black"/>
<path d="M78.6537 32.5185V32.4538C78.6537 32.2343 78.6855 32.0308 78.7493 31.8432C78.8131 31.6537 78.905 31.4896 79.0251 31.3508C79.1451 31.2101 79.2905 31.1013 79.4612 31.0244C79.6319 30.9456 79.8232 30.9062 80.0352 30.9062C80.249 30.9062 80.4413 30.9456 80.612 31.0244C80.7846 31.1013 80.9309 31.2101 81.0509 31.3508C81.1729 31.4896 81.2657 31.6537 81.3295 31.8432C81.3933 32.0308 81.4252 32.2343 81.4252 32.4538V32.5185C81.4252 32.7379 81.3933 32.9415 81.3295 33.1291C81.2657 33.3166 81.1729 33.4808 81.0509 33.6215C80.9309 33.7603 80.7855 33.8691 80.6148 33.9478C80.446 34.0248 80.2547 34.0632 80.0408 34.0632C79.827 34.0632 79.6347 34.0248 79.464 33.9478C79.2933 33.8691 79.147 33.7603 79.0251 33.6215C78.905 33.4808 78.8131 33.3166 78.7493 33.1291C78.6855 32.9415 78.6537 32.7379 78.6537 32.5185ZM79.1742 32.4538V32.5185C79.1742 32.6704 79.192 32.8139 79.2277 32.949C79.2633 33.0822 79.3168 33.2003 79.388 33.3035C79.4612 33.4067 79.5522 33.4883 79.661 33.5483C79.7698 33.6064 79.8964 33.6355 80.0408 33.6355C80.1834 33.6355 80.3081 33.6064 80.415 33.5483C80.5238 33.4883 80.6139 33.4067 80.6852 33.3035C80.7564 33.2003 80.8099 33.0822 80.8455 32.949C80.8831 32.8139 80.9018 32.6704 80.9018 32.5185V32.4538C80.9018 32.3037 80.8831 32.1621 80.8455 32.0289C80.8099 31.8938 80.7555 31.7747 80.6823 31.6715C80.6111 31.5665 80.521 31.484 80.4122 31.4239C80.3053 31.3639 80.1796 31.3339 80.0352 31.3339C79.8926 31.3339 79.7669 31.3639 79.6581 31.4239C79.5512 31.484 79.4612 31.5665 79.388 31.6715C79.3168 31.7747 79.2633 31.8938 79.2277 32.0289C79.192 32.1621 79.1742 32.3037 79.1742 32.4538Z" fill="black"/>
<path d="M83.3526 30.9625V31.362H81.7065V30.9625H83.3526ZM82.2637 30.2225H82.7842V33.2529C82.7842 33.356 82.8001 33.4339 82.832 33.4864C82.8639 33.5389 82.9052 33.5736 82.9558 33.5905C83.0065 33.6074 83.0609 33.6158 83.119 33.6158C83.1622 33.6158 83.2072 33.6121 83.2541 33.6046C83.3029 33.5952 83.3394 33.5877 83.3638 33.5821L83.3666 34.0069C83.3254 34.0201 83.271 34.0323 83.2034 34.0435C83.1378 34.0566 83.0581 34.0632 82.9643 34.0632C82.8367 34.0632 82.7195 34.0379 82.6126 33.9872C82.5056 33.9366 82.4203 33.8522 82.3565 33.734C82.2946 33.614 82.2637 33.4526 82.2637 33.25V30.2225Z" fill="black"/>
<path d="M85.7358 33.1994C85.7358 33.1244 85.7189 33.055 85.6851 32.9912C85.6533 32.9255 85.5867 32.8664 85.4854 32.8139C85.3859 32.7595 85.2359 32.7126 85.0352 32.6732C84.8663 32.6376 84.7135 32.5954 84.5765 32.5466C84.4415 32.4978 84.3261 32.4388 84.2304 32.3693C84.1367 32.2999 84.0644 32.2183 84.0138 32.1246C83.9631 32.0308 83.9378 31.921 83.9378 31.7953C83.9378 31.6753 83.9641 31.5618 84.0166 31.4549C84.071 31.348 84.147 31.2532 84.2445 31.1707C84.3439 31.0882 84.4631 31.0235 84.6019 30.9766C84.7407 30.9297 84.8954 30.9062 85.0661 30.9062C85.31 30.9062 85.5182 30.9494 85.6908 31.0356C85.8633 31.1219 85.9956 31.2373 86.0875 31.3817C86.1794 31.5243 86.2254 31.6828 86.2254 31.8573H85.7048C85.7048 31.7728 85.6795 31.6912 85.6289 31.6125C85.5801 31.5318 85.5079 31.4652 85.4122 31.4127C85.3184 31.3602 85.2031 31.3339 85.0661 31.3339C84.9217 31.3339 84.8044 31.3564 84.7144 31.4014C84.6262 31.4446 84.5615 31.4999 84.5203 31.5674C84.4809 31.635 84.4612 31.7062 84.4612 31.7813C84.4612 31.8376 84.4706 31.8882 84.4893 31.9332C84.5099 31.9764 84.5456 32.0167 84.5962 32.0542C84.6469 32.0899 84.7182 32.1236 84.8101 32.1555C84.902 32.1874 85.0192 32.2193 85.1618 32.2512C85.4113 32.3074 85.6167 32.375 85.778 32.4538C85.9393 32.5325 86.0594 32.6291 86.1381 32.7436C86.2169 32.858 86.2563 32.9968 86.2563 33.16C86.2563 33.2932 86.2282 33.4151 86.1719 33.5258C86.1175 33.6365 86.0378 33.7321 85.9328 33.8128C85.8296 33.8916 85.7058 33.9535 85.5613 33.9985C85.4188 34.0416 85.2584 34.0632 85.0802 34.0632C84.812 34.0632 84.585 34.0154 84.3993 33.9197C84.2136 33.824 84.0729 33.7002 83.9772 33.5483C83.8815 33.3964 83.8337 33.236 83.8337 33.0672H84.3571C84.3646 33.2097 84.4058 33.3232 84.4809 33.4076C84.5559 33.4901 84.6478 33.5492 84.7566 33.5849C84.8654 33.6186 84.9733 33.6355 85.0802 33.6355C85.2228 33.6355 85.3419 33.6168 85.4375 33.5792C85.5351 33.5417 85.6092 33.4901 85.6598 33.4245C85.7105 33.3588 85.7358 33.2838 85.7358 33.1994Z" fill="black"/>
<path d="M89.1404 33.4667L89.9226 30.9625H90.2659L90.1983 31.4605L89.4021 34.0069H89.0672L89.1404 33.4667ZM88.6142 30.9625L89.2811 33.4948L89.3289 34.0069H88.9772L88.0937 30.9625H88.6142ZM91.0143 33.4751L91.6502 30.9625H92.168L91.2844 34.0069H90.9355L91.0143 33.4751ZM90.3419 30.9625L91.1072 33.4245L91.1944 34.0069H90.8624L90.0436 31.4549L89.9761 30.9625H90.3419Z" fill="black"/>
<path d="M93.2681 30.9625V34.0069H92.7448V30.9625H93.2681ZM92.7054 30.155C92.7054 30.0705 92.7307 29.9993 92.7813 29.9411C92.8339 29.883 92.9108 29.8539 93.0121 29.8539C93.1115 29.8539 93.1875 29.883 93.24 29.9411C93.2944 29.9993 93.3216 30.0705 93.3216 30.155C93.3216 30.2356 93.2944 30.305 93.24 30.3632C93.1875 30.4194 93.1115 30.4476 93.0121 30.4476C92.9108 30.4476 92.8339 30.4194 92.7813 30.3632C92.7307 30.305 92.7054 30.2356 92.7054 30.155Z" fill="black"/>
<path d="M95.3784 30.9625V31.362H93.7324V30.9625H95.3784ZM94.2895 30.2225H94.81V33.2529C94.81 33.356 94.826 33.4339 94.8579 33.4864C94.8898 33.5389 94.931 33.5736 94.9817 33.5905C95.0323 33.6074 95.0867 33.6158 95.1449 33.6158C95.188 33.6158 95.233 33.6121 95.2799 33.6046C95.3287 33.5952 95.3653 33.5877 95.3897 33.5821L95.3925 34.0069C95.3512 34.0201 95.2968 34.0323 95.2293 34.0435C95.1636 34.0566 95.0839 34.0632 94.9901 34.0632C94.8626 34.0632 94.7453 34.0379 94.6384 33.9872C94.5315 33.9366 94.4461 33.8522 94.3824 33.734C94.3205 33.614 94.2895 33.4526 94.2895 33.25V30.2225Z" fill="black"/>
<path d="M96.5095 29.6851V34.0069H95.989V29.6851H96.5095ZM96.3857 32.3693L96.1691 32.3609C96.1709 32.1527 96.2019 31.9604 96.2619 31.7841C96.3219 31.6059 96.4064 31.4511 96.5152 31.3198C96.624 31.1885 96.7534 31.0872 96.9035 31.0159C97.0554 30.9428 97.2233 30.9062 97.4071 30.9062C97.5572 30.9062 97.6922 30.9268 97.8123 30.9681C97.9323 31.0075 98.0346 31.0713 98.119 31.1594C98.2053 31.2476 98.2709 31.362 98.3159 31.5027C98.361 31.6415 98.3835 31.8113 98.3835 32.012V34.0069H97.8601V32.0064C97.8601 31.8469 97.8367 31.7194 97.7898 31.6237C97.7429 31.5262 97.6744 31.4558 97.5844 31.4127C97.4943 31.3677 97.3837 31.3452 97.2523 31.3452C97.1229 31.3452 97.0047 31.3724 96.8978 31.4268C96.7928 31.4812 96.7018 31.5562 96.6249 31.6518C96.5499 31.7475 96.4908 31.8573 96.4476 31.9811C96.4064 32.103 96.3857 32.2324 96.3857 32.3693Z" fill="black"/>
<path d="M101.856 34.0632C101.644 34.0632 101.451 34.0276 101.279 33.9563C101.108 33.8831 100.961 33.7809 100.837 33.6496C100.715 33.5183 100.621 33.3626 100.556 33.1825C100.49 33.0024 100.457 32.8055 100.457 32.5916V32.4735C100.457 32.2258 100.494 32.0054 100.567 31.8122C100.64 31.6171 100.739 31.4521 100.865 31.317C100.991 31.182 101.133 31.0797 101.293 31.0103C101.452 30.9409 101.617 30.9062 101.788 30.9062C102.006 30.9062 102.193 30.9437 102.351 31.0188C102.51 31.0938 102.641 31.1988 102.742 31.3339C102.843 31.4671 102.918 31.6247 102.967 31.8066C103.016 31.9867 103.04 32.1836 103.04 32.3975V32.631H100.767V32.2062H102.52V32.1668C102.512 32.0317 102.484 31.9004 102.435 31.7728C102.388 31.6453 102.313 31.5402 102.21 31.4577C102.107 31.3752 101.966 31.3339 101.788 31.3339C101.67 31.3339 101.561 31.3592 101.462 31.4099C101.362 31.4586 101.277 31.5318 101.206 31.6293C101.134 31.7269 101.079 31.846 101.04 31.9867C101 32.1274 100.981 32.2896 100.981 32.4735V32.5916C100.981 32.7361 101 32.8721 101.04 32.9996C101.081 33.1253 101.14 33.236 101.217 33.3316C101.296 33.4273 101.39 33.5023 101.501 33.5567C101.614 33.6111 101.741 33.6383 101.884 33.6383C102.068 33.6383 102.223 33.6008 102.351 33.5258C102.478 33.4508 102.59 33.3504 102.686 33.2247L103.001 33.4751C102.935 33.5746 102.852 33.6693 102.75 33.7593C102.649 33.8494 102.524 33.9225 102.376 33.9788C102.23 34.0351 102.056 34.0632 101.856 34.0632Z" fill="black"/>
<path d="M105.443 33.4864V31.9192C105.443 31.7991 105.419 31.695 105.37 31.6068C105.323 31.5168 105.252 31.4474 105.156 31.3986C105.06 31.3498 104.942 31.3255 104.802 31.3255C104.67 31.3255 104.555 31.348 104.455 31.393C104.358 31.438 104.281 31.4971 104.225 31.5703C104.17 31.6434 104.143 31.7222 104.143 31.8066H103.623C103.623 31.6978 103.651 31.5899 103.707 31.483C103.763 31.3761 103.844 31.2795 103.949 31.1932C104.056 31.1051 104.183 31.0356 104.332 30.985C104.482 30.9325 104.649 30.9062 104.833 30.9062C105.054 30.9062 105.249 30.9437 105.418 31.0188C105.588 31.0938 105.722 31.2073 105.817 31.3592C105.915 31.5093 105.964 31.6978 105.964 31.9248V33.3429C105.964 33.4442 105.972 33.552 105.989 33.6665C106.008 33.7809 106.035 33.8794 106.071 33.9619V34.0069H105.528C105.501 33.9469 105.481 33.8672 105.466 33.7678C105.451 33.6665 105.443 33.5727 105.443 33.4864ZM105.533 32.1611L105.539 32.5269H105.013C104.864 32.5269 104.732 32.5391 104.616 32.5635C104.5 32.586 104.402 32.6207 104.323 32.6676C104.244 32.7145 104.184 32.7736 104.143 32.8449C104.102 32.9143 104.081 32.9959 104.081 33.0897C104.081 33.1853 104.103 33.2726 104.146 33.3513C104.189 33.4301 104.254 33.493 104.34 33.5399C104.428 33.5849 104.536 33.6074 104.664 33.6074C104.823 33.6074 104.964 33.5736 105.086 33.5061C105.208 33.4386 105.304 33.356 105.376 33.2585C105.449 33.1609 105.488 33.0662 105.494 32.9743L105.716 33.2247C105.703 33.3035 105.667 33.3907 105.609 33.4864C105.551 33.5821 105.473 33.674 105.376 33.7621C105.28 33.8484 105.165 33.9206 105.032 33.9788C104.901 34.0351 104.753 34.0632 104.588 34.0632C104.381 34.0632 104.2 34.0229 104.045 33.9422C103.891 33.8616 103.771 33.7537 103.685 33.6186C103.6 33.4817 103.558 33.3288 103.558 33.16C103.558 32.9968 103.59 32.8533 103.654 32.7295C103.717 32.6038 103.809 32.4997 103.929 32.4172C104.049 32.3328 104.194 32.269 104.363 32.2258C104.531 32.1827 104.72 32.1611 104.928 32.1611H105.533Z" fill="black"/>
<path d="M108.555 33.1994C108.555 33.1244 108.538 33.055 108.504 32.9912C108.473 32.9255 108.406 32.8664 108.305 32.8139C108.205 32.7595 108.055 32.7126 107.854 32.6732C107.686 32.6376 107.533 32.5954 107.396 32.5466C107.261 32.4978 107.145 32.4388 107.05 32.3693C106.956 32.2999 106.884 32.2183 106.833 32.1246C106.782 32.0308 106.757 31.921 106.757 31.7953C106.757 31.6753 106.783 31.5618 106.836 31.4549C106.89 31.348 106.966 31.2532 107.064 31.1707C107.163 31.0882 107.282 31.0235 107.421 30.9766C107.56 30.9297 107.715 30.9062 107.885 30.9062C108.129 30.9062 108.337 30.9494 108.51 31.0356C108.683 31.1219 108.815 31.2373 108.907 31.3817C108.999 31.5243 109.045 31.6828 109.045 31.8573H108.524C108.524 31.7728 108.499 31.6912 108.448 31.6125C108.399 31.5318 108.327 31.4652 108.231 31.4127C108.138 31.3602 108.022 31.3339 107.885 31.3339C107.741 31.3339 107.624 31.3564 107.534 31.4014C107.446 31.4446 107.381 31.4999 107.34 31.5674C107.3 31.635 107.28 31.7062 107.28 31.7813C107.28 31.8376 107.29 31.8882 107.309 31.9332C107.329 31.9764 107.365 32.0167 107.416 32.0542C107.466 32.0899 107.537 32.1236 107.629 32.1555C107.721 32.1874 107.839 32.2193 107.981 32.2512C108.231 32.3074 108.436 32.375 108.597 32.4538C108.759 32.5325 108.879 32.6291 108.957 32.7436C109.036 32.858 109.076 32.9968 109.076 33.16C109.076 33.2932 109.047 33.4151 108.991 33.5258C108.937 33.6365 108.857 33.7321 108.752 33.8128C108.649 33.8916 108.525 33.9535 108.381 33.9985C108.238 34.0416 108.078 34.0632 107.899 34.0632C107.631 34.0632 107.404 34.0154 107.219 33.9197C107.033 33.824 106.892 33.7002 106.796 33.5483C106.701 33.3964 106.653 33.236 106.653 33.0672H107.176C107.184 33.2097 107.225 33.3232 107.3 33.4076C107.375 33.4901 107.467 33.5492 107.576 33.5849C107.685 33.6186 107.793 33.6355 107.899 33.6355C108.042 33.6355 108.161 33.6168 108.257 33.5792C108.354 33.5417 108.428 33.4901 108.479 33.4245C108.53 33.3588 108.555 33.2838 108.555 33.1994Z" fill="black"/>
<path d="M111.023 34.0632C110.811 34.0632 110.618 34.0276 110.446 33.9563C110.275 33.8831 110.128 33.7809 110.004 33.6496C109.882 33.5183 109.788 33.3626 109.723 33.1825C109.657 33.0024 109.624 32.8055 109.624 32.5916V32.4735C109.624 32.2258 109.661 32.0054 109.734 31.8122C109.807 31.6171 109.907 31.4521 110.032 31.317C110.158 31.182 110.301 31.0797 110.46 31.0103C110.619 30.9409 110.784 30.9062 110.955 30.9062C111.173 30.9062 111.36 30.9437 111.518 31.0188C111.677 31.0938 111.808 31.1988 111.909 31.3339C112.01 31.4671 112.085 31.6247 112.134 31.8066C112.183 31.9867 112.207 32.1836 112.207 32.3975V32.631H109.934V32.2062H111.687V32.1668C111.679 32.0317 111.651 31.9004 111.602 31.7728C111.555 31.6453 111.48 31.5402 111.377 31.4577C111.274 31.3752 111.133 31.3339 110.955 31.3339C110.837 31.3339 110.728 31.3592 110.629 31.4099C110.529 31.4586 110.444 31.5318 110.373 31.6293C110.301 31.7269 110.246 31.846 110.207 31.9867C110.167 32.1274 110.148 32.2896 110.148 32.4735V32.5916C110.148 32.7361 110.167 32.8721 110.207 32.9996C110.248 33.1253 110.307 33.236 110.384 33.3316C110.463 33.4273 110.558 33.5023 110.668 33.5567C110.781 33.6111 110.908 33.6383 111.051 33.6383C111.235 33.6383 111.39 33.6008 111.518 33.5258C111.645 33.4508 111.757 33.3504 111.853 33.2247L112.168 33.4751C112.102 33.5746 112.019 33.6693 111.917 33.7593C111.816 33.8494 111.691 33.9225 111.543 33.9788C111.397 34.0351 111.223 34.0632 111.023 34.0632Z" fill="black"/>
<path d="M112.823 33.7312C112.823 33.643 112.851 33.5689 112.905 33.5089C112.961 33.447 113.042 33.4161 113.147 33.4161C113.252 33.4161 113.332 33.447 113.386 33.5089C113.443 33.5689 113.471 33.643 113.471 33.7312C113.471 33.8175 113.443 33.8906 113.386 33.9507C113.332 34.0107 113.252 34.0407 113.147 34.0407C113.042 34.0407 112.961 34.0107 112.905 33.9507C112.851 33.8906 112.823 33.8175 112.823 33.7312Z" fill="black"/>
<defs>
<filter id="filter0_i_1_1580" x="4.93652" y="12.7409" width="24.9595" height="2.4035" filterUnits="userSpaceOnUse" color-interpolation-filters="sRGB">
<feFlood flood-opacity="0" result="BackgroundImageFix"/>
<feBlend mode="normal" in="SourceGraphic" in2="BackgroundImageFix" result="shape"/>
<feColorMatrix in="SourceAlpha" type="matrix" values="0 0 0 0 0 0 0 0 0 0 0 0 0 0 0 0 0 0 127 0" result="hardAlpha"/>
<feOffset dy="6"/>
<feComposite in2="hardAlpha" operator="arithmetic" k2="-1" k3="1"/>
<feColorMatrix type="matrix" values="0 0 0 0 0 0 0 0 0 0 0 0 0 0 0 0 0 0 0.25 0"/>
<feBlend mode="normal" in2="shape" result="effect1_innerShadow_1_1580"/>
</filter>
<linearGradient id="paint0_linear_1_1580" x1="3.32857" y1="16.1269" x2="28.3806" y2="31.1026" gradientUnits="userSpaceOnUse">
<stop stop-color="#844A36"/>
<stop offset="1" stop-color="#78412E"/>
</linearGradient>
<linearGradient id="paint1_linear_1_1580" x1="16.4733" y1="16.4387" x2="16.4733" y2="38.9124" gradientUnits="userSpaceOnUse">
<stop stop-color="#C07352"/>
<stop offset="1" stop-color="#A55E3F"/>
</linearGradient>
<linearGradient id="paint2_linear_1_1580" x1="32.4237" y1="14.405" x2="32.4237" y2="31.8766" gradientUnits="userSpaceOnUse">
<stop stop-color="#844A36"/>
<stop offset="1" stop-color="#5F3424"/>
</linearGradient>
<linearGradient id="paint3_linear_1_1580" x1="17.3773" y1="14.1277" x2="17.3773" y2="29.5656" gradientUnits="userSpaceOnUse">
<stop stop-color="#CB754F"/>
<stop offset="1" stop-color="#8A4C30"/>
</linearGradient>
</defs>
</svg>
