<svg width="130" height="43" viewBox="0 0 130 43" fill="none" xmlns="http://www.w3.org/2000/svg">
<path d="M26.8631 40.9961C26.8631 41.7039 22.6751 42.2985 17.5273 42.2985C16.7202 42.2985 15.9349 42.2702 15.1933 42.2702C11.1579 42.1286 8.19141 41.619 8.19141 41.0244C8.19141 36.1828 19.4032 34.2859 24.8127 37.8533C25.8161 38.5045 26.8631 39.5238 26.8631 40.9961Z" fill="#784440"/>
<path d="M24.8127 37.825C22.3261 37.7401 18.4652 38.3347 15.1933 42.2702C11.158 42.1287 8.19144 41.619 8.19144 41.0244C8.16963 36.1829 19.3814 34.2859 24.8127 37.825Z" fill="#814742"/>
<path d="M0.499349 18.0098C-1.42346 12.1674 6.41565 11.9086 11.5924 11.9086C5.45422 11.9086 3.91969 13.9731 3.82725 14.9592C4.10458 22.6319 20.4669 28.3634 29.9885 29.5651L32.9467 31.8762C12.1471 30.6744 2.65635 22.0465 0.499349 18.0098Z" fill="url(#paint0_linear_11_209)"/>
<path d="M9.37337 37.3303C0.868634 34.0763 -0.487222 22.4778 0.129063 16.4382C1.09047 20.7276 7.30878 24.7581 10.2978 26.2372C18.5391 30.4526 28.8615 31.7221 32.9463 31.8762C30.4503 37.9774 18.895 40.9733 9.37337 37.3303Z" fill="url(#paint1_linear_11_209)"/>
<path d="M30.9127 14.4045C31.2085 25.2019 30.4505 29.0105 29.9883 29.5652L32.9464 31.8762C34.8693 28.7701 34.9802 18.9342 34.7953 14.4045H30.9127Z" fill="url(#paint2_linear_11_209)"/>
<path d="M10.021 23.0017C4.10462 19.7477 3.08774 15.9761 4.01216 14.1272C14.8095 16.8635 26.4141 15.5447 30.913 14.4045C31.3567 24.6842 30.5432 28.7332 29.9886 29.5651C22.2973 29.0475 13.4721 24.943 10.021 23.0017Z" fill="url(#paint3_linear_11_209)"/>
<path d="M34.8874 14.4046C33.4083 12.038 18.6791 11.7545 11.4993 11.9086C6.98813 11.9086 4.65857 13.1104 4.01147 14.1272C5.4166 15.3105 12.393 15.7912 15.7517 15.8836C21.5201 16.1795 28.2623 15.0209 30.9123 14.4046H34.8874Z" fill="#6C3C2B"/>
<g filter="url(#filter0_i_11_209)">
<ellipse cx="17.416" cy="13.9422" rx="12.4798" ry="1.20176" fill="#303030"/>
</g>
<path d="M25.3951 2.11006C24.9511 5.2209 24.9508 8.37897 25.3939 11.4899L25.6993 13.6337C25.6993 14.1697 21.9576 14.6386 17.3642 14.6386C15.9953 14.6386 14.7177 14.6051 13.5921 14.5381C10.8848 14.3707 9.02915 13.5667 9.08999 13.4997C9.71554 9.07766 9.71337 4.58945 9.08356 0.168039L9.05957 -0.000366211H25.6993L25.3951 2.11006Z" fill="#CA7B57"/>
<path d="M49.3564 24.6424H54.6002C57.4431 24.6424 59.1142 23.1633 59.1142 20.916C59.1142 19.6098 58.5187 18.4765 56.79 17.8042C56.5787 17.7274 56.4827 17.42 56.7516 17.324C57.9617 16.863 58.6724 15.9602 58.6724 14.5964C58.6724 12.4067 56.6555 11.1965 54.1969 11.1965H49.3564C48.6264 11.1965 48.2039 11.6575 48.2039 12.2146C48.2039 12.4259 48.2615 12.6372 48.3959 12.8485C48.7225 13.3863 48.9146 14.001 48.9146 14.9422V20.8967C48.9146 21.838 48.7225 22.4526 48.3959 22.9905C48.2615 23.2017 48.2039 23.413 48.2039 23.6243C48.2039 24.1814 48.6264 24.6424 49.3564 24.6424ZM52.641 16.4596C52.3337 16.4596 52.1416 16.2675 52.1416 15.9602V14.001C52.1416 13.6936 52.3144 13.5015 52.641 13.5015H53.7551C54.6387 13.5015 55.2725 14.0202 55.2725 14.9806C55.2725 15.941 54.6387 16.4596 53.7551 16.4596H52.641ZM52.641 22.3374C52.3337 22.3374 52.1416 22.1645 52.1416 21.838V19.264C52.1416 18.9567 52.3337 18.7646 52.641 18.7646H53.9472C55.0228 18.7646 55.7335 19.4561 55.7335 20.551C55.7335 21.6459 55.0228 22.3374 53.9472 22.3374H52.641Z" fill="white"/>
<path d="M65.0527 24.9113C67.7611 24.9113 69.9893 22.9328 69.9893 19.725C69.9893 16.5172 67.8187 14.5772 65.0527 14.5772C62.3443 14.5772 60.1162 16.5172 60.1162 19.725C60.1162 22.9328 62.2867 24.9113 65.0527 24.9113ZM65.2064 22.5871C63.9194 22.5871 63.2087 21.0888 63.2087 19.1872C63.2087 17.6697 63.9002 16.8822 64.8798 16.8822C66.1668 16.8822 66.8967 18.342 66.8967 20.2629C66.8967 21.7995 66.186 22.5871 65.2064 22.5871Z" fill="white"/>
<path d="M74.2703 24.9113C75.807 24.9113 76.9979 23.9701 76.9979 22.9136C76.9979 22.4334 76.7674 22.1837 76.4217 22.1837C76.0183 22.1837 75.7494 22.4142 75.2692 22.4142C74.885 22.4142 74.6353 22.1453 74.6353 21.6843V17.2472C74.6353 16.9975 74.7697 16.863 75.0195 16.863H76.1335C76.5561 16.863 76.8058 16.6133 76.8058 16.1907V15.5184C76.8058 15.0958 76.5561 14.8461 76.1335 14.8461H75.0579C74.7889 14.8461 74.6353 14.6925 74.6353 14.4235V13.7512C74.6353 13.1558 74.1167 12.81 73.5596 13.1558L70.7936 14.8461C70.4287 15.0766 70.275 15.2687 70.275 15.6913V16.1907C70.275 16.6133 70.5247 16.863 70.9473 16.863H71.1778C71.4275 16.863 71.562 16.9975 71.562 17.2472V21.9532C71.562 23.9317 72.6952 24.9113 74.2703 24.9113Z" fill="white"/>
<path d="M78.8442 24.6424H81.1876C81.9175 24.6424 82.3401 24.1814 82.3401 23.6243C82.3401 23.413 82.2825 23.2017 82.148 22.9905C81.8022 22.4526 81.6294 21.838 81.6294 20.8967V20.2629C81.6294 19.9171 81.8215 19.725 82.1672 19.725H83.3581C86.393 19.725 87.9681 17.9963 87.9681 15.4608C87.9681 12.9253 86.393 11.1965 83.3581 11.1965H78.8442C78.1142 11.1965 77.6917 11.6575 77.6917 12.2146C77.6917 12.4259 77.7493 12.6372 77.8837 12.8485C78.2103 13.3863 78.4024 14.001 78.4024 14.9422V20.8967C78.4024 21.838 78.2103 22.4526 77.8837 22.9905C77.7493 23.2017 77.6917 23.413 77.6917 23.6243C77.6917 24.1814 78.1142 24.6424 78.8442 24.6424ZM82.1672 17.42C81.8215 17.42 81.6294 17.228 81.6294 16.8822V14.0394C81.6294 13.6936 81.8215 13.5015 82.1672 13.5015H83.0316C84.1841 13.5015 84.8564 14.1738 84.8564 15.4608C84.8564 16.7477 84.1841 17.42 83.0316 17.42H82.1672Z" fill="white"/>
<path d="M93.0961 24.9113C95.8045 24.9113 98.0327 22.9328 98.0327 19.725C98.0327 16.5172 95.8622 14.5772 93.0961 14.5772C90.3878 14.5772 88.1596 16.5172 88.1596 19.725C88.1596 22.9328 90.3302 24.9113 93.0961 24.9113ZM93.2498 22.5871C91.9629 22.5871 91.2522 21.0888 91.2522 19.1872C91.2522 17.6697 91.9436 16.8822 92.9233 16.8822C94.2102 16.8822 94.9402 18.342 94.9402 20.2629C94.9402 21.7995 94.2294 22.5871 93.2498 22.5871Z" fill="white"/>
<path d="M102.314 24.9113C103.85 24.9113 105.041 23.9701 105.041 22.9136C105.041 22.4334 104.811 22.1837 104.465 22.1837C104.062 22.1837 103.793 22.4142 103.313 22.4142C102.928 22.4142 102.679 22.1453 102.679 21.6843V17.2472C102.679 16.9975 102.813 16.863 103.063 16.863H104.177C104.6 16.863 104.849 16.6133 104.849 16.1907V15.5184C104.849 15.0958 104.6 14.8461 104.177 14.8461H103.101C102.832 14.8461 102.679 14.6925 102.679 14.4235V13.7512C102.679 13.1558 102.16 12.81 101.603 13.1558L98.837 14.8461C98.4721 15.0766 98.3184 15.2687 98.3184 15.6913V16.1907C98.3184 16.6133 98.5681 16.863 98.9907 16.863H99.2212C99.4709 16.863 99.6054 16.9975 99.6054 17.2472V21.9532C99.6054 23.9317 100.739 24.9113 102.314 24.9113Z" fill="white"/>
<path d="M109.423 24.9113C110.96 24.9113 112.151 23.9701 112.151 22.9136C112.151 22.4334 111.92 22.1837 111.574 22.1837C111.171 22.1837 110.902 22.4142 110.422 22.4142C110.038 22.4142 109.788 22.1453 109.788 21.6843V17.2472C109.788 16.9975 109.923 16.863 110.172 16.863H111.286C111.709 16.863 111.959 16.6133 111.959 16.1907V15.5184C111.959 15.0958 111.709 14.8461 111.286 14.8461H110.211C109.942 14.8461 109.788 14.6925 109.788 14.4235V13.7512C109.788 13.1558 109.269 12.81 108.712 13.1558L105.946 14.8461C105.581 15.0766 105.428 15.2687 105.428 15.6913V16.1907C105.428 16.6133 105.677 16.863 106.1 16.863H106.331C106.58 16.863 106.715 16.9975 106.715 17.2472V21.9532C106.715 23.9317 107.848 24.9113 109.423 24.9113Z" fill="white"/>
<path d="M117.275 24.9113C119.331 24.9113 120.579 23.8932 121.309 22.491C121.732 21.6651 120.867 20.916 119.984 21.6075C119.369 22.0877 118.658 22.4334 117.775 22.4334C116.661 22.4334 115.777 21.5882 115.566 20.5894C115.527 20.3781 115.623 20.2629 115.816 20.2629H120.848C121.463 20.2629 121.809 19.9747 121.809 19.1488C121.809 16.7093 120.31 14.5772 117.352 14.5772C114.317 14.5772 112.339 16.8438 112.339 19.725C112.339 22.9328 114.317 24.9113 117.275 24.9113ZM115.873 18.4189C115.662 18.4189 115.566 18.2844 115.643 18.0923C115.95 17.3048 116.545 16.863 117.295 16.863C118.121 16.863 118.697 17.3048 118.774 17.9963C118.812 18.2652 118.678 18.4189 118.428 18.4189H115.873Z" fill="white"/>
<path d="M123.482 24.6424H125.441C126.133 24.6424 126.44 24.239 126.248 23.5667C126.094 23.0289 125.998 22.5871 125.998 21.7611V19.0912C125.998 18.0539 126.286 17.3432 126.786 17.3432C127.362 17.3432 127.42 18.5533 128.476 18.5533C130.435 18.5533 130.589 14.5772 128.399 14.5772C127.535 14.5772 127.016 14.9998 126.382 15.7873C126.152 16.0755 125.998 15.9218 125.998 15.6913V15.4416C125.998 14.7885 125.633 14.4427 124.769 14.6156L123.271 14.9037C122.752 14.9998 122.483 15.5568 122.675 16.0178C122.79 16.2867 122.925 16.6901 122.925 17.2087V21.7611C122.925 22.5871 122.829 23.0289 122.675 23.5667C122.483 24.239 122.79 24.6424 123.482 24.6424Z" fill="white"/>
<path d="M48.7999 29.9097V34.0064H48.2568V29.9097H48.7999ZM50.5163 31.7527V32.1972H48.6817V31.7527H50.5163ZM50.7948 29.9097V30.3542H48.6817V29.9097H50.7948Z" fill="white"/>
<path d="M51.1634 32.518V32.4533C51.1634 32.2338 51.1953 32.0303 51.2591 31.8427C51.3229 31.6532 51.4148 31.4891 51.5348 31.3503C51.6549 31.2096 51.8002 31.1008 51.9709 31.0239C52.1416 30.9451 52.333 30.9057 52.5449 30.9057C52.7588 30.9057 52.9511 30.9451 53.1218 31.0239C53.2943 31.1008 53.4406 31.2096 53.5607 31.3503C53.6826 31.4891 53.7755 31.6532 53.8393 31.8427C53.903 32.0303 53.9349 32.2338 53.9349 32.4533V32.518C53.9349 32.7375 53.903 32.941 53.8393 33.1286C53.7755 33.3161 53.6826 33.4803 53.5607 33.621C53.4406 33.7598 53.2953 33.8686 53.1246 33.9474C52.9558 34.0243 52.7644 34.0627 52.5506 34.0627C52.3367 34.0627 52.1445 34.0243 51.9738 33.9474C51.8031 33.8686 51.6567 33.7598 51.5348 33.621C51.4148 33.4803 51.3229 33.3161 51.2591 33.1286C51.1953 32.941 51.1634 32.7375 51.1634 32.518ZM51.6839 32.4533V32.518C51.6839 32.6699 51.7018 32.8134 51.7374 32.9485C51.773 33.0817 51.8265 33.1998 51.8978 33.303C51.9709 33.4062 52.0619 33.4878 52.1707 33.5478C52.2795 33.606 52.4061 33.635 52.5506 33.635C52.6931 33.635 52.8179 33.606 52.9248 33.5478C53.0336 33.4878 53.1236 33.4062 53.1949 33.303C53.2662 33.1998 53.3197 33.0817 53.3553 32.9485C53.3928 32.8134 53.4116 32.6699 53.4116 32.518V32.4533C53.4116 32.3032 53.3928 32.1616 53.3553 32.0284C53.3197 31.8933 53.2653 31.7742 53.1921 31.6711C53.1208 31.566 53.0308 31.4835 52.922 31.4235C52.8151 31.3634 52.6894 31.3334 52.5449 31.3334C52.4024 31.3334 52.2767 31.3634 52.1679 31.4235C52.061 31.4835 51.9709 31.566 51.8978 31.6711C51.8265 31.7742 51.773 31.8933 51.7374 32.0284C51.7018 32.1616 51.6839 32.3032 51.6839 32.4533Z" fill="white"/>
<path d="M55.1082 31.4403V34.0064H54.5877V30.962H55.0942L55.1082 31.4403ZM56.0593 30.9451L56.0565 31.4291C56.0133 31.4197 55.9721 31.4141 55.9327 31.4122C55.8952 31.4084 55.852 31.4066 55.8032 31.4066C55.6832 31.4066 55.5772 31.4253 55.4853 31.4628C55.3934 31.5004 55.3155 31.5529 55.2517 31.6204C55.188 31.6879 55.1373 31.7686 55.0998 31.8624C55.0642 31.9543 55.0407 32.0556 55.0295 32.1663L54.8832 32.2507C54.8832 32.0669 54.901 31.8943 54.9366 31.733C54.9741 31.5716 55.0313 31.4291 55.1082 31.3053C55.1852 31.1796 55.2827 31.0821 55.4009 31.0126C55.5209 30.9414 55.6635 30.9057 55.8286 30.9057C55.8661 30.9057 55.9092 30.9104 55.958 30.9198C56.0068 30.9273 56.0405 30.9357 56.0593 30.9451Z" fill="white"/>
<path d="M57.0582 31.567V34.0064H56.5348V30.962H57.03L57.0582 31.567ZM56.9512 32.3689L56.7093 32.3604C56.7111 32.1522 56.7383 31.9599 56.7909 31.7836C56.8434 31.6054 56.9212 31.4506 57.0244 31.3193C57.1276 31.188 57.2561 31.0867 57.4099 31.0155C57.5637 30.9423 57.7419 30.9057 57.9445 30.9057C58.087 30.9057 58.2183 30.9264 58.3384 30.9676C58.4585 31.007 58.5626 31.0699 58.6507 31.1561C58.7389 31.2424 58.8074 31.3531 58.8561 31.4882C58.9049 31.6232 58.9293 31.7864 58.9293 31.9778V34.0064H58.4087V32.0031C58.4087 31.8436 58.3815 31.7161 58.3271 31.6204C58.2746 31.5247 58.1996 31.4553 58.102 31.4122C58.0045 31.3672 57.8901 31.3447 57.7588 31.3447C57.605 31.3447 57.4765 31.3719 57.3733 31.4263C57.2701 31.4807 57.1876 31.5557 57.1257 31.6514C57.0638 31.747 57.0188 31.8568 56.9906 31.9806C56.9644 32.1025 56.9512 32.2319 56.9512 32.3689ZM58.9237 32.0819L58.5748 32.1888C58.5766 32.0218 58.6038 31.8615 58.6564 31.7076C58.7107 31.5538 58.7886 31.4169 58.8899 31.2968C58.9931 31.1768 59.1197 31.0821 59.2697 31.0126C59.4198 30.9414 59.5914 30.9057 59.7847 30.9057C59.9478 30.9057 60.0923 30.9273 60.218 30.9704C60.3455 31.0136 60.4524 31.0802 60.5387 31.1702C60.6269 31.2584 60.6935 31.3719 60.7385 31.5107C60.7835 31.6495 60.806 31.8146 60.806 32.0059V34.0064H60.2827V32.0003C60.2827 31.8296 60.2555 31.6973 60.2011 31.6035C60.1486 31.5079 60.0735 31.4413 59.976 31.4038C59.8803 31.3644 59.7659 31.3447 59.6327 31.3447C59.5183 31.3447 59.417 31.3644 59.3288 31.4038C59.2407 31.4431 59.1666 31.4975 59.1065 31.567C59.0465 31.6345 59.0006 31.7123 58.9687 31.8005C58.9387 31.8887 58.9237 31.9824 58.9237 32.0819Z" fill="white"/>
<path d="M63.8786 33.6913L64.7255 30.962H65.2827L64.0615 34.4763C64.0334 34.5514 63.9959 34.632 63.949 34.7183C63.9039 34.8065 63.8458 34.89 63.7745 34.9687C63.7032 35.0475 63.6169 35.1113 63.5156 35.1601C63.4162 35.2107 63.2971 35.236 63.1583 35.236C63.117 35.236 63.0645 35.2304 63.0007 35.2192C62.937 35.2079 62.8919 35.1985 62.8657 35.191L62.8629 34.769C62.8779 34.7708 62.9013 34.7727 62.9332 34.7746C62.967 34.7783 62.9904 34.7802 63.0035 34.7802C63.1217 34.7802 63.2221 34.7643 63.3046 34.7324C63.3872 34.7024 63.4566 34.6508 63.5128 34.5776C63.571 34.5064 63.6207 34.4079 63.662 34.2822L63.8786 33.6913ZM63.2568 30.962L64.0474 33.3255L64.1825 33.8742L63.8083 34.0655L62.6884 30.962H63.2568Z" fill="white"/>
<path d="M65.5697 32.518V32.4533C65.5697 32.2338 65.6016 32.0303 65.6653 31.8427C65.7291 31.6532 65.821 31.4891 65.9411 31.3503C66.0611 31.2096 66.2065 31.1008 66.3772 31.0239C66.5479 30.9451 66.7392 30.9057 66.9512 30.9057C67.165 30.9057 67.3573 30.9451 67.528 31.0239C67.7006 31.1008 67.8469 31.2096 67.967 31.3503C68.0889 31.4891 68.1817 31.6532 68.2455 31.8427C68.3093 32.0303 68.3412 32.2338 68.3412 32.4533V32.518C68.3412 32.7375 68.3093 32.941 68.2455 33.1286C68.1817 33.3161 68.0889 33.4803 67.967 33.621C67.8469 33.7598 67.7015 33.8686 67.5308 33.9474C67.362 34.0243 67.1707 34.0627 66.9568 34.0627C66.743 34.0627 66.5507 34.0243 66.38 33.9474C66.2093 33.8686 66.063 33.7598 65.9411 33.621C65.821 33.4803 65.7291 33.3161 65.6653 33.1286C65.6016 32.941 65.5697 32.7375 65.5697 32.518ZM66.0902 32.4533V32.518C66.0902 32.6699 66.108 32.8134 66.1437 32.9485C66.1793 33.0817 66.2328 33.1998 66.304 33.303C66.3772 33.4062 66.4682 33.4878 66.577 33.5478C66.6858 33.606 66.8124 33.635 66.9568 33.635C67.0994 33.635 67.2241 33.606 67.3311 33.5478C67.4398 33.4878 67.5299 33.4062 67.6012 33.303C67.6725 33.1998 67.7259 33.0817 67.7616 32.9485C67.7991 32.8134 67.8178 32.6699 67.8178 32.518V32.4533C67.8178 32.3032 67.7991 32.1616 67.7616 32.0284C67.7259 31.8933 67.6715 31.7742 67.5984 31.6711C67.5271 31.566 67.437 31.4835 67.3282 31.4235C67.2213 31.3634 67.0956 31.3334 66.9512 31.3334C66.8086 31.3334 66.683 31.3634 66.5742 31.4235C66.4672 31.4835 66.3772 31.566 66.304 31.6711C66.2328 31.7742 66.1793 31.8933 66.1437 32.0284C66.108 32.1616 66.0902 32.3032 66.0902 32.4533Z" fill="white"/>
<path d="M70.8566 33.303V30.962H71.38V34.0064H70.882L70.8566 33.303ZM70.9551 32.6615L71.1718 32.6559C71.1718 32.8584 71.1502 33.046 71.1071 33.2186C71.0658 33.3893 70.9983 33.5375 70.9045 33.6632C70.8107 33.7889 70.6878 33.8873 70.5359 33.9586C70.3839 34.028 70.1992 34.0627 69.9816 34.0627C69.8334 34.0627 69.6974 34.0411 69.5736 33.998C69.4517 33.9549 69.3466 33.8883 69.2585 33.7982C69.1703 33.7082 69.1018 33.591 69.0531 33.4465C69.0062 33.3021 68.9827 33.1286 68.9827 32.926V30.962H69.5032V32.9316C69.5032 33.0685 69.5183 33.182 69.5483 33.2721C69.5802 33.3602 69.6224 33.4306 69.6749 33.4831C69.7293 33.5337 69.7893 33.5694 69.855 33.59C69.9225 33.6106 69.9919 33.621 70.0632 33.621C70.2845 33.621 70.4599 33.5788 70.5893 33.4943C70.7188 33.4081 70.8116 33.2927 70.8679 33.1483C70.9261 33.0019 70.9551 32.8397 70.9551 32.6615Z" fill="white"/>
<path d="M72.694 31.4403V34.0064H72.1735V30.962H72.6799L72.694 31.4403ZM73.645 30.9451L73.6422 31.4291C73.5991 31.4197 73.5578 31.4141 73.5184 31.4122C73.4809 31.4084 73.4378 31.4066 73.389 31.4066C73.2689 31.4066 73.163 31.4253 73.071 31.4628C72.9791 31.5004 72.9013 31.5529 72.8375 31.6204C72.7737 31.6879 72.7231 31.7686 72.6856 31.8624C72.6499 31.9543 72.6265 32.0556 72.6152 32.1663L72.4689 32.2507C72.4689 32.0669 72.4867 31.8943 72.5224 31.733C72.5599 31.5716 72.6171 31.4291 72.694 31.3053C72.7709 31.1796 72.8685 31.0821 72.9866 31.0126C73.1067 30.9414 73.2492 30.9057 73.4143 30.9057C73.4518 30.9057 73.495 30.9104 73.5438 30.9198C73.5925 30.9273 73.6263 30.9357 73.645 30.9451Z" fill="white"/>
<path d="M75.5527 29.6846H76.0761V33.4156L76.0311 34.0064H75.5527V29.6846ZM78.1329 32.4589V32.518C78.1329 32.7393 78.1067 32.9447 78.0541 33.1342C78.0016 33.3218 77.9247 33.485 77.8234 33.6238C77.7221 33.7626 77.5983 33.8705 77.452 33.9474C77.3057 34.0243 77.1378 34.0627 76.9484 34.0627C76.7551 34.0627 76.5854 34.0299 76.4391 33.9642C76.2946 33.8967 76.1727 33.8001 76.0733 33.6744C75.9739 33.5487 75.8941 33.3968 75.8341 33.2186C75.776 33.0404 75.7356 32.8397 75.7131 32.6165V32.3576C75.7356 32.1325 75.776 31.9309 75.8341 31.7527C75.8941 31.5745 75.9739 31.4225 76.0733 31.2968C76.1727 31.1693 76.2946 31.0727 76.4391 31.007C76.5835 30.9395 76.7514 30.9057 76.9427 30.9057C77.1341 30.9057 77.3038 30.9432 77.452 31.0183C77.6002 31.0914 77.724 31.1965 77.8234 31.3334C77.9247 31.4703 78.0016 31.6345 78.0541 31.8258C78.1067 32.0153 78.1329 32.2263 78.1329 32.4589ZM77.6096 32.518V32.4589C77.6096 32.307 77.5955 32.1644 77.5674 32.0312C77.5392 31.8962 77.4942 31.778 77.4323 31.6767C77.3704 31.5735 77.2888 31.4929 77.1875 31.4347C77.0862 31.3747 76.9615 31.3447 76.8133 31.3447C76.682 31.3447 76.5676 31.3672 76.47 31.4122C76.3744 31.4572 76.2928 31.5182 76.2252 31.5951C76.1577 31.6701 76.1024 31.7564 76.0592 31.8539C76.018 31.9496 75.987 32.049 75.9664 32.1522V32.8303C75.9964 32.9616 76.0451 33.0882 76.1127 33.2102C76.1821 33.3302 76.274 33.4287 76.3884 33.5056C76.5047 33.5825 76.6482 33.621 76.8189 33.621C76.9596 33.621 77.0797 33.5928 77.1791 33.5366C77.2804 33.4784 77.362 33.3987 77.4239 33.2974C77.4876 33.1961 77.5345 33.0789 77.5646 32.9457C77.5946 32.8125 77.6096 32.6699 77.6096 32.518Z" fill="white"/>
<path d="M78.6535 32.518V32.4533C78.6535 32.2338 78.6854 32.0303 78.7491 31.8427C78.8129 31.6532 78.9048 31.4891 79.0249 31.3503C79.1449 31.2096 79.2903 31.1008 79.461 31.0239C79.6317 30.9451 79.823 30.9057 80.035 30.9057C80.2488 30.9057 80.4411 30.9451 80.6118 31.0239C80.7844 31.1008 80.9307 31.2096 81.0508 31.3503C81.1727 31.4891 81.2655 31.6532 81.3293 31.8427C81.3931 32.0303 81.425 32.2338 81.425 32.4533V32.518C81.425 32.7375 81.3931 32.941 81.3293 33.1286C81.2655 33.3161 81.1727 33.4803 81.0508 33.621C80.9307 33.7598 80.7853 33.8686 80.6146 33.9474C80.4458 34.0243 80.2545 34.0627 80.0406 34.0627C79.8268 34.0627 79.6345 34.0243 79.4638 33.9474C79.2931 33.8686 79.1468 33.7598 79.0249 33.621C78.9048 33.4803 78.8129 33.3161 78.7491 33.1286C78.6854 32.941 78.6535 32.7375 78.6535 32.518ZM79.174 32.4533V32.518C79.174 32.6699 79.1918 32.8134 79.2275 32.9485C79.2631 33.0817 79.3166 33.1998 79.3878 33.303C79.461 33.4062 79.552 33.4878 79.6608 33.5478C79.7696 33.606 79.8962 33.635 80.0406 33.635C80.1832 33.635 80.3079 33.606 80.4149 33.5478C80.5237 33.4878 80.6137 33.4062 80.685 33.303C80.7563 33.1998 80.8097 33.0817 80.8454 32.9485C80.8829 32.8134 80.9016 32.6699 80.9016 32.518V32.4533C80.9016 32.3032 80.8829 32.1616 80.8454 32.0284C80.8097 31.8933 80.7553 31.7742 80.6822 31.6711C80.6109 31.566 80.5208 31.4835 80.412 31.4235C80.3051 31.3634 80.1794 31.3334 80.035 31.3334C79.8924 31.3334 79.7668 31.3634 79.658 31.4235C79.551 31.4835 79.461 31.566 79.3878 31.6711C79.3166 31.7742 79.2631 31.8933 79.2275 32.0284C79.1918 32.1616 79.174 32.3032 79.174 32.4533Z" fill="white"/>
<path d="M83.3524 30.962V31.3615H81.7064V30.962H83.3524ZM82.2635 30.222H82.784V33.2524C82.784 33.3555 82.8 33.4334 82.8318 33.4859C82.8637 33.5384 82.905 33.5731 82.9557 33.59C83.0063 33.6069 83.0607 33.6153 83.1188 33.6153C83.162 33.6153 83.207 33.6116 83.2539 33.6041C83.3027 33.5947 83.3393 33.5872 83.3636 33.5816L83.3665 34.0064C83.3252 34.0196 83.2708 34.0318 83.2033 34.043C83.1376 34.0562 83.0579 34.0627 82.9641 34.0627C82.8365 34.0627 82.7193 34.0374 82.6124 33.9868C82.5055 33.9361 82.4201 33.8517 82.3563 33.7335C82.2944 33.6135 82.2635 33.4521 82.2635 33.2496V30.222Z" fill="white"/>
<path d="M85.7356 33.1989C85.7356 33.1239 85.7187 33.0545 85.685 32.9907C85.6531 32.925 85.5865 32.866 85.4852 32.8134C85.3858 32.759 85.2357 32.7121 85.035 32.6727C84.8662 32.6371 84.7133 32.5949 84.5764 32.5461C84.4413 32.4974 84.3259 32.4383 84.2303 32.3689C84.1365 32.2995 84.0643 32.2179 84.0136 32.1241C83.963 32.0303 83.9376 31.9205 83.9376 31.7949C83.9376 31.6748 83.9639 31.5613 84.0164 31.4544C84.0708 31.3475 84.1468 31.2528 84.2443 31.1702C84.3438 31.0877 84.4629 31.023 84.6017 30.9761C84.7405 30.9292 84.8952 30.9057 85.0659 30.9057C85.3098 30.9057 85.518 30.9489 85.6906 31.0352C85.8632 31.1214 85.9954 31.2368 86.0873 31.3812C86.1792 31.5238 86.2252 31.6823 86.2252 31.8568H85.7047C85.7047 31.7724 85.6793 31.6908 85.6287 31.612C85.5799 31.5313 85.5077 31.4647 85.412 31.4122C85.3182 31.3597 85.2029 31.3334 85.0659 31.3334C84.9215 31.3334 84.8043 31.3559 84.7142 31.4009C84.6261 31.4441 84.5613 31.4994 84.5201 31.567C84.4807 31.6345 84.461 31.7058 84.461 31.7808C84.461 31.8371 84.4704 31.8877 84.4891 31.9327C84.5098 31.9759 84.5454 32.0162 84.596 32.0537C84.6467 32.0894 84.718 32.1231 84.8099 32.155C84.9018 32.1869 85.019 32.2188 85.1616 32.2507C85.4111 32.307 85.6165 32.3745 85.7778 32.4533C85.9391 32.5321 86.0592 32.6287 86.138 32.7431C86.2168 32.8575 86.2561 32.9963 86.2561 33.1595C86.2561 33.2927 86.228 33.4146 86.1717 33.5253C86.1173 33.636 86.0376 33.7316 85.9326 33.8123C85.8294 33.8911 85.7056 33.953 85.5612 33.998C85.4186 34.0411 85.2582 34.0627 85.08 34.0627C84.8118 34.0627 84.5848 34.0149 84.3991 33.9192C84.2134 33.8236 84.0727 33.6998 83.977 33.5478C83.8814 33.3959 83.8335 33.2355 83.8335 33.0667H84.3569C84.3644 33.2092 84.4057 33.3227 84.4807 33.4071C84.5557 33.4897 84.6476 33.5487 84.7564 33.5844C84.8652 33.6182 84.9731 33.635 85.08 33.635C85.2226 33.635 85.3417 33.6163 85.4374 33.5788C85.5349 33.5412 85.609 33.4897 85.6596 33.424C85.7103 33.3584 85.7356 33.2833 85.7356 33.1989Z" fill="white"/>
<path d="M89.1402 33.4662L89.9224 30.962H90.2657L90.1982 31.46L89.4019 34.0064H89.0671L89.1402 33.4662ZM88.614 30.962L89.2809 33.4943L89.3287 34.0064H88.977L88.0935 30.962H88.614ZM91.0141 33.4747L91.65 30.962H92.1678L91.2843 34.0064H90.9354L91.0141 33.4747ZM90.3417 30.962L91.107 33.424L91.1942 34.0064H90.8622L90.0434 31.4544L89.9759 30.962H90.3417Z" fill="white"/>
<path d="M93.2679 30.962V34.0064H92.7446V30.962H93.2679ZM92.7052 30.1545C92.7052 30.0701 92.7305 29.9988 92.7812 29.9406C92.8337 29.8825 92.9106 29.8534 93.0119 29.8534C93.1113 29.8534 93.1873 29.8825 93.2398 29.9406C93.2942 29.9988 93.3214 30.0701 93.3214 30.1545C93.3214 30.2351 93.2942 30.3045 93.2398 30.3627C93.1873 30.419 93.1113 30.4471 93.0119 30.4471C92.9106 30.4471 92.8337 30.419 92.7812 30.3627C92.7305 30.3045 92.7052 30.2351 92.7052 30.1545Z" fill="white"/>
<path d="M95.3782 30.962V31.3615H93.7322V30.962H95.3782ZM94.2893 30.222H94.8099V33.2524C94.8099 33.3555 94.8258 33.4334 94.8577 33.4859C94.8896 33.5384 94.9308 33.5731 94.9815 33.59C95.0321 33.6069 95.0865 33.6153 95.1447 33.6153C95.1878 33.6153 95.2329 33.6116 95.2797 33.6041C95.3285 33.5947 95.3651 33.5872 95.3895 33.5816L95.3923 34.0064C95.351 34.0196 95.2966 34.0318 95.2291 34.043C95.1634 34.0562 95.0837 34.0627 94.9899 34.0627C94.8624 34.0627 94.7451 34.0374 94.6382 33.9868C94.5313 33.9361 94.4459 33.8517 94.3822 33.7335C94.3203 33.6135 94.2893 33.4521 94.2893 33.2496V30.222Z" fill="white"/>
<path d="M96.5093 29.6846V34.0064H95.9888V29.6846H96.5093ZM96.3855 32.3689L96.1689 32.3604C96.1708 32.1522 96.2017 31.9599 96.2617 31.7836C96.3218 31.6054 96.4062 31.4506 96.515 31.3193C96.6238 31.188 96.7532 31.0867 96.9033 31.0155C97.0552 30.9423 97.2231 30.9057 97.4069 30.9057C97.557 30.9057 97.692 30.9264 97.8121 30.9676C97.9321 31.007 98.0344 31.0708 98.1188 31.159C98.2051 31.2471 98.2707 31.3615 98.3158 31.5022C98.3608 31.641 98.3833 31.8108 98.3833 32.0115V34.0064H97.8599V32.0059C97.8599 31.8464 97.8365 31.7189 97.7896 31.6232C97.7427 31.5257 97.6742 31.4553 97.5842 31.4122C97.4941 31.3672 97.3835 31.3447 97.2522 31.3447C97.1227 31.3447 97.0046 31.3719 96.8976 31.4263C96.7926 31.4807 96.7016 31.5557 96.6247 31.6514C96.5497 31.747 96.4906 31.8568 96.4474 31.9806C96.4062 32.1025 96.3855 32.2319 96.3855 32.3689Z" fill="white"/>
<path d="M101.855 34.0627C101.643 34.0627 101.451 34.0271 101.279 33.9558C101.108 33.8826 100.961 33.7804 100.837 33.6491C100.715 33.5178 100.621 33.3621 100.555 33.182C100.49 33.0019 100.457 32.805 100.457 32.5911V32.473C100.457 32.2254 100.494 32.005 100.567 31.8117C100.64 31.6167 100.739 31.4516 100.865 31.3165C100.991 31.1815 101.133 31.0792 101.293 31.0098C101.452 30.9404 101.617 30.9057 101.788 30.9057C102.005 30.9057 102.193 30.9432 102.351 31.0183C102.51 31.0933 102.64 31.1984 102.742 31.3334C102.843 31.4666 102.918 31.6242 102.967 31.8061C103.016 31.9862 103.04 32.1832 103.04 32.397V32.6305H100.767V32.2057H102.519V32.1663C102.512 32.0312 102.484 31.8999 102.435 31.7724C102.388 31.6448 102.313 31.5398 102.21 31.4572C102.107 31.3747 101.966 31.3334 101.788 31.3334C101.67 31.3334 101.561 31.3587 101.461 31.4094C101.362 31.4582 101.277 31.5313 101.205 31.6289C101.134 31.7264 101.079 31.8455 101.039 31.9862C101 32.1269 100.98 32.2891 100.98 32.473V32.5911C100.98 32.7356 101 32.8716 101.039 32.9991C101.081 33.1248 101.14 33.2355 101.217 33.3312C101.295 33.4268 101.39 33.5019 101.501 33.5563C101.613 33.6106 101.741 33.6378 101.884 33.6378C102.067 33.6378 102.223 33.6003 102.351 33.5253C102.478 33.4503 102.59 33.3499 102.685 33.2242L103.001 33.4747C102.935 33.5741 102.851 33.6688 102.75 33.7588C102.649 33.8489 102.524 33.922 102.376 33.9783C102.23 34.0346 102.056 34.0627 101.855 34.0627Z" fill="white"/>
<path d="M105.443 33.4859V31.9187C105.443 31.7986 105.419 31.6945 105.37 31.6063C105.323 31.5163 105.252 31.4469 105.156 31.3981C105.06 31.3494 104.942 31.325 104.801 31.325C104.67 31.325 104.555 31.3475 104.455 31.3925C104.358 31.4375 104.281 31.4966 104.225 31.5698C104.17 31.6429 104.143 31.7217 104.143 31.8061H103.622C103.622 31.6973 103.651 31.5895 103.707 31.4825C103.763 31.3756 103.844 31.279 103.949 31.1927C104.056 31.1046 104.183 31.0352 104.331 30.9845C104.482 30.932 104.649 30.9057 104.832 30.9057C105.054 30.9057 105.249 30.9432 105.418 31.0183C105.588 31.0933 105.721 31.2068 105.817 31.3587C105.915 31.5088 105.963 31.6973 105.963 31.9243V33.3424C105.963 33.4437 105.972 33.5516 105.989 33.666C106.008 33.7804 106.035 33.8789 106.07 33.9614V34.0064H105.527C105.501 33.9464 105.48 33.8667 105.465 33.7673C105.45 33.666 105.443 33.5722 105.443 33.4859ZM105.533 32.1606L105.539 32.5264H105.012C104.864 32.5264 104.732 32.5386 104.616 32.563C104.499 32.5855 104.402 32.6202 104.323 32.6671C104.244 32.714 104.184 32.7731 104.143 32.8444C104.102 32.9138 104.081 32.9954 104.081 33.0892C104.081 33.1848 104.103 33.2721 104.146 33.3508C104.189 33.4296 104.254 33.4925 104.34 33.5394C104.428 33.5844 104.536 33.6069 104.664 33.6069C104.823 33.6069 104.964 33.5731 105.086 33.5056C105.207 33.4381 105.304 33.3555 105.375 33.258C105.449 33.1605 105.488 33.0657 105.494 32.9738L105.716 33.2242C105.703 33.303 105.667 33.3902 105.609 33.4859C105.551 33.5816 105.473 33.6735 105.375 33.7617C105.28 33.8479 105.165 33.9202 105.032 33.9783C104.901 34.0346 104.753 34.0627 104.588 34.0627C104.381 34.0627 104.2 34.0224 104.044 33.9417C103.891 33.8611 103.771 33.7532 103.684 33.6182C103.6 33.4812 103.558 33.3283 103.558 33.1595C103.558 32.9963 103.59 32.8528 103.653 32.729C103.717 32.6033 103.809 32.4992 103.929 32.4167C104.049 32.3323 104.194 32.2685 104.362 32.2254C104.531 32.1822 104.72 32.1606 104.928 32.1606H105.533Z" fill="white"/>
<path d="M108.555 33.1989C108.555 33.1239 108.538 33.0545 108.504 32.9907C108.472 32.925 108.406 32.866 108.304 32.8134C108.205 32.759 108.055 32.7121 107.854 32.6727C107.685 32.6371 107.533 32.5949 107.396 32.5461C107.261 32.4974 107.145 32.4383 107.05 32.3689C106.956 32.2995 106.884 32.2179 106.833 32.1241C106.782 32.0303 106.757 31.9205 106.757 31.7949C106.757 31.6748 106.783 31.5613 106.836 31.4544C106.89 31.3475 106.966 31.2528 107.064 31.1702C107.163 31.0877 107.282 31.023 107.421 30.9761C107.56 30.9292 107.715 30.9057 107.885 30.9057C108.129 30.9057 108.337 30.9489 108.51 31.0352C108.682 31.1214 108.815 31.2368 108.907 31.3812C108.999 31.5238 109.044 31.6823 109.044 31.8568H108.524C108.524 31.7724 108.499 31.6908 108.448 31.612C108.399 31.5313 108.327 31.4647 108.231 31.4122C108.138 31.3597 108.022 31.3334 107.885 31.3334C107.741 31.3334 107.624 31.3559 107.534 31.4009C107.445 31.4441 107.381 31.4994 107.339 31.567C107.3 31.6345 107.28 31.7058 107.28 31.7808C107.28 31.8371 107.29 31.8877 107.308 31.9327C107.329 31.9759 107.365 32.0162 107.415 32.0537C107.466 32.0894 107.537 32.1231 107.629 32.155C107.721 32.1869 107.838 32.2188 107.981 32.2507C108.23 32.307 108.436 32.3745 108.597 32.4533C108.758 32.5321 108.878 32.6287 108.957 32.7431C109.036 32.8575 109.075 32.9963 109.075 33.1595C109.075 33.2927 109.047 33.4146 108.991 33.5253C108.937 33.636 108.857 33.7316 108.752 33.8123C108.649 33.8911 108.525 33.953 108.38 33.998C108.238 34.0411 108.077 34.0627 107.899 34.0627C107.631 34.0627 107.404 34.0149 107.218 33.9192C107.033 33.8236 106.892 33.6998 106.796 33.5478C106.701 33.3959 106.653 33.2355 106.653 33.0667H107.176C107.184 33.2092 107.225 33.3227 107.3 33.4071C107.375 33.4897 107.467 33.5487 107.576 33.5844C107.685 33.6182 107.792 33.635 107.899 33.635C108.042 33.635 108.161 33.6163 108.257 33.5788C108.354 33.5412 108.428 33.4897 108.479 33.424C108.53 33.3584 108.555 33.2833 108.555 33.1989Z" fill="white"/>
<path d="M111.023 34.0627C110.811 34.0627 110.618 34.0271 110.446 33.9558C110.275 33.8826 110.128 33.7804 110.004 33.6491C109.882 33.5178 109.788 33.3621 109.723 33.182C109.657 33.0019 109.624 32.805 109.624 32.5911V32.473C109.624 32.2254 109.661 32.005 109.734 31.8117C109.807 31.6167 109.906 31.4516 110.032 31.3165C110.158 31.1815 110.3 31.0792 110.46 31.0098C110.619 30.9404 110.784 30.9057 110.955 30.9057C111.173 30.9057 111.36 30.9432 111.518 31.0183C111.677 31.0933 111.808 31.1984 111.909 31.3334C112.01 31.4666 112.085 31.6242 112.134 31.8061C112.183 31.9862 112.207 32.1832 112.207 32.397V32.6305H109.934V32.2057H111.687V32.1663C111.679 32.0312 111.651 31.8999 111.602 31.7724C111.555 31.6448 111.48 31.5398 111.377 31.4572C111.274 31.3747 111.133 31.3334 110.955 31.3334C110.837 31.3334 110.728 31.3587 110.629 31.4094C110.529 31.4582 110.444 31.5313 110.373 31.6289C110.301 31.7264 110.246 31.8455 110.207 31.9862C110.167 32.1269 110.147 32.2891 110.147 32.473V32.5911C110.147 32.7356 110.167 32.8716 110.207 32.9991C110.248 33.1248 110.307 33.2355 110.384 33.3312C110.463 33.4268 110.557 33.5019 110.668 33.5563C110.781 33.6106 110.908 33.6378 111.051 33.6378C111.234 33.6378 111.39 33.6003 111.518 33.5253C111.645 33.4503 111.757 33.3499 111.853 33.2242L112.168 33.4747C112.102 33.5741 112.019 33.6688 111.917 33.7588C111.816 33.8489 111.691 33.922 111.543 33.9783C111.397 34.0346 111.223 34.0627 111.023 34.0627Z" fill="white"/>
<path d="M112.823 33.7307C112.823 33.6425 112.851 33.5684 112.905 33.5084C112.961 33.4465 113.042 33.4156 113.147 33.4156C113.252 33.4156 113.332 33.4465 113.386 33.5084C113.442 33.5684 113.47 33.6425 113.47 33.7307C113.47 33.817 113.442 33.8901 113.386 33.9502C113.332 34.0102 113.252 34.0402 113.147 34.0402C113.042 34.0402 112.961 34.0102 112.905 33.9502C112.851 33.8901 112.823 33.817 112.823 33.7307Z" fill="white"/>
<defs>
<filter id="filter0_i_11_209" x="4.93628" y="12.7405" width="24.9595" height="2.40356" filterUnits="userSpaceOnUse" color-interpolation-filters="sRGB">
<feFlood flood-opacity="0" result="BackgroundImageFix"/>
<feBlend mode="normal" in="SourceGraphic" in2="BackgroundImageFix" result="shape"/>
<feColorMatrix in="SourceAlpha" type="matrix" values="0 0 0 0 0 0 0 0 0 0 0 0 0 0 0 0 0 0 127 0" result="hardAlpha"/>
<feOffset dy="6"/>
<feComposite in2="hardAlpha" operator="arithmetic" k2="-1" k3="1"/>
<feColorMatrix type="matrix" values="0 0 0 0 0 0 0 0 0 0 0 0 0 0 0 0 0 0 0.25 0"/>
<feBlend mode="normal" in2="shape" result="effect1_innerShadow_11_209"/>
</filter>
<linearGradient id="paint0_linear_11_209" x1="3.32839" y1="16.1265" x2="28.3804" y2="31.1022" gradientUnits="userSpaceOnUse">
<stop stop-color="#844A36"/>
<stop offset="1" stop-color="#78412E"/>
</linearGradient>
<linearGradient id="paint1_linear_11_209" x1="16.4731" y1="16.4382" x2="16.4731" y2="38.912" gradientUnits="userSpaceOnUse">
<stop stop-color="#C07352"/>
<stop offset="1" stop-color="#A55E3F"/>
</linearGradient>
<linearGradient id="paint2_linear_11_209" x1="32.4235" y1="14.4045" x2="32.4235" y2="31.8762" gradientUnits="userSpaceOnUse">
<stop stop-color="#844A36"/>
<stop offset="1" stop-color="#5F3424"/>
</linearGradient>
<linearGradient id="paint3_linear_11_209" x1="17.3772" y1="14.1272" x2="17.3772" y2="29.5651" gradientUnits="userSpaceOnUse">
<stop stop-color="#CB754F"/>
<stop offset="1" stop-color="#8A4C30"/>
</linearGradient>
</defs>
</svg>
