<svg width="130" height="43" viewBox="0 0 130 43" fill="none" xmlns="http://www.w3.org/2000/svg">
<path d="M26.8631 40.9967C26.8631 41.7045 22.6751 42.2991 17.5273 42.2991C16.7202 42.2991 15.9349 42.2708 15.1933 42.2708C11.1579 42.1292 8.19141 41.6196 8.19141 41.025C8.19141 36.1834 19.4032 34.2865 24.8127 37.8539C25.8161 38.5051 26.8631 39.5244 26.8631 40.9967Z" fill="#784440"/>
<path d="M24.8127 37.8254C22.3261 37.7405 18.4652 38.3351 15.1933 42.2706C11.158 42.129 8.19144 41.6194 8.19144 41.0248C8.16963 36.1832 19.3814 34.2863 24.8127 37.8254Z" fill="#814742"/>
<path d="M0.499349 18.0104C-1.42346 12.168 6.41565 11.9092 11.5924 11.9092C5.45422 11.9092 3.91969 13.9737 3.82725 14.9598C4.10458 22.6325 20.4669 28.364 29.9885 29.5657L32.9467 31.8768C12.1471 30.6751 2.65635 22.0471 0.499349 18.0104Z" fill="url(#paint0_linear_7253_23788)"/>
<path d="M9.37337 37.3305C0.868634 34.0766 -0.487222 22.4781 0.129063 16.4385C1.09047 20.7278 7.30878 24.7583 10.2978 26.2374C18.5391 30.4528 28.8615 31.7223 32.9463 31.8764C30.4503 37.9776 18.895 40.9736 9.37337 37.3305Z" fill="url(#paint1_linear_7253_23788)"/>
<path d="M30.9127 14.4048C31.2085 25.2021 30.4505 29.0107 29.9883 29.5654L32.9464 31.8765C34.8693 28.7704 34.9802 18.9345 34.7953 14.4048H30.9127Z" fill="url(#paint2_linear_7253_23788)"/>
<path d="M10.021 23.0019C4.10462 19.748 3.08774 15.9763 4.01216 14.1274C14.8095 16.8637 26.4141 15.5449 30.913 14.4048C31.3567 24.6844 30.5432 28.7334 29.9886 29.5654C22.2973 29.0477 13.4721 24.9432 10.021 23.0019Z" fill="url(#paint3_linear_7253_23788)"/>
<path d="M34.8876 14.4049C33.4085 12.0384 18.6793 11.7549 11.4996 11.909C6.98838 11.909 4.65882 13.1107 4.01172 14.1276C5.41685 15.3109 12.3932 15.7916 15.7519 15.884C21.5204 16.1798 28.2625 15.0212 30.9126 14.4049H34.8876Z" fill="#6C3C2B"/>
<g filter="url(#filter0_i_7253_23788)">
<ellipse cx="17.4163" cy="13.9425" rx="12.4798" ry="1.20176" fill="#303030"/>
</g>
<path d="M25.3951 2.11043C24.9511 5.22126 24.9508 8.37934 25.3939 11.4903L25.6993 13.634C25.6993 14.17 21.9576 14.639 17.3642 14.639C15.9953 14.639 14.7177 14.6055 13.5921 14.5385C10.8848 14.371 9.02915 13.567 9.08999 13.5001C9.71554 9.07803 9.71337 4.58982 9.08356 0.168405L9.05957 0H25.6993L25.3951 2.11043Z" fill="#CA7B57"/>
<path d="M49.3566 24.6426H54.6005C57.4433 24.6426 59.1144 23.1636 59.1144 20.9162C59.1144 19.61 58.519 18.4767 56.7902 17.8044C56.5789 17.7276 56.4829 17.4203 56.7518 17.3242C57.9619 16.8632 58.6726 15.9604 58.6726 14.5967C58.6726 12.4069 56.6558 11.1968 54.1971 11.1968H49.3566C48.6267 11.1968 48.2041 11.6578 48.2041 12.2148C48.2041 12.4261 48.2617 12.6374 48.3962 12.8487C48.7227 13.3865 48.9148 14.0012 48.9148 14.9424V20.897C48.9148 21.8382 48.7227 22.4529 48.3962 22.9907C48.2617 23.202 48.2041 23.4133 48.2041 23.6246C48.2041 24.1816 48.6267 24.6426 49.3566 24.6426ZM52.6412 16.4599C52.3339 16.4599 52.1418 16.2678 52.1418 15.9604V14.0012C52.1418 13.6939 52.3147 13.5018 52.6412 13.5018H53.7553C54.6389 13.5018 55.2728 14.0204 55.2728 14.9808C55.2728 15.9412 54.6389 16.4599 53.7553 16.4599H52.6412ZM52.6412 22.3376C52.3339 22.3376 52.1418 22.1647 52.1418 21.8382V19.2643C52.1418 18.9569 52.3339 18.7649 52.6412 18.7649H53.9474C55.0231 18.7649 55.7338 19.4564 55.7338 20.5512C55.7338 21.6461 55.0231 22.3376 53.9474 22.3376H52.6412Z" fill="#181818"/>
<path d="M65.053 24.9115C67.7613 24.9115 69.9895 22.9331 69.9895 19.7253C69.9895 16.5175 67.819 14.5774 65.053 14.5774C62.3446 14.5774 60.1164 16.5175 60.1164 19.7253C60.1164 22.9331 62.287 24.9115 65.053 24.9115ZM65.2066 22.5873C63.9197 22.5873 63.209 21.0891 63.209 19.1874C63.209 17.67 63.9005 16.8824 64.8801 16.8824C66.1671 16.8824 66.897 18.3423 66.897 20.2631C66.897 21.7998 66.1863 22.5873 65.2066 22.5873Z" fill="#181818"/>
<path d="M74.2706 24.9115C75.8072 24.9115 76.9982 23.9703 76.9982 22.9139C76.9982 22.4337 76.7677 22.1839 76.4219 22.1839C76.0185 22.1839 75.7496 22.4144 75.2694 22.4144C74.8852 22.4144 74.6355 22.1455 74.6355 21.6845V17.2474C74.6355 16.9977 74.77 16.8632 75.0197 16.8632H76.1338C76.5564 16.8632 76.8061 16.6135 76.8061 16.1909V15.5187C76.8061 15.0961 76.5564 14.8464 76.1338 14.8464H75.0581C74.7892 14.8464 74.6355 14.6927 74.6355 14.4238V13.7515C74.6355 13.156 74.1169 12.8103 73.5599 13.156L70.7939 14.8464C70.4289 15.0769 70.2752 15.2689 70.2752 15.6915V16.1909C70.2752 16.6135 70.5249 16.8632 70.9475 16.8632H71.178C71.4277 16.8632 71.5622 16.9977 71.5622 17.2474V21.9534C71.5622 23.9319 72.6955 24.9115 74.2706 24.9115Z" fill="#181818"/>
<path d="M78.8444 24.6426H81.1878C81.9177 24.6426 82.3403 24.1816 82.3403 23.6246C82.3403 23.4133 82.2827 23.202 82.1482 22.9907C81.8025 22.4529 81.6296 21.8382 81.6296 20.897V20.2631C81.6296 19.9174 81.8217 19.7253 82.1675 19.7253H83.3584C86.3933 19.7253 87.9684 17.9965 87.9684 15.461C87.9684 12.9255 86.3933 11.1968 83.3584 11.1968H78.8444C78.1145 11.1968 77.6919 11.6578 77.6919 12.2148C77.6919 12.4261 77.7495 12.6374 77.884 12.8487C78.2105 13.3865 78.4026 14.0012 78.4026 14.9424V20.897C78.4026 21.8382 78.2105 22.4529 77.884 22.9907C77.7495 23.202 77.6919 23.4133 77.6919 23.6246C77.6919 24.1816 78.1145 24.6426 78.8444 24.6426ZM82.1675 17.4203C81.8217 17.4203 81.6296 17.2282 81.6296 16.8824V14.0396C81.6296 13.6939 81.8217 13.5018 82.1675 13.5018H83.0318C84.1843 13.5018 84.8566 14.1741 84.8566 15.461C84.8566 16.748 84.1843 17.4203 83.0318 17.4203H82.1675Z" fill="#181818"/>
<path d="M93.0964 24.9115C95.8048 24.9115 98.0329 22.9331 98.0329 19.7253C98.0329 16.5175 95.8624 14.5774 93.0964 14.5774C90.388 14.5774 88.1599 16.5175 88.1599 19.7253C88.1599 22.9331 90.3304 24.9115 93.0964 24.9115ZM93.2501 22.5873C91.9631 22.5873 91.2524 21.0891 91.2524 19.1874C91.2524 17.67 91.9439 16.8824 92.9235 16.8824C94.2105 16.8824 94.9404 18.3423 94.9404 20.2631C94.9404 21.7998 94.2297 22.5873 93.2501 22.5873Z" fill="#181818"/>
<path d="M102.314 24.9115C103.851 24.9115 105.042 23.9703 105.042 22.9139C105.042 22.4337 104.811 22.1839 104.465 22.1839C104.062 22.1839 103.793 22.4144 103.313 22.4144C102.929 22.4144 102.679 22.1455 102.679 21.6845V17.2474C102.679 16.9977 102.813 16.8632 103.063 16.8632H104.177C104.6 16.8632 104.85 16.6135 104.85 16.1909V15.5187C104.85 15.0961 104.6 14.8464 104.177 14.8464H103.102C102.833 14.8464 102.679 14.6927 102.679 14.4238V13.7515C102.679 13.156 102.16 12.8103 101.603 13.156L98.8373 14.8464C98.4723 15.0769 98.3187 15.2689 98.3187 15.6915V16.1909C98.3187 16.6135 98.5684 16.8632 98.991 16.8632H99.2215C99.4712 16.8632 99.6056 16.9977 99.6056 17.2474V21.9534C99.6056 23.9319 100.739 24.9115 102.314 24.9115Z" fill="#181818"/>
<path d="M109.423 24.9115C110.96 24.9115 112.151 23.9703 112.151 22.9139C112.151 22.4337 111.92 22.1839 111.575 22.1839C111.171 22.1839 110.902 22.4144 110.422 22.4144C110.038 22.4144 109.788 22.1455 109.788 21.6845V17.2474C109.788 16.9977 109.923 16.8632 110.172 16.8632H111.287C111.709 16.8632 111.959 16.6135 111.959 16.1909V15.5187C111.959 15.0961 111.709 14.8464 111.287 14.8464H110.211C109.942 14.8464 109.788 14.6927 109.788 14.4238V13.7515C109.788 13.156 109.27 12.8103 108.713 13.156L105.947 14.8464C105.582 15.0769 105.428 15.2689 105.428 15.6915V16.1909C105.428 16.6135 105.678 16.8632 106.1 16.8632H106.331C106.581 16.8632 106.715 16.9977 106.715 17.2474V21.9534C106.715 23.9319 107.848 24.9115 109.423 24.9115Z" fill="#181818"/>
<path d="M117.276 24.9115C119.331 24.9115 120.579 23.8935 121.309 22.4913C121.732 21.6653 120.868 20.9162 119.984 21.6077C119.369 22.0879 118.659 22.4337 117.775 22.4337C116.661 22.4337 115.777 21.5885 115.566 20.5897C115.528 20.3784 115.624 20.2631 115.816 20.2631H120.848C121.463 20.2631 121.809 19.975 121.809 19.149C121.809 16.7096 120.311 14.5774 117.352 14.5774C114.318 14.5774 112.339 16.844 112.339 19.7253C112.339 22.9331 114.318 24.9115 117.276 24.9115ZM115.873 18.4191C115.662 18.4191 115.566 18.2847 115.643 18.0926C115.95 17.305 116.546 16.8632 117.295 16.8632C118.121 16.8632 118.697 17.305 118.774 17.9965C118.812 18.2654 118.678 18.4191 118.428 18.4191H115.873Z" fill="#181818"/>
<path d="M123.482 24.6426H125.441C126.133 24.6426 126.44 24.2392 126.248 23.5669C126.094 23.0291 125.998 22.5873 125.998 21.7614V19.0914C125.998 18.0542 126.286 17.3434 126.786 17.3434C127.362 17.3434 127.42 18.5536 128.476 18.5536C130.435 18.5536 130.589 14.5774 128.399 14.5774C127.535 14.5774 127.016 15 126.382 15.7876C126.152 16.0757 125.998 15.922 125.998 15.6915V15.4418C125.998 14.7887 125.633 14.443 124.769 14.6159L123.271 14.904C122.752 15 122.483 15.5571 122.675 16.0181C122.791 16.287 122.925 16.6904 122.925 17.209V21.7614C122.925 22.5873 122.829 23.0291 122.675 23.5669C122.483 24.2392 122.791 24.6426 123.482 24.6426Z" fill="#181818"/>
<path d="M48.7999 29.9102V34.0069H48.2568V29.9102H48.7999ZM50.5163 31.7531V32.1977H48.6817V31.7531H50.5163ZM50.7948 29.9102V30.3547H48.6817V29.9102H50.7948Z" fill="black"/>
<path d="M51.1634 32.5185V32.4538C51.1634 32.2343 51.1953 32.0308 51.2591 31.8432C51.3229 31.6537 51.4148 31.4896 51.5348 31.3508C51.6549 31.2101 51.8002 31.1013 51.9709 31.0244C52.1416 30.9456 52.333 30.9062 52.5449 30.9062C52.7588 30.9062 52.9511 30.9456 53.1218 31.0244C53.2943 31.1013 53.4406 31.2101 53.5607 31.3508C53.6826 31.4896 53.7755 31.6537 53.8393 31.8432C53.903 32.0308 53.9349 32.2343 53.9349 32.4538V32.5185C53.9349 32.7379 53.903 32.9415 53.8393 33.1291C53.7755 33.3166 53.6826 33.4808 53.5607 33.6215C53.4406 33.7603 53.2953 33.8691 53.1246 33.9478C52.9558 34.0248 52.7644 34.0632 52.5506 34.0632C52.3367 34.0632 52.1445 34.0248 51.9738 33.9478C51.8031 33.8691 51.6567 33.7603 51.5348 33.6215C51.4148 33.4808 51.3229 33.3166 51.2591 33.1291C51.1953 32.9415 51.1634 32.7379 51.1634 32.5185ZM51.6839 32.4538V32.5185C51.6839 32.6704 51.7018 32.8139 51.7374 32.949C51.773 33.0822 51.8265 33.2003 51.8978 33.3035C51.9709 33.4067 52.0619 33.4883 52.1707 33.5483C52.2795 33.6064 52.4061 33.6355 52.5506 33.6355C52.6931 33.6355 52.8179 33.6064 52.9248 33.5483C53.0336 33.4883 53.1236 33.4067 53.1949 33.3035C53.2662 33.2003 53.3197 33.0822 53.3553 32.949C53.3928 32.8139 53.4116 32.6704 53.4116 32.5185V32.4538C53.4116 32.3037 53.3928 32.1621 53.3553 32.0289C53.3197 31.8938 53.2653 31.7747 53.1921 31.6715C53.1208 31.5665 53.0308 31.484 52.922 31.4239C52.8151 31.3639 52.6894 31.3339 52.5449 31.3339C52.4024 31.3339 52.2767 31.3639 52.1679 31.4239C52.061 31.484 51.9709 31.5665 51.8978 31.6715C51.8265 31.7747 51.773 31.8938 51.7374 32.0289C51.7018 32.1621 51.6839 32.3037 51.6839 32.4538Z" fill="black"/>
<path d="M55.1082 31.4408V34.0069H54.5877V30.9625H55.0942L55.1082 31.4408ZM56.0593 30.9456L56.0565 31.4296C56.0133 31.4202 55.9721 31.4146 55.9327 31.4127C55.8952 31.4089 55.852 31.4071 55.8032 31.4071C55.6832 31.4071 55.5772 31.4258 55.4853 31.4633C55.3934 31.5008 55.3155 31.5534 55.2517 31.6209C55.188 31.6884 55.1373 31.7691 55.0998 31.8629C55.0642 31.9548 55.0407 32.0561 55.0295 32.1668L54.8832 32.2512C54.8832 32.0673 54.901 31.8948 54.9366 31.7334C54.9741 31.5721 55.0313 31.4296 55.1082 31.3058C55.1852 31.1801 55.2827 31.0825 55.4009 31.0131C55.5209 30.9419 55.6635 30.9062 55.8286 30.9062C55.8661 30.9062 55.9092 30.9109 55.958 30.9203C56.0068 30.9278 56.0405 30.9362 56.0593 30.9456Z" fill="black"/>
<path d="M57.0582 31.5674V34.0069H56.5348V30.9625H57.03L57.0582 31.5674ZM56.9512 32.3693L56.7093 32.3609C56.7111 32.1527 56.7383 31.9604 56.7909 31.7841C56.8434 31.6059 56.9212 31.4511 57.0244 31.3198C57.1276 31.1885 57.2561 31.0872 57.4099 31.0159C57.5637 30.9428 57.7419 30.9062 57.9445 30.9062C58.087 30.9062 58.2183 30.9268 58.3384 30.9681C58.4585 31.0075 58.5626 31.0703 58.6507 31.1566C58.7389 31.2429 58.8074 31.3536 58.8561 31.4887C58.9049 31.6237 58.9293 31.7869 58.9293 31.9782V34.0069H58.4087V32.0036C58.4087 31.8441 58.3815 31.7166 58.3271 31.6209C58.2746 31.5252 58.1996 31.4558 58.102 31.4127C58.0045 31.3677 57.8901 31.3452 57.7588 31.3452C57.605 31.3452 57.4765 31.3724 57.3733 31.4268C57.2701 31.4812 57.1876 31.5562 57.1257 31.6518C57.0638 31.7475 57.0188 31.8573 56.9906 31.9811C56.9644 32.103 56.9512 32.2324 56.9512 32.3693ZM58.9237 32.0823L58.5748 32.1893C58.5766 32.0223 58.6038 31.8619 58.6564 31.7081C58.7107 31.5543 58.7886 31.4174 58.8899 31.2973C58.9931 31.1773 59.1197 31.0825 59.2697 31.0131C59.4198 30.9419 59.5914 30.9062 59.7847 30.9062C59.9478 30.9062 60.0923 30.9278 60.218 30.9709C60.3455 31.0141 60.4524 31.0807 60.5387 31.1707C60.6269 31.2589 60.6935 31.3724 60.7385 31.5112C60.7835 31.65 60.806 31.815 60.806 32.0064V34.0069H60.2827V32.0008C60.2827 31.8301 60.2555 31.6978 60.2011 31.604C60.1486 31.5084 60.0735 31.4418 59.976 31.4042C59.8803 31.3649 59.7659 31.3452 59.6327 31.3452C59.5183 31.3452 59.417 31.3649 59.3288 31.4042C59.2407 31.4436 59.1666 31.498 59.1065 31.5674C59.0465 31.635 59.0006 31.7128 58.9687 31.801C58.9387 31.8891 58.9237 31.9829 58.9237 32.0823Z" fill="black"/>
<path d="M63.8786 33.6918L64.7255 30.9625H65.2827L64.0615 34.4768C64.0334 34.5519 63.9959 34.6325 63.949 34.7188C63.9039 34.807 63.8458 34.8904 63.7745 34.9692C63.7032 35.048 63.6169 35.1118 63.5156 35.1606C63.4162 35.2112 63.2971 35.2365 63.1583 35.2365C63.117 35.2365 63.0645 35.2309 63.0007 35.2196C62.937 35.2084 62.8919 35.199 62.8657 35.1915L62.8629 34.7695C62.8779 34.7713 62.9013 34.7732 62.9332 34.7751C62.967 34.7788 62.9904 34.7807 63.0035 34.7807C63.1217 34.7807 63.2221 34.7648 63.3046 34.7329C63.3872 34.7029 63.4566 34.6513 63.5128 34.5781C63.571 34.5068 63.6207 34.4084 63.662 34.2827L63.8786 33.6918ZM63.2568 30.9625L64.0474 33.326L64.1825 33.8747L63.8083 34.066L62.6884 30.9625H63.2568Z" fill="black"/>
<path d="M65.5697 32.5185V32.4538C65.5697 32.2343 65.6016 32.0308 65.6653 31.8432C65.7291 31.6537 65.821 31.4896 65.9411 31.3508C66.0611 31.2101 66.2065 31.1013 66.3772 31.0244C66.5479 30.9456 66.7392 30.9062 66.9512 30.9062C67.165 30.9062 67.3573 30.9456 67.528 31.0244C67.7006 31.1013 67.8469 31.2101 67.967 31.3508C68.0889 31.4896 68.1817 31.6537 68.2455 31.8432C68.3093 32.0308 68.3412 32.2343 68.3412 32.4538V32.5185C68.3412 32.7379 68.3093 32.9415 68.2455 33.1291C68.1817 33.3166 68.0889 33.4808 67.967 33.6215C67.8469 33.7603 67.7015 33.8691 67.5308 33.9478C67.362 34.0248 67.1707 34.0632 66.9568 34.0632C66.743 34.0632 66.5507 34.0248 66.38 33.9478C66.2093 33.8691 66.063 33.7603 65.9411 33.6215C65.821 33.4808 65.7291 33.3166 65.6653 33.1291C65.6016 32.9415 65.5697 32.7379 65.5697 32.5185ZM66.0902 32.4538V32.5185C66.0902 32.6704 66.108 32.8139 66.1437 32.949C66.1793 33.0822 66.2328 33.2003 66.304 33.3035C66.3772 33.4067 66.4682 33.4883 66.577 33.5483C66.6858 33.6064 66.8124 33.6355 66.9568 33.6355C67.0994 33.6355 67.2241 33.6064 67.3311 33.5483C67.4398 33.4883 67.5299 33.4067 67.6012 33.3035C67.6725 33.2003 67.7259 33.0822 67.7616 32.949C67.7991 32.8139 67.8178 32.6704 67.8178 32.5185V32.4538C67.8178 32.3037 67.7991 32.1621 67.7616 32.0289C67.7259 31.8938 67.6715 31.7747 67.5984 31.6715C67.5271 31.5665 67.437 31.484 67.3282 31.4239C67.2213 31.3639 67.0956 31.3339 66.9512 31.3339C66.8086 31.3339 66.683 31.3639 66.5742 31.4239C66.4672 31.484 66.3772 31.5665 66.304 31.6715C66.2328 31.7747 66.1793 31.8938 66.1437 32.0289C66.108 32.1621 66.0902 32.3037 66.0902 32.4538Z" fill="black"/>
<path d="M70.8566 33.3035V30.9625H71.38V34.0069H70.882L70.8566 33.3035ZM70.9551 32.662L71.1718 32.6563C71.1718 32.8589 71.1502 33.0465 71.1071 33.2191C71.0658 33.3898 70.9983 33.538 70.9045 33.6637C70.8107 33.7893 70.6878 33.8878 70.5359 33.9591C70.3839 34.0285 70.1992 34.0632 69.9816 34.0632C69.8334 34.0632 69.6974 34.0416 69.5736 33.9985C69.4517 33.9553 69.3466 33.8888 69.2585 33.7987C69.1703 33.7087 69.1018 33.5914 69.0531 33.447C69.0062 33.3026 68.9827 33.1291 68.9827 32.9265V30.9625H69.5032V32.9321C69.5032 33.069 69.5183 33.1825 69.5483 33.2726C69.5802 33.3607 69.6224 33.4311 69.6749 33.4836C69.7293 33.5342 69.7893 33.5699 69.855 33.5905C69.9225 33.6111 69.9919 33.6215 70.0632 33.6215C70.2845 33.6215 70.4599 33.5792 70.5893 33.4948C70.7188 33.4086 70.8116 33.2932 70.8679 33.1487C70.9261 33.0024 70.9551 32.8402 70.9551 32.662Z" fill="black"/>
<path d="M72.694 31.4408V34.0069H72.1735V30.9625H72.6799L72.694 31.4408ZM73.645 30.9456L73.6422 31.4296C73.5991 31.4202 73.5578 31.4146 73.5184 31.4127C73.4809 31.4089 73.4378 31.4071 73.389 31.4071C73.2689 31.4071 73.163 31.4258 73.071 31.4633C72.9791 31.5008 72.9013 31.5534 72.8375 31.6209C72.7737 31.6884 72.7231 31.7691 72.6856 31.8629C72.6499 31.9548 72.6265 32.0561 72.6152 32.1668L72.4689 32.2512C72.4689 32.0673 72.4867 31.8948 72.5224 31.7334C72.5599 31.5721 72.6171 31.4296 72.694 31.3058C72.7709 31.1801 72.8685 31.0825 72.9866 31.0131C73.1067 30.9419 73.2492 30.9062 73.4143 30.9062C73.4518 30.9062 73.495 30.9109 73.5438 30.9203C73.5925 30.9278 73.6263 30.9362 73.645 30.9456Z" fill="black"/>
<path d="M75.5527 29.6851H76.0761V33.4161L76.0311 34.0069H75.5527V29.6851ZM78.1329 32.4594V32.5185C78.1329 32.7398 78.1067 32.9452 78.0541 33.1347C78.0016 33.3223 77.9247 33.4855 77.8234 33.6243C77.7221 33.7631 77.5983 33.8709 77.452 33.9478C77.3057 34.0248 77.1378 34.0632 76.9484 34.0632C76.7551 34.0632 76.5854 34.0304 76.4391 33.9647C76.2946 33.8972 76.1727 33.8006 76.0733 33.6749C75.9739 33.5492 75.8941 33.3973 75.8341 33.2191C75.776 33.0409 75.7356 32.8402 75.7131 32.617V32.3581C75.7356 32.133 75.776 31.9313 75.8341 31.7531C75.8941 31.5749 75.9739 31.423 76.0733 31.2973C76.1727 31.1698 76.2946 31.0732 76.4391 31.0075C76.5835 30.94 76.7514 30.9062 76.9427 30.9062C77.1341 30.9062 77.3038 30.9437 77.452 31.0188C77.6002 31.0919 77.724 31.197 77.8234 31.3339C77.9247 31.4708 78.0016 31.635 78.0541 31.8263C78.1067 32.0158 78.1329 32.2268 78.1329 32.4594ZM77.6096 32.5185V32.4594C77.6096 32.3074 77.5955 32.1649 77.5674 32.0317C77.5392 31.8966 77.4942 31.7785 77.4323 31.6772C77.3704 31.574 77.2888 31.4933 77.1875 31.4352C77.0862 31.3752 76.9615 31.3452 76.8133 31.3452C76.682 31.3452 76.5676 31.3677 76.47 31.4127C76.3744 31.4577 76.2928 31.5187 76.2252 31.5956C76.1577 31.6706 76.1024 31.7569 76.0592 31.8544C76.018 31.9501 75.987 32.0495 75.9664 32.1527V32.8308C75.9964 32.9621 76.0451 33.0887 76.1127 33.2107C76.1821 33.3307 76.274 33.4292 76.3884 33.5061C76.5047 33.583 76.6482 33.6215 76.8189 33.6215C76.9596 33.6215 77.0797 33.5933 77.1791 33.537C77.2804 33.4789 77.362 33.3992 77.4239 33.2979C77.4876 33.1966 77.5345 33.0793 77.5646 32.9462C77.5946 32.813 77.6096 32.6704 77.6096 32.5185Z" fill="black"/>
<path d="M78.6535 32.5185V32.4538C78.6535 32.2343 78.6854 32.0308 78.7491 31.8432C78.8129 31.6537 78.9048 31.4896 79.0249 31.3508C79.1449 31.2101 79.2903 31.1013 79.461 31.0244C79.6317 30.9456 79.823 30.9062 80.035 30.9062C80.2488 30.9062 80.4411 30.9456 80.6118 31.0244C80.7844 31.1013 80.9307 31.2101 81.0508 31.3508C81.1727 31.4896 81.2655 31.6537 81.3293 31.8432C81.3931 32.0308 81.425 32.2343 81.425 32.4538V32.5185C81.425 32.7379 81.3931 32.9415 81.3293 33.1291C81.2655 33.3166 81.1727 33.4808 81.0508 33.6215C80.9307 33.7603 80.7853 33.8691 80.6146 33.9478C80.4458 34.0248 80.2545 34.0632 80.0406 34.0632C79.8268 34.0632 79.6345 34.0248 79.4638 33.9478C79.2931 33.8691 79.1468 33.7603 79.0249 33.6215C78.9048 33.4808 78.8129 33.3166 78.7491 33.1291C78.6854 32.9415 78.6535 32.7379 78.6535 32.5185ZM79.174 32.4538V32.5185C79.174 32.6704 79.1918 32.8139 79.2275 32.949C79.2631 33.0822 79.3166 33.2003 79.3878 33.3035C79.461 33.4067 79.552 33.4883 79.6608 33.5483C79.7696 33.6064 79.8962 33.6355 80.0406 33.6355C80.1832 33.6355 80.3079 33.6064 80.4149 33.5483C80.5237 33.4883 80.6137 33.4067 80.685 33.3035C80.7563 33.2003 80.8097 33.0822 80.8454 32.949C80.8829 32.8139 80.9016 32.6704 80.9016 32.5185V32.4538C80.9016 32.3037 80.8829 32.1621 80.8454 32.0289C80.8097 31.8938 80.7553 31.7747 80.6822 31.6715C80.6109 31.5665 80.5208 31.484 80.412 31.4239C80.3051 31.3639 80.1794 31.3339 80.035 31.3339C79.8924 31.3339 79.7668 31.3639 79.658 31.4239C79.551 31.484 79.461 31.5665 79.3878 31.6715C79.3166 31.7747 79.2631 31.8938 79.2275 32.0289C79.1918 32.1621 79.174 32.3037 79.174 32.4538Z" fill="black"/>
<path d="M83.3524 30.9625V31.362H81.7064V30.9625H83.3524ZM82.2635 30.2225H82.784V33.2529C82.784 33.356 82.8 33.4339 82.8318 33.4864C82.8637 33.5389 82.905 33.5736 82.9557 33.5905C83.0063 33.6074 83.0607 33.6158 83.1188 33.6158C83.162 33.6158 83.207 33.6121 83.2539 33.6046C83.3027 33.5952 83.3393 33.5877 83.3636 33.5821L83.3665 34.0069C83.3252 34.0201 83.2708 34.0323 83.2033 34.0435C83.1376 34.0566 83.0579 34.0632 82.9641 34.0632C82.8365 34.0632 82.7193 34.0379 82.6124 33.9872C82.5055 33.9366 82.4201 33.8522 82.3563 33.734C82.2944 33.614 82.2635 33.4526 82.2635 33.25V30.2225Z" fill="black"/>
<path d="M85.7356 33.1994C85.7356 33.1244 85.7187 33.055 85.685 32.9912C85.6531 32.9255 85.5865 32.8664 85.4852 32.8139C85.3858 32.7595 85.2357 32.7126 85.035 32.6732C84.8662 32.6376 84.7133 32.5954 84.5764 32.5466C84.4413 32.4978 84.3259 32.4388 84.2303 32.3693C84.1365 32.2999 84.0643 32.2183 84.0136 32.1246C83.963 32.0308 83.9376 31.921 83.9376 31.7953C83.9376 31.6753 83.9639 31.5618 84.0164 31.4549C84.0708 31.348 84.1468 31.2532 84.2443 31.1707C84.3438 31.0882 84.4629 31.0235 84.6017 30.9766C84.7405 30.9297 84.8952 30.9062 85.0659 30.9062C85.3098 30.9062 85.518 30.9494 85.6906 31.0356C85.8632 31.1219 85.9954 31.2373 86.0873 31.3817C86.1792 31.5243 86.2252 31.6828 86.2252 31.8573H85.7047C85.7047 31.7728 85.6793 31.6912 85.6287 31.6125C85.5799 31.5318 85.5077 31.4652 85.412 31.4127C85.3182 31.3602 85.2029 31.3339 85.0659 31.3339C84.9215 31.3339 84.8043 31.3564 84.7142 31.4014C84.6261 31.4446 84.5613 31.4999 84.5201 31.5674C84.4807 31.635 84.461 31.7062 84.461 31.7813C84.461 31.8376 84.4704 31.8882 84.4891 31.9332C84.5098 31.9764 84.5454 32.0167 84.596 32.0542C84.6467 32.0899 84.718 32.1236 84.8099 32.1555C84.9018 32.1874 85.019 32.2193 85.1616 32.2512C85.4111 32.3074 85.6165 32.375 85.7778 32.4538C85.9391 32.5325 86.0592 32.6291 86.138 32.7436C86.2168 32.858 86.2561 32.9968 86.2561 33.16C86.2561 33.2932 86.228 33.4151 86.1717 33.5258C86.1173 33.6365 86.0376 33.7321 85.9326 33.8128C85.8294 33.8916 85.7056 33.9535 85.5612 33.9985C85.4186 34.0416 85.2582 34.0632 85.08 34.0632C84.8118 34.0632 84.5848 34.0154 84.3991 33.9197C84.2134 33.824 84.0727 33.7002 83.977 33.5483C83.8814 33.3964 83.8335 33.236 83.8335 33.0672H84.3569C84.3644 33.2097 84.4057 33.3232 84.4807 33.4076C84.5557 33.4901 84.6476 33.5492 84.7564 33.5849C84.8652 33.6186 84.9731 33.6355 85.08 33.6355C85.2226 33.6355 85.3417 33.6168 85.4374 33.5792C85.5349 33.5417 85.609 33.4901 85.6596 33.4245C85.7103 33.3588 85.7356 33.2838 85.7356 33.1994Z" fill="black"/>
<path d="M89.1402 33.4667L89.9224 30.9625H90.2657L90.1982 31.4605L89.4019 34.0069H89.0671L89.1402 33.4667ZM88.614 30.9625L89.2809 33.4948L89.3287 34.0069H88.977L88.0935 30.9625H88.614ZM91.0141 33.4751L91.65 30.9625H92.1678L91.2843 34.0069H90.9354L91.0141 33.4751ZM90.3417 30.9625L91.107 33.4245L91.1942 34.0069H90.8622L90.0434 31.4549L89.9759 30.9625H90.3417Z" fill="black"/>
<path d="M93.2679 30.9625V34.0069H92.7446V30.9625H93.2679ZM92.7052 30.155C92.7052 30.0705 92.7305 29.9993 92.7812 29.9411C92.8337 29.883 92.9106 29.8539 93.0119 29.8539C93.1113 29.8539 93.1873 29.883 93.2398 29.9411C93.2942 29.9993 93.3214 30.0705 93.3214 30.155C93.3214 30.2356 93.2942 30.305 93.2398 30.3632C93.1873 30.4194 93.1113 30.4476 93.0119 30.4476C92.9106 30.4476 92.8337 30.4194 92.7812 30.3632C92.7305 30.305 92.7052 30.2356 92.7052 30.155Z" fill="black"/>
<path d="M95.3782 30.9625V31.362H93.7322V30.9625H95.3782ZM94.2893 30.2225H94.8099V33.2529C94.8099 33.356 94.8258 33.4339 94.8577 33.4864C94.8896 33.5389 94.9308 33.5736 94.9815 33.5905C95.0321 33.6074 95.0865 33.6158 95.1447 33.6158C95.1878 33.6158 95.2329 33.6121 95.2797 33.6046C95.3285 33.5952 95.3651 33.5877 95.3895 33.5821L95.3923 34.0069C95.351 34.0201 95.2966 34.0323 95.2291 34.0435C95.1634 34.0566 95.0837 34.0632 94.9899 34.0632C94.8624 34.0632 94.7451 34.0379 94.6382 33.9872C94.5313 33.9366 94.4459 33.8522 94.3822 33.734C94.3203 33.614 94.2893 33.4526 94.2893 33.25V30.2225Z" fill="black"/>
<path d="M96.5093 29.6851V34.0069H95.9888V29.6851H96.5093ZM96.3855 32.3693L96.1689 32.3609C96.1708 32.1527 96.2017 31.9604 96.2617 31.7841C96.3218 31.6059 96.4062 31.4511 96.515 31.3198C96.6238 31.1885 96.7532 31.0872 96.9033 31.0159C97.0552 30.9428 97.2231 30.9062 97.4069 30.9062C97.557 30.9062 97.692 30.9268 97.8121 30.9681C97.9322 31.0075 98.0344 31.0713 98.1188 31.1594C98.2051 31.2476 98.2707 31.362 98.3158 31.5027C98.3608 31.6415 98.3833 31.8113 98.3833 32.012V34.0069H97.8599V32.0064C97.8599 31.8469 97.8365 31.7194 97.7896 31.6237C97.7427 31.5262 97.6742 31.4558 97.5842 31.4127C97.4941 31.3677 97.3835 31.3452 97.2522 31.3452C97.1227 31.3452 97.0046 31.3724 96.8976 31.4268C96.7926 31.4812 96.7016 31.5562 96.6247 31.6518C96.5497 31.7475 96.4906 31.8573 96.4474 31.9811C96.4062 32.103 96.3855 32.2324 96.3855 32.3693Z" fill="black"/>
<path d="M101.855 34.0632C101.643 34.0632 101.451 34.0276 101.279 33.9563C101.108 33.8831 100.961 33.7809 100.837 33.6496C100.715 33.5183 100.621 33.3626 100.555 33.1825C100.49 33.0024 100.457 32.8055 100.457 32.5916V32.4735C100.457 32.2258 100.494 32.0054 100.567 31.8122C100.64 31.6171 100.739 31.4521 100.865 31.317C100.991 31.182 101.133 31.0797 101.293 31.0103C101.452 30.9409 101.617 30.9062 101.788 30.9062C102.005 30.9062 102.193 30.9437 102.351 31.0188C102.51 31.0938 102.64 31.1988 102.742 31.3339C102.843 31.4671 102.918 31.6247 102.967 31.8066C103.016 31.9867 103.04 32.1836 103.04 32.3975V32.631H100.767V32.2062H102.519V32.1668C102.512 32.0317 102.484 31.9004 102.435 31.7728C102.388 31.6453 102.313 31.5402 102.21 31.4577C102.107 31.3752 101.966 31.3339 101.788 31.3339C101.67 31.3339 101.561 31.3592 101.461 31.4099C101.362 31.4586 101.277 31.5318 101.205 31.6293C101.134 31.7269 101.079 31.846 101.039 31.9867C101 32.1274 100.98 32.2896 100.98 32.4735V32.5916C100.98 32.7361 101 32.8721 101.039 32.9996C101.081 33.1253 101.14 33.236 101.217 33.3316C101.295 33.4273 101.39 33.5023 101.501 33.5567C101.613 33.6111 101.741 33.6383 101.884 33.6383C102.067 33.6383 102.223 33.6008 102.351 33.5258C102.478 33.4508 102.59 33.3504 102.685 33.2247L103.001 33.4751C102.935 33.5746 102.851 33.6693 102.75 33.7593C102.649 33.8494 102.524 33.9225 102.376 33.9788C102.23 34.0351 102.056 34.0632 101.855 34.0632Z" fill="black"/>
<path d="M105.443 33.4864V31.9192C105.443 31.7991 105.419 31.695 105.37 31.6068C105.323 31.5168 105.252 31.4474 105.156 31.3986C105.06 31.3498 104.942 31.3255 104.801 31.3255C104.67 31.3255 104.555 31.348 104.455 31.393C104.358 31.438 104.281 31.4971 104.225 31.5703C104.17 31.6434 104.143 31.7222 104.143 31.8066H103.622C103.622 31.6978 103.651 31.5899 103.707 31.483C103.763 31.3761 103.844 31.2795 103.949 31.1932C104.056 31.1051 104.183 31.0356 104.331 30.985C104.482 30.9325 104.649 30.9062 104.832 30.9062C105.054 30.9062 105.249 30.9437 105.418 31.0188C105.588 31.0938 105.721 31.2073 105.817 31.3592C105.915 31.5093 105.963 31.6978 105.963 31.9248V33.3429C105.963 33.4442 105.972 33.552 105.989 33.6665C106.008 33.7809 106.035 33.8794 106.07 33.9619V34.0069H105.527C105.501 33.9469 105.48 33.8672 105.465 33.7678C105.45 33.6665 105.443 33.5727 105.443 33.4864ZM105.533 32.1611L105.539 32.5269H105.012C104.864 32.5269 104.732 32.5391 104.616 32.5635C104.499 32.586 104.402 32.6207 104.323 32.6676C104.244 32.7145 104.184 32.7736 104.143 32.8449C104.102 32.9143 104.081 32.9959 104.081 33.0897C104.081 33.1853 104.103 33.2726 104.146 33.3513C104.189 33.4301 104.254 33.493 104.34 33.5399C104.428 33.5849 104.536 33.6074 104.664 33.6074C104.823 33.6074 104.964 33.5736 105.086 33.5061C105.207 33.4386 105.304 33.356 105.375 33.2585C105.449 33.1609 105.488 33.0662 105.494 32.9743L105.716 33.2247C105.703 33.3035 105.667 33.3907 105.609 33.4864C105.551 33.5821 105.473 33.674 105.375 33.7621C105.28 33.8484 105.165 33.9206 105.032 33.9788C104.901 34.0351 104.753 34.0632 104.588 34.0632C104.381 34.0632 104.2 34.0229 104.044 33.9422C103.891 33.8616 103.771 33.7537 103.684 33.6186C103.6 33.4817 103.558 33.3288 103.558 33.16C103.558 32.9968 103.59 32.8533 103.653 32.7295C103.717 32.6038 103.809 32.4997 103.929 32.4172C104.049 32.3328 104.194 32.269 104.362 32.2258C104.531 32.1827 104.72 32.1611 104.928 32.1611H105.533Z" fill="black"/>
<path d="M108.555 33.1994C108.555 33.1244 108.538 33.055 108.504 32.9912C108.472 32.9255 108.406 32.8664 108.304 32.8139C108.205 32.7595 108.055 32.7126 107.854 32.6732C107.685 32.6376 107.533 32.5954 107.396 32.5466C107.261 32.4978 107.145 32.4388 107.05 32.3693C106.956 32.2999 106.884 32.2183 106.833 32.1246C106.782 32.0308 106.757 31.921 106.757 31.7953C106.757 31.6753 106.783 31.5618 106.836 31.4549C106.89 31.348 106.966 31.2532 107.064 31.1707C107.163 31.0882 107.282 31.0235 107.421 30.9766C107.56 30.9297 107.715 30.9062 107.885 30.9062C108.129 30.9062 108.337 30.9494 108.51 31.0356C108.682 31.1219 108.815 31.2373 108.907 31.3817C108.999 31.5243 109.044 31.6828 109.044 31.8573H108.524C108.524 31.7728 108.499 31.6912 108.448 31.6125C108.399 31.5318 108.327 31.4652 108.231 31.4127C108.138 31.3602 108.022 31.3339 107.885 31.3339C107.741 31.3339 107.624 31.3564 107.534 31.4014C107.445 31.4446 107.381 31.4999 107.339 31.5674C107.3 31.635 107.28 31.7062 107.28 31.7813C107.28 31.8376 107.29 31.8882 107.308 31.9332C107.329 31.9764 107.365 32.0167 107.415 32.0542C107.466 32.0899 107.537 32.1236 107.629 32.1555C107.721 32.1874 107.838 32.2193 107.981 32.2512C108.23 32.3074 108.436 32.375 108.597 32.4538C108.758 32.5325 108.878 32.6291 108.957 32.7436C109.036 32.858 109.075 32.9968 109.075 33.16C109.075 33.2932 109.047 33.4151 108.991 33.5258C108.937 33.6365 108.857 33.7321 108.752 33.8128C108.649 33.8916 108.525 33.9535 108.38 33.9985C108.238 34.0416 108.077 34.0632 107.899 34.0632C107.631 34.0632 107.404 34.0154 107.218 33.9197C107.033 33.824 106.892 33.7002 106.796 33.5483C106.701 33.3964 106.653 33.236 106.653 33.0672H107.176C107.184 33.2097 107.225 33.3232 107.3 33.4076C107.375 33.4901 107.467 33.5492 107.576 33.5849C107.685 33.6186 107.792 33.6355 107.899 33.6355C108.042 33.6355 108.161 33.6168 108.257 33.5792C108.354 33.5417 108.428 33.4901 108.479 33.4245C108.53 33.3588 108.555 33.2838 108.555 33.1994Z" fill="black"/>
<path d="M111.023 34.0632C110.811 34.0632 110.618 34.0276 110.446 33.9563C110.275 33.8831 110.128 33.7809 110.004 33.6496C109.882 33.5183 109.788 33.3626 109.723 33.1825C109.657 33.0024 109.624 32.8055 109.624 32.5916V32.4735C109.624 32.2258 109.661 32.0054 109.734 31.8122C109.807 31.6171 109.906 31.4521 110.032 31.317C110.158 31.182 110.3 31.0797 110.46 31.0103C110.619 30.9409 110.784 30.9062 110.955 30.9062C111.173 30.9062 111.36 30.9437 111.518 31.0188C111.677 31.0938 111.808 31.1988 111.909 31.3339C112.01 31.4671 112.085 31.6247 112.134 31.8066C112.183 31.9867 112.207 32.1836 112.207 32.3975V32.631H109.934V32.2062H111.687V32.1668C111.679 32.0317 111.651 31.9004 111.602 31.7728C111.555 31.6453 111.48 31.5402 111.377 31.4577C111.274 31.3752 111.133 31.3339 110.955 31.3339C110.837 31.3339 110.728 31.3592 110.629 31.4099C110.529 31.4586 110.444 31.5318 110.373 31.6293C110.301 31.7269 110.246 31.846 110.207 31.9867C110.167 32.1274 110.147 32.2896 110.147 32.4735V32.5916C110.147 32.7361 110.167 32.8721 110.207 32.9996C110.248 33.1253 110.307 33.236 110.384 33.3316C110.463 33.4273 110.557 33.5023 110.668 33.5567C110.781 33.6111 110.908 33.6383 111.051 33.6383C111.234 33.6383 111.39 33.6008 111.518 33.5258C111.645 33.4508 111.757 33.3504 111.853 33.2247L112.168 33.4751C112.102 33.5746 112.019 33.6693 111.917 33.7593C111.816 33.8494 111.691 33.9225 111.543 33.9788C111.397 34.0351 111.223 34.0632 111.023 34.0632Z" fill="black"/>
<path d="M112.823 33.7312C112.823 33.643 112.851 33.5689 112.905 33.5089C112.961 33.447 113.042 33.4161 113.147 33.4161C113.252 33.4161 113.332 33.447 113.386 33.5089C113.442 33.5689 113.47 33.643 113.47 33.7312C113.47 33.8175 113.442 33.8906 113.386 33.9507C113.332 34.0107 113.252 34.0407 113.147 34.0407C113.042 34.0407 112.961 34.0107 112.905 33.9507C112.851 33.8906 112.823 33.8175 112.823 33.7312Z" fill="black"/>
<defs>
<filter id="filter0_i_7253_23788" x="4.93652" y="12.7407" width="24.96" height="2.40332" filterUnits="userSpaceOnUse" color-interpolation-filters="sRGB">
<feFlood flood-opacity="0" result="BackgroundImageFix"/>
<feBlend mode="normal" in="SourceGraphic" in2="BackgroundImageFix" result="shape"/>
<feColorMatrix in="SourceAlpha" type="matrix" values="0 0 0 0 0 0 0 0 0 0 0 0 0 0 0 0 0 0 127 0" result="hardAlpha"/>
<feOffset dy="6"/>
<feComposite in2="hardAlpha" operator="arithmetic" k2="-1" k3="1"/>
<feColorMatrix type="matrix" values="0 0 0 0 0 0 0 0 0 0 0 0 0 0 0 0 0 0 0.25 0"/>
<feBlend mode="normal" in2="shape" result="effect1_innerShadow_7253_23788"/>
</filter>
<linearGradient id="paint0_linear_7253_23788" x1="3.32839" y1="16.1271" x2="28.3804" y2="31.1028" gradientUnits="userSpaceOnUse">
<stop stop-color="#844A36"/>
<stop offset="1" stop-color="#78412E"/>
</linearGradient>
<linearGradient id="paint1_linear_7253_23788" x1="16.4731" y1="16.4385" x2="16.4731" y2="38.9122" gradientUnits="userSpaceOnUse">
<stop stop-color="#C07352"/>
<stop offset="1" stop-color="#A55E3F"/>
</linearGradient>
<linearGradient id="paint2_linear_7253_23788" x1="32.4235" y1="14.4048" x2="32.4235" y2="31.8765" gradientUnits="userSpaceOnUse">
<stop stop-color="#844A36"/>
<stop offset="1" stop-color="#5F3424"/>
</linearGradient>
<linearGradient id="paint3_linear_7253_23788" x1="17.3772" y1="14.1274" x2="17.3772" y2="29.5654" gradientUnits="userSpaceOnUse">
<stop stop-color="#CB754F"/>
<stop offset="1" stop-color="#8A4C30"/>
</linearGradient>
</defs>
</svg>
