<svg width="342" height="232" viewBox="0 0 342 232" fill="none" xmlns="http://www.w3.org/2000/svg">
<path d="M342 203.604C342 244.868 307.075 278.241 264 278.241C220.925 278.241 186 244.868 186 203.604C186 182.649 194.925 163.763 209.413 150.31C212.647 147.206 216.139 144.489 219.89 142.032L219.761 105.166H307.851V142.032C311.99 144.748 316 147.982 319.493 151.345C333.463 164.798 342 183.295 342 203.604Z" fill="url(#paint0_linear_11_211)"/>
<path d="M308.109 105.037C308.109 108.141 288.318 110.599 264 110.599C239.681 110.599 219.89 108.141 219.89 105.037C219.89 101.932 239.681 99.4746 264 99.4746C288.318 99.604 308.109 102.062 308.109 105.037Z" fill="#242424"/>
<path d="M264 99.6042C239.681 99.6042 219.89 102.062 219.89 105.166C219.89 108.271 239.681 110.729 264 110.729C288.318 110.729 308.109 108.271 308.109 105.166C308.109 102.062 288.318 99.6042 264 99.6042ZM294.398 108.271C286.248 109.306 275.383 109.823 264 109.823C252.617 109.823 241.88 109.306 233.602 108.271C222.477 106.977 220.925 105.425 220.796 105.166C220.925 104.908 222.477 103.356 233.602 102.062C241.751 101.027 252.617 100.51 264 100.51C275.383 100.51 286.119 101.027 294.398 102.062C305.522 103.356 307.074 104.908 307.204 105.166C306.945 105.296 305.522 106.848 294.398 108.271Z" fill="#303030"/>
<mask id="mask0_11_211" style="mask-type:alpha" maskUnits="userSpaceOnUse" x="186" y="105" width="156" height="174">
<path d="M342 203.604C342 244.868 307.075 278.241 264 278.241C220.925 278.241 186 244.868 186 203.604C186 182.649 194.925 163.763 209.413 150.31C212.647 147.206 216.139 144.489 219.89 142.032L219.761 105.166H307.851V142.032C311.99 144.748 316 147.982 319.493 151.345C333.463 164.798 342 183.295 342 203.604Z" fill="#BA6A48"/>
</mask>
<g mask="url(#mask0_11_211)">
<path d="M293.134 184.847C291.064 152.768 243.549 143.454 220.049 142.808C247.99 134.012 280.414 140.436 293.134 140.867C292.099 126.897 269.85 111.763 258.855 109.823C287.831 111.375 304.129 107.02 308.656 104.648V142.808C358.457 173.206 352.637 244.997 298.955 270.867C256.01 291.564 219.187 269.358 207.761 255.345C256.915 272.808 295.721 224.947 293.134 184.847Z" fill="#834A36"/>
</g>
<path d="M249.153 178.38C249.153 193.025 233.795 218.48 225.222 218.48C216.65 218.48 209.7 206.607 209.7 191.962C209.7 177.317 216.65 165.445 225.222 165.445C233.795 165.445 249.153 163.735 249.153 178.38Z" fill="url(#paint1_linear_11_211)"/>
<path d="M174.2 265.853C174.2 270.443 147.042 274.299 113.66 274.299C108.426 274.299 103.334 274.115 98.5243 274.115C72.3559 273.197 53.1187 269.892 53.1187 266.036C53.1187 234.64 125.824 222.338 160.904 245.473C167.411 249.696 174.2 256.305 174.2 265.853Z" fill="#784440"/>
<path d="M160.904 245.289C144.779 244.738 119.742 248.594 98.5245 274.115C72.3561 273.197 53.1189 269.892 53.1189 266.037C52.9774 234.64 125.683 222.339 160.904 245.289Z" fill="#814742"/>
<path d="M3.23807 116.792C-9.23091 78.9052 41.6039 77.2267 75.1742 77.2267C35.3693 77.2267 25.4182 90.6148 24.8188 97.0092C26.6172 146.765 132.723 183.932 194.469 191.726L213.652 206.712C78.7711 198.919 17.2257 142.969 3.23807 116.792Z" fill="url(#paint2_linear_11_211)"/>
<path d="M60.7842 242.082C5.63289 220.98 -3.15952 145.767 0.836945 106.601C7.07144 134.417 47.3958 160.554 66.7787 170.145C120.222 197.481 187.16 205.714 213.649 206.713C197.463 246.278 122.53 265.706 60.7842 242.082Z" fill="url(#paint3_linear_11_211)"/>
<path d="M200.462 93.4133C202.38 163.431 197.465 188.13 194.467 191.726L213.65 206.713C226.119 186.571 226.839 122.787 225.64 93.4133H200.462Z" fill="url(#paint4_linear_11_211)"/>
<path d="M64.9833 149.164C26.6172 128.063 20.0229 103.604 26.0176 91.6149C96.0358 109.359 171.289 100.807 200.464 93.4133C203.341 160.074 198.066 186.331 194.469 191.726C144.593 188.369 87.3635 161.753 64.9833 149.164Z" fill="url(#paint5_linear_11_211)"/>
<path d="M226.238 93.4127C216.647 78.0663 121.131 76.2279 74.5725 77.227C45.3183 77.227 30.2117 85.0201 26.0154 91.6143C35.1273 99.2875 80.3674 102.405 102.148 103.004C139.555 104.923 183.276 97.4092 200.461 93.4127H226.238Z" fill="#6C3C2B"/>
<g filter="url(#filter0_i_11_211)">
<ellipse cx="112.941" cy="90.4154" rx="80.9285" ry="7.79311" fill="#303030"/>
</g>
<path d="M162.154 31.3953C160.952 39.8213 160.951 48.3753 162.151 56.8016L166.654 88.4137C166.654 91.8894 142.39 94.9307 112.603 94.9307C103.726 94.9307 95.4408 94.7135 88.142 94.279C70.5853 93.1928 58.552 87.9792 58.9465 87.5448L63.2723 56.9653C64.4594 48.5742 64.4553 40.0574 63.2601 31.6673L58.7493 0H166.654L164.681 13.6857L162.154 31.3953Z" fill="#CA7B57"/>
<defs>
<filter id="filter0_i_11_211" x="32.0126" y="82.6223" width="161.857" height="15.5862" filterUnits="userSpaceOnUse" color-interpolation-filters="sRGB">
<feFlood flood-opacity="0" result="BackgroundImageFix"/>
<feBlend mode="normal" in="SourceGraphic" in2="BackgroundImageFix" result="shape"/>
<feColorMatrix in="SourceAlpha" type="matrix" values="0 0 0 0 0 0 0 0 0 0 0 0 0 0 0 0 0 0 127 0" result="hardAlpha"/>
<feOffset dy="6"/>
<feComposite in2="hardAlpha" operator="arithmetic" k2="-1" k3="1"/>
<feColorMatrix type="matrix" values="0 0 0 0 0 0 0 0 0 0 0 0 0 0 0 0 0 0 0.25 0"/>
<feBlend mode="normal" in2="shape" result="effect1_innerShadow_11_211"/>
</filter>
<linearGradient id="paint0_linear_11_211" x1="211.5" y1="165" x2="274" y2="218.5" gradientUnits="userSpaceOnUse">
<stop stop-color="#CE7D59"/>
<stop offset="1" stop-color="#925134"/>
</linearGradient>
<linearGradient id="paint1_linear_11_211" x1="196.995" y1="222.36" x2="244.855" y2="179.674" gradientUnits="userSpaceOnUse">
<stop stop-color="#CA7B57"/>
<stop offset="1" stop-color="#CA7B57" stop-opacity="0.5"/>
</linearGradient>
<linearGradient id="paint2_linear_11_211" x1="21.5837" y1="104.579" x2="184.04" y2="201.693" gradientUnits="userSpaceOnUse">
<stop stop-color="#844A36"/>
<stop offset="1" stop-color="#78412E"/>
</linearGradient>
<linearGradient id="paint3_linear_11_211" x1="106.825" y1="106.601" x2="106.825" y2="252.339" gradientUnits="userSpaceOnUse">
<stop stop-color="#C07352"/>
<stop offset="1" stop-color="#A55E3F"/>
</linearGradient>
<linearGradient id="paint4_linear_11_211" x1="210.259" y1="93.4133" x2="210.259" y2="206.713" gradientUnits="userSpaceOnUse">
<stop stop-color="#844A36"/>
<stop offset="1" stop-color="#5F3424"/>
</linearGradient>
<linearGradient id="paint5_linear_11_211" x1="112.687" y1="91.6149" x2="112.687" y2="191.726" gradientUnits="userSpaceOnUse">
<stop stop-color="#CB754F"/>
<stop offset="1" stop-color="#8A4C30"/>
</linearGradient>
</defs>
</svg>
