<svg width="190" height="106" viewBox="0 0 190 106" fill="none" xmlns="http://www.w3.org/2000/svg">
<g filter="url(#filter0_d_34_220)">
<rect x="4" width="182" height="98" rx="16" fill="#FF4500"/>
</g>
<path d="M100.137 53.8402C98.8452 53.8402 97.7916 52.7868 97.7916 51.4944C97.7916 50.2023 98.8452 49.1487 100.137 49.1487C101.43 49.1487 102.483 50.2023 102.483 51.4944C102.483 52.7868 101.43 53.8402 100.137 53.8402ZM100.552 57.69C98.9488 59.2883 95.8825 59.4145 94.9822 59.4145C94.0817 59.4145 91.011 59.2883 89.4125 57.69C89.1741 57.4514 89.1741 57.0687 89.4125 56.83C89.6512 56.5914 90.0339 56.5914 90.2727 56.83C91.2811 57.8387 93.4379 58.1989 94.9822 58.1989C96.5221 58.1989 98.6831 57.8387 99.6918 56.83C99.9302 56.5914 100.313 56.5914 100.552 56.83C100.786 57.0687 100.786 57.4514 100.552 57.69ZM87.4719 51.4946C87.4719 50.2025 88.5255 49.1489 89.8179 49.1489C91.11 49.1489 92.1636 50.2025 92.1636 51.4946C92.1636 52.7868 91.11 53.8406 89.8179 53.8406C88.5255 53.8402 87.4719 52.7868 87.4719 51.4946ZM109.984 49.1489C109.984 47.3343 108.517 45.8665 106.702 45.8665C105.815 45.8665 105.013 46.2175 104.424 46.7896C102.182 45.1687 99.0885 44.1241 95.6439 44.0025L97.1388 36.965L102.024 38.0052C102.083 39.248 103.1 40.2386 104.356 40.2386C105.653 40.2386 106.702 39.1894 106.702 37.8926C106.702 36.5961 105.653 35.5469 104.356 35.5469C103.433 35.5469 102.645 36.0826 102.263 36.857L96.8055 35.6954C96.6525 35.6639 96.495 35.6912 96.3643 35.7765C96.2339 35.862 96.1436 35.9926 96.1123 36.1456C96.1123 36.1456 94.4733 43.9531 94.4733 43.9981C90.9659 44.088 87.8141 45.1372 85.5359 46.7806C84.9462 46.2133 84.1491 45.8665 83.2667 45.8665C81.4521 45.8665 79.9844 47.3387 79.9844 49.1489C79.9844 50.4815 80.7812 51.6298 81.9249 52.1428C81.8755 52.4673 81.8484 52.8002 81.8484 53.138C81.8484 58.1897 87.7286 62.2827 94.9822 62.2827C102.236 62.2827 108.116 58.1897 108.116 53.138C108.116 52.8047 108.089 52.4761 108.039 52.152C109.179 51.6387 109.984 50.4907 109.984 49.1489Z" fill="white"/>
<defs>
<filter id="filter0_d_34_220" x="0" y="0" width="190" height="106" filterUnits="userSpaceOnUse" color-interpolation-filters="sRGB">
<feFlood flood-opacity="0" result="BackgroundImageFix"/>
<feColorMatrix in="SourceAlpha" type="matrix" values="0 0 0 0 0 0 0 0 0 0 0 0 0 0 0 0 0 0 127 0" result="hardAlpha"/>
<feOffset dy="4"/>
<feGaussianBlur stdDeviation="2"/>
<feComposite in2="hardAlpha" operator="out"/>
<feColorMatrix type="matrix" values="0 0 0 0 0 0 0 0 0 0 0 0 0 0 0 0 0 0 0.25 0"/>
<feBlend mode="normal" in2="BackgroundImageFix" result="effect1_dropShadow_34_220"/>
<feBlend mode="normal" in="SourceGraphic" in2="effect1_dropShadow_34_220" result="shape"/>
</filter>
</defs>
</svg>
