<svg width="20" height="20" viewBox="0 0 20 20" fill="none" xmlns="http://www.w3.org/2000/svg">
<g clip-path="url(#clip0_1_1133)">
<path d="M18.8342 1.71833C18.7966 1.5756 18.7218 1.4454 18.6174 1.34103C18.513 1.23666 18.3828 1.16186 18.2401 1.12426C16.5306 0.680247 14.7305 0.728069 13.047 1.26222C11.3635 1.79636 9.86511 2.79512 8.72432 4.14347L7.79522 5.24666L5.62455 4.72293C5.09683 4.53896 4.52037 4.55214 4.00161 4.76006C3.48286 4.96797 3.05686 5.35657 2.80228 5.85408L0.96879 9.104C0.904547 9.21783 0.867986 9.34519 0.862062 9.47576C0.856138 9.60634 0.881018 9.73648 0.93469 9.85567C0.988362 9.97485 1.06932 10.0797 1.17102 10.1618C1.27273 10.244 1.39232 10.301 1.52014 10.3283L4.08077 10.8772C3.86385 11.5375 3.70897 12.2166 3.61812 12.9056C3.60165 13.0322 3.61448 13.1609 3.65561 13.2818C3.69673 13.4026 3.76507 13.5124 3.85534 13.6027L6.43876 16.1861C6.5161 16.2635 6.60795 16.3249 6.70904 16.3668C6.81014 16.4087 6.91849 16.4302 7.02792 16.4302C7.05193 16.4302 7.07594 16.429 7.10036 16.427C7.80481 16.3637 8.5007 16.2268 9.17667 16.0187L9.71307 18.5213C9.74047 18.6491 9.79754 18.7686 9.87967 18.8703C9.96179 18.972 10.0667 19.0529 10.1858 19.1066C10.305 19.1602 10.4351 19.1851 10.5657 19.1792C10.6962 19.1733 10.8236 19.1368 10.9374 19.0727L14.1918 17.2371C14.6499 16.9588 15.0077 16.5422 15.2136 16.0474C15.4195 15.5526 15.463 15.0051 15.3377 14.484L14.7804 12.1849L15.8113 11.2369C17.1647 10.0993 18.1673 8.60086 18.7024 6.91579C19.2376 5.23072 19.2833 3.42835 18.8342 1.71833ZM2.97685 8.93595L4.27364 6.63615C4.35419 6.48002 4.49141 6.36062 4.65718 6.30243C4.82295 6.24425 5.0047 6.2517 5.16516 6.32324L6.59633 6.67007L6.05466 7.31323C5.54113 7.92871 5.09697 8.5989 4.73023 9.31166L2.97685 8.93595ZM13.3687 15.7878L11.1055 17.0642L10.7476 15.3936C11.4731 15.0318 12.149 14.5781 12.7587 14.0437L13.3784 13.474L13.7146 14.8612C13.7582 15.0325 13.7484 15.213 13.6866 15.3786C13.6248 15.5442 13.5139 15.6869 13.3687 15.7878ZM14.7139 9.98333L11.6434 12.8052C10.4281 13.8563 8.92895 14.5243 7.33476 14.7254L5.33117 12.7218C5.60027 11.1234 6.29093 9.62582 7.33191 8.38344L8.73052 6.72287C8.75383 6.6985 8.77557 6.67268 8.79563 6.64556L9.99142 5.22583C10.8756 4.18158 12.021 3.39067 13.3108 2.93387C14.6005 2.47706 15.9884 2.37073 17.3327 2.62573C17.5939 3.97425 17.4887 5.36812 17.0281 6.66217C16.5675 7.95621 15.7684 9.10309 14.7139 9.98333ZM13.9447 4.84686C13.6975 4.84686 13.4558 4.92018 13.2503 5.05753C13.0447 5.19488 12.8845 5.3901 12.7899 5.61851C12.6953 5.84692 12.6705 6.09825 12.7188 6.34073C12.767 6.5832 12.886 6.80593 13.0609 6.98075C13.2357 7.15556 13.4584 7.27461 13.7009 7.32285C13.9434 7.37108 14.1947 7.34632 14.4231 7.25171C14.6515 7.1571 14.8467 6.99689 14.9841 6.79133C15.1214 6.58577 15.1947 6.34409 15.1947 6.09686C15.1948 5.93271 15.1624 5.77015 15.0996 5.61849C15.0368 5.46682 14.9447 5.32902 14.8286 5.21294C14.7126 5.09686 14.5748 5.00479 14.4231 4.94197C14.2714 4.87916 14.1089 4.84683 13.9447 4.84685L13.9447 4.84686Z" fill="#CA7B57"/>
</g>
<defs>
<clipPath id="clip0_1_1133">
<rect width="20" height="20" fill="white"/>
</clipPath>
</defs>
</svg>
