<svg width="182" height="98" viewBox="0 0 182 98" fill="none" xmlns="http://www.w3.org/2000/svg">
<rect width="182" height="98" rx="16" fill="#03A9F4"/>
<path d="M85.4249 61.0138C96.7463 61.0138 102.937 51.6344 102.937 43.5013C102.937 43.2349 102.932 42.9696 102.92 42.7058C104.122 41.8369 105.166 40.7526 105.99 39.5184C104.887 40.0088 103.7 40.3385 102.456 40.4877C103.726 39.7254 104.702 38.52 105.162 37.0832C103.973 37.7882 102.656 38.3004 101.254 38.5771C100.131 37.3807 98.5314 36.6326 96.7607 36.6326C93.3619 36.6326 90.6054 39.3889 90.6054 42.7867C90.6054 43.2699 90.6595 43.7396 90.765 44.1902C85.6495 43.9328 81.1131 41.4837 78.0777 37.7594C77.5494 38.6688 77.2445 39.7256 77.2445 40.8531C77.2445 42.9883 78.3311 44.8737 79.9834 45.9764C78.9736 45.9454 78.0251 45.6681 77.1958 45.2067C77.1949 45.2326 77.1949 45.2577 77.1949 45.2853C77.1949 48.2662 79.3165 50.755 82.1332 51.319C81.6158 51.4597 81.0715 51.5355 80.5101 51.5355C80.1142 51.5355 79.7282 51.4966 79.3532 51.4245C80.1368 53.8701 82.4091 55.6497 85.1031 55.6996C82.9964 57.3507 80.3426 58.3343 77.4584 58.3343C76.9623 58.3343 76.4719 58.3058 75.9901 58.249C78.7142 59.995 81.9488 61.0139 85.4251 61.0139" fill="white"/>
</svg>
